M48
; DRILL file {KiCad (6.0.9-0)} date 2023 January 09, Monday 20:35:16
; FORMAT={-:-/ absolute / inch / decimal}
; #@! TF.CreationDate,2023-01-09T20:35:16+02:00
; #@! TF.GenerationSoftware,Kicad,Pcbnew,(6.0.9-0)
; #@! TF.FileFunction,Plated,1,2,PTH
FMAT,2
INCH
; #@! TA.AperFunction,Plated,PTH,ViaDrill
T1C0.0157
; #@! TA.AperFunction,Plated,PTH,ComponentDrill
T2C0.0394
%
G90
G05
T1
X2.0906Y-2.7706
X2.5794Y-3.0906
X2.598Y-2.888
X2.6708Y-3.0708
X2.75Y-2.88
X2.81Y-2.85
X2.87Y-2.82
X3.0Y-2.79
X3.0Y-3.15
X3.0Y-3.88
X3.05Y-4.12
X3.1Y-2.75
X3.1Y-3.86
X3.11Y-2.69
X3.15Y-2.72
X3.15Y-4.12
X3.75Y-2.88
X3.99Y-3.23
X4.12Y-3.3
X4.16Y-3.37
X4.31Y-3.23
X4.36Y-3.12
X4.3983Y-3.5183
X4.5011Y-3.5811
X4.5183Y-3.3017
X4.54Y-3.79
X4.6Y-3.28
X4.63Y-2.94
X4.71Y-3.26
X4.71Y-3.34
X4.7402Y-3.4002
X4.9Y-3.62
X5.06Y-2.36
X5.17Y-2.66
T2
X2.2573Y-2.4381
X2.2573Y-2.5381
X2.3573Y-2.4381
X2.3573Y-2.5381
X2.4573Y-2.4381
X2.4573Y-2.5381
X2.5573Y-2.4381
X2.5573Y-2.5381
X2.6573Y-2.4381
X2.6573Y-2.5381
X2.7573Y-2.4381
X2.7573Y-2.5381
X2.8573Y-2.4381
X2.8573Y-2.5381
X2.9004Y-2.9708
X2.9004Y-3.0708
X2.9004Y-4.0708
X2.9004Y-4.1708
X2.9573Y-2.4381
X2.9573Y-2.5381
X3.0004Y-2.9708
X3.0004Y-3.0708
X3.0004Y-4.0708
X3.0004Y-4.1708
X3.0573Y-2.4381
X3.0573Y-2.5381
X3.1004Y-2.9708
X3.1004Y-3.0708
X3.1004Y-4.0708
X3.1004Y-4.1708
X3.1573Y-2.4381
X3.1573Y-2.5381
X3.2004Y-2.9708
X3.2004Y-3.0708
X3.2004Y-4.0708
X3.2004Y-4.1708
X3.2573Y-2.4381
X3.2573Y-2.5381
X3.3004Y-2.9708
X3.3004Y-3.0708
X3.3004Y-4.0708
X3.3004Y-4.1708
X3.3573Y-2.4381
X3.3573Y-2.5381
X3.4004Y-2.9708
X3.4004Y-3.0708
X3.4004Y-4.0708
X3.4004Y-4.1708
X3.4573Y-2.4381
X3.4573Y-2.5381
X3.5004Y-2.9708
X3.5004Y-3.0708
X3.5004Y-4.0708
X3.5004Y-4.1708
X3.5573Y-2.4381
X3.5573Y-2.5381
X3.6004Y-2.9708
X3.6004Y-3.0708
X3.6004Y-4.0708
X3.6004Y-4.1708
X3.6573Y-2.4381
X3.6573Y-2.5381
X3.7004Y-2.9708
X3.7004Y-3.0708
X3.7004Y-4.0708
X3.7004Y-4.1708
X3.7573Y-2.4381
X3.7573Y-2.5381
X3.8004Y-2.9708
X3.8004Y-3.0708
X3.8004Y-4.0708
X3.8004Y-4.1708
X3.8573Y-2.4381
X3.8573Y-2.5381
X3.9004Y-2.9708
X3.9004Y-3.0708
X3.9004Y-4.0708
X3.9004Y-4.1708
X3.9573Y-2.4381
X3.9573Y-2.5381
X4.0004Y-2.9708
X4.0004Y-3.0708
X4.0004Y-4.0708
X4.0004Y-4.1708
X4.0573Y-2.4381
X4.0573Y-2.5381
X4.1004Y-2.9708
X4.1004Y-3.0708
X4.1004Y-4.0708
X4.1004Y-4.1708
X4.1573Y-2.4381
X4.1573Y-2.5381
X4.2004Y-2.9708
X4.2004Y-3.0708
X4.2004Y-4.0708
X4.2004Y-4.1708
X4.2573Y-2.4381
X4.2573Y-2.5381
X4.3573Y-2.4381
X4.3573Y-2.5381
X4.37Y-3.87
X4.37Y-3.97
X4.37Y-4.07
X4.37Y-4.17
X4.4573Y-2.4381
X4.4573Y-2.5381
X4.5573Y-2.4381
X4.5573Y-2.5381
X4.6573Y-2.4381
X4.6573Y-2.5381
X4.67Y-4.07
X4.7573Y-2.4381
X4.7573Y-2.5381
X4.77Y-4.07
X4.8573Y-2.4381
X4.8573Y-2.5381
X4.87Y-4.07
X4.9573Y-2.4381
X4.9573Y-2.5381
X4.97Y-4.07
X5.0573Y-2.4381
X5.0573Y-2.5381
X5.0698Y-3.24
X5.0698Y-3.44
X5.07Y-4.07
X5.1573Y-2.4381
X5.1573Y-2.5381
X5.1698Y-3.24
X5.1698Y-3.44
X5.17Y-4.07
X5.2573Y-2.4381
X5.2573Y-2.5381
X5.3573Y-2.4381
X5.3573Y-2.5381
T0
M30
