%TF.GenerationSoftware,KiCad,Pcbnew,(6.0.9-0)*%
%TF.CreationDate,2023-01-09T20:35:05+02:00*%
%TF.ProjectId,QE_PCB,51455f50-4342-42e6-9b69-6361645f7063,rev?*%
%TF.SameCoordinates,Original*%
%TF.FileFunction,Paste,Top*%
%TF.FilePolarity,Positive*%
%FSLAX46Y46*%
G04 Gerber Fmt 4.6, Leading zero omitted, Abs format (unit mm)*
G04 Created by KiCad (PCBNEW (6.0.9-0)) date 2023-01-09 20:35:05*
%MOMM*%
%LPD*%
G01*
G04 APERTURE LIST*
G04 Aperture macros list*
%AMRoundRect*
0 Rectangle with rounded corners*
0 $1 Rounding radius*
0 $2 $3 $4 $5 $6 $7 $8 $9 X,Y pos of 4 corners*
0 Add a 4 corners polygon primitive as box body*
4,1,4,$2,$3,$4,$5,$6,$7,$8,$9,$2,$3,0*
0 Add four circle primitives for the rounded corners*
1,1,$1+$1,$2,$3*
1,1,$1+$1,$4,$5*
1,1,$1+$1,$6,$7*
1,1,$1+$1,$8,$9*
0 Add four rect primitives between the rounded corners*
20,1,$1+$1,$2,$3,$4,$5,0*
20,1,$1+$1,$4,$5,$6,$7,0*
20,1,$1+$1,$6,$7,$8,$9,0*
20,1,$1+$1,$8,$9,$2,$3,0*%
G04 Aperture macros list end*
%ADD10RoundRect,0.250000X0.350000X0.450000X-0.350000X0.450000X-0.350000X-0.450000X0.350000X-0.450000X0*%
%ADD11R,0.600000X1.800000*%
%ADD12RoundRect,0.250000X-0.450000X0.350000X-0.450000X-0.350000X0.450000X-0.350000X0.450000X0.350000X0*%
%ADD13RoundRect,0.237500X0.237500X-0.300000X0.237500X0.300000X-0.237500X0.300000X-0.237500X-0.300000X0*%
%ADD14R,2.750000X3.050000*%
%ADD15R,1.600000X3.000000*%
%ADD16R,1.700000X3.000000*%
%ADD17RoundRect,0.250000X-0.875000X-0.925000X0.875000X-0.925000X0.875000X0.925000X-0.875000X0.925000X0*%
%ADD18RoundRect,0.075000X-0.662500X-0.075000X0.662500X-0.075000X0.662500X0.075000X-0.662500X0.075000X0*%
%ADD19RoundRect,0.075000X-0.075000X-0.662500X0.075000X-0.662500X0.075000X0.662500X-0.075000X0.662500X0*%
%ADD20RoundRect,0.237500X-0.237500X0.300000X-0.237500X-0.300000X0.237500X-0.300000X0.237500X0.300000X0*%
%ADD21RoundRect,0.250000X0.925000X-0.875000X0.925000X0.875000X-0.925000X0.875000X-0.925000X-0.875000X0*%
%ADD22RoundRect,0.237500X0.300000X0.237500X-0.300000X0.237500X-0.300000X-0.237500X0.300000X-0.237500X0*%
%ADD23R,1.500000X0.400000*%
%ADD24RoundRect,0.150000X0.587500X0.150000X-0.587500X0.150000X-0.587500X-0.150000X0.587500X-0.150000X0*%
%ADD25RoundRect,0.250000X0.450000X-0.350000X0.450000X0.350000X-0.450000X0.350000X-0.450000X-0.350000X0*%
G04 APERTURE END LIST*
D10*
%TO.C,R4*%
X75692000Y-113538000D03*
X73692000Y-113538000D03*
%TD*%
%TO.C,R3*%
X75676000Y-110236000D03*
X73676000Y-110236000D03*
%TD*%
D11*
%TO.C,D1*%
X77924000Y-113394000D03*
X77924000Y-110994000D03*
X78874000Y-110994000D03*
X78874000Y-113394000D03*
%TD*%
D12*
%TO.C,R2*%
X128778000Y-90948000D03*
X128778000Y-92948000D03*
%TD*%
D13*
%TO.C,C6*%
X117602000Y-78332500D03*
X117602000Y-76607500D03*
%TD*%
D14*
%TO.C,U1*%
X62535800Y-83127400D03*
X62535800Y-86477400D03*
X59485800Y-83127400D03*
X59485800Y-86477400D03*
D15*
X63310800Y-77502400D03*
D16*
X58660800Y-77502400D03*
%TD*%
D17*
%TO.C,C1*%
X58638600Y-73355200D03*
X63738600Y-73355200D03*
%TD*%
D18*
%TO.C,U2*%
X110415500Y-82864000D03*
X110415500Y-83364000D03*
X110415500Y-83864000D03*
X110415500Y-84364000D03*
X110415500Y-84864000D03*
X110415500Y-85364000D03*
X110415500Y-85864000D03*
X110415500Y-86364000D03*
X110415500Y-86864000D03*
X110415500Y-87364000D03*
X110415500Y-87864000D03*
X110415500Y-88364000D03*
X110415500Y-88864000D03*
X110415500Y-89364000D03*
X110415500Y-89864000D03*
X110415500Y-90364000D03*
D19*
X112328000Y-92276500D03*
X112828000Y-92276500D03*
X113328000Y-92276500D03*
X113828000Y-92276500D03*
X114328000Y-92276500D03*
X114828000Y-92276500D03*
X115328000Y-92276500D03*
X115828000Y-92276500D03*
X116328000Y-92276500D03*
X116828000Y-92276500D03*
X117328000Y-92276500D03*
X117828000Y-92276500D03*
X118328000Y-92276500D03*
X118828000Y-92276500D03*
X119328000Y-92276500D03*
X119828000Y-92276500D03*
D18*
X121740500Y-90364000D03*
X121740500Y-89864000D03*
X121740500Y-89364000D03*
X121740500Y-88864000D03*
X121740500Y-88364000D03*
X121740500Y-87864000D03*
X121740500Y-87364000D03*
X121740500Y-86864000D03*
X121740500Y-86364000D03*
X121740500Y-85864000D03*
X121740500Y-85364000D03*
X121740500Y-84864000D03*
X121740500Y-84364000D03*
X121740500Y-83864000D03*
X121740500Y-83364000D03*
X121740500Y-82864000D03*
D19*
X119828000Y-80951500D03*
X119328000Y-80951500D03*
X118828000Y-80951500D03*
X118328000Y-80951500D03*
X117828000Y-80951500D03*
X117328000Y-80951500D03*
X116828000Y-80951500D03*
X116328000Y-80951500D03*
X115828000Y-80951500D03*
X115328000Y-80951500D03*
X114828000Y-80951500D03*
X114328000Y-80951500D03*
X113828000Y-80951500D03*
X113328000Y-80951500D03*
X112828000Y-80951500D03*
X112328000Y-80951500D03*
%TD*%
D20*
%TO.C,C3*%
X116586000Y-96366500D03*
X116586000Y-94641500D03*
%TD*%
%TO.C,C8*%
X102616000Y-81941500D03*
X102616000Y-83666500D03*
%TD*%
D21*
%TO.C,C2*%
X53100000Y-78250000D03*
X53100000Y-73150000D03*
%TD*%
D20*
%TO.C,C4*%
X124460000Y-88445000D03*
X124460000Y-90170000D03*
%TD*%
D22*
%TO.C,C5*%
X108304500Y-84582000D03*
X106579500Y-84582000D03*
%TD*%
D23*
%TO.C,U4*%
X104842000Y-81392000D03*
X104842000Y-82042000D03*
X104842000Y-82692000D03*
X107502000Y-82692000D03*
X107502000Y-81392000D03*
%TD*%
D24*
%TO.C,Q1*%
X65453500Y-69530000D03*
X65453500Y-67630000D03*
X63578500Y-68580000D03*
%TD*%
D25*
%TO.C,R1*%
X131064000Y-92948000D03*
X131064000Y-90948000D03*
%TD*%
D13*
%TO.C,C7*%
X109474000Y-80618500D03*
X109474000Y-78893500D03*
%TD*%
M02*
