%TF.GenerationSoftware,KiCad,Pcbnew,(6.0.9-0)*%
%TF.CreationDate,2023-01-09T20:35:05+02:00*%
%TF.ProjectId,QE_PCB,51455f50-4342-42e6-9b69-6361645f7063,rev?*%
%TF.SameCoordinates,Original*%
%TF.FileFunction,Copper,L2,Bot*%
%TF.FilePolarity,Positive*%
%FSLAX46Y46*%
G04 Gerber Fmt 4.6, Leading zero omitted, Abs format (unit mm)*
G04 Created by KiCad (PCBNEW (6.0.9-0)) date 2023-01-09 20:35:05*
%MOMM*%
%LPD*%
G01*
G04 APERTURE LIST*
G04 Aperture macros list*
%AMRoundRect*
0 Rectangle with rounded corners*
0 $1 Rounding radius*
0 $2 $3 $4 $5 $6 $7 $8 $9 X,Y pos of 4 corners*
0 Add a 4 corners polygon primitive as box body*
4,1,4,$2,$3,$4,$5,$6,$7,$8,$9,$2,$3,0*
0 Add four circle primitives for the rounded corners*
1,1,$1+$1,$2,$3*
1,1,$1+$1,$4,$5*
1,1,$1+$1,$6,$7*
1,1,$1+$1,$8,$9*
0 Add four rect primitives between the rounded corners*
20,1,$1+$1,$2,$3,$4,$5,0*
20,1,$1+$1,$4,$5,$6,$7,0*
20,1,$1+$1,$6,$7,$8,$9,0*
20,1,$1+$1,$8,$9,$2,$3,0*%
G04 Aperture macros list end*
%TA.AperFunction,ComponentPad*%
%ADD10R,1.700000X1.700000*%
%TD*%
%TA.AperFunction,ComponentPad*%
%ADD11O,1.700000X1.700000*%
%TD*%
%TA.AperFunction,ComponentPad*%
%ADD12C,1.550000*%
%TD*%
%TA.AperFunction,ComponentPad*%
%ADD13RoundRect,0.249999X-0.525001X-0.525001X0.525001X-0.525001X0.525001X0.525001X-0.525001X0.525001X0*%
%TD*%
%TA.AperFunction,ViaPad*%
%ADD14C,0.800000*%
%TD*%
%TA.AperFunction,Conductor*%
%ADD15C,0.250000*%
%TD*%
%TA.AperFunction,Conductor*%
%ADD16C,1.000000*%
%TD*%
G04 APERTURE END LIST*
D10*
%TO.P,J5,1,Pin_1*%
%TO.N,/GCK3*%
X110998000Y-98298000D03*
D11*
%TO.P,J5,2,Pin_2*%
%TO.N,/P18*%
X110998000Y-100838000D03*
%TO.P,J5,3,Pin_3*%
%TO.N,/P19*%
X110998000Y-103378000D03*
%TO.P,J5,4,Pin_4*%
%TO.N,/P20*%
X110998000Y-105918000D03*
%TD*%
D10*
%TO.P,J1,1,Pin_1*%
%TO.N,+3V3*%
X131318000Y-103378000D03*
D11*
%TO.P,J1,2,Pin_2*%
%TO.N,GND*%
X128778000Y-103378000D03*
%TO.P,J1,3,Pin_3*%
%TO.N,/TCK*%
X126238000Y-103378000D03*
%TO.P,J1,4,Pin_4*%
%TO.N,/TDO*%
X123698000Y-103378000D03*
%TO.P,J1,5,Pin_5*%
%TO.N,/TDI*%
X121158000Y-103378000D03*
%TO.P,J1,6,Pin_6*%
%TO.N,/TMS*%
X118618000Y-103378000D03*
%TD*%
D10*
%TO.P,J4,1,Pin_1*%
%TO.N,Net-(J4-Pad1)*%
X128773000Y-87376000D03*
D11*
%TO.P,J4,2,Pin_2*%
%TO.N,GND*%
X131313000Y-87376000D03*
%TD*%
D10*
%TO.P,J2,1,Pin_1*%
%TO.N,Net-(J2-Pad1)*%
X128773000Y-82296000D03*
D11*
%TO.P,J2,2,Pin_2*%
%TO.N,GND*%
X131313000Y-82296000D03*
%TD*%
D12*
%TO.P,J3,a1,GND*%
%TO.N,GND*%
X136075000Y-61927000D03*
%TO.P,J3,a2,D3*%
%TO.N,Net-(J3-Pada2)*%
X133535000Y-61927000D03*
%TO.P,J3,a3,D4*%
%TO.N,Net-(J3-Pada3)*%
X130995000Y-61927000D03*
%TO.P,J3,a4,D5*%
%TO.N,Net-(J3-Pada4)*%
X128455000Y-61927000D03*
%TO.P,J3,a5,D6*%
%TO.N,Net-(J3-Pada5)*%
X125915000Y-61927000D03*
%TO.P,J3,a6,D7*%
%TO.N,Net-(J3-Pada6)*%
X123375000Y-61927000D03*
%TO.P,J3,a7,A19*%
%TO.N,/A19*%
X120835000Y-61927000D03*
%TO.P,J3,a8,A18*%
%TO.N,/A18*%
X118295000Y-61927000D03*
%TO.P,J3,a9,A17*%
%TO.N,/A17*%
X115755000Y-61927000D03*
%TO.P,J3,a10,A16*%
%TO.N,/A16*%
X113215000Y-61927000D03*
%TO.P,J3,a11,CLKCPU*%
%TO.N,/CLKCPU*%
X110675000Y-61927000D03*
%TO.P,J3,a12*%
%TO.N,N/C*%
X108135000Y-61927000D03*
%TO.P,J3,a13,A14*%
%TO.N,/A14*%
X105595000Y-61927000D03*
%TO.P,J3,a14,A13*%
%TO.N,/A13*%
X103055000Y-61927000D03*
%TO.P,J3,a15,A12*%
%TO.N,/A12*%
X100515000Y-61927000D03*
%TO.P,J3,a16,A11*%
%TO.N,/A11*%
X97975000Y-61927000D03*
%TO.P,J3,a17,A10*%
%TO.N,/A10*%
X95435000Y-61927000D03*
%TO.P,J3,a18,A9*%
%TO.N,Net-(J3-Pada18)*%
X92895000Y-61927000D03*
%TO.P,J3,a19,A8*%
%TO.N,Net-(J3-Pada19)*%
X90355000Y-61927000D03*
%TO.P,J3,a20,A7*%
%TO.N,Net-(J3-Pada20)*%
X87815000Y-61927000D03*
%TO.P,J3,a21,A6*%
%TO.N,Net-(J3-Pada21)*%
X85275000Y-61927000D03*
%TO.P,J3,a22,A5*%
%TO.N,Net-(J3-Pada22)*%
X82735000Y-61927000D03*
%TO.P,J3,a23,A4*%
%TO.N,Net-(J3-Pada23)*%
X80195000Y-61927000D03*
%TO.P,J3,a24,A3*%
%TO.N,Net-(J3-Pada24)*%
X77655000Y-61927000D03*
%TO.P,J3,a25*%
%TO.N,N/C*%
X75115000Y-61927000D03*
%TO.P,J3,a26*%
X72575000Y-61927000D03*
%TO.P,J3,a27,DSMCL*%
%TO.N,/DSMCL*%
X70035000Y-61927000D03*
%TO.P,J3,a28*%
%TO.N,N/C*%
X67495000Y-61927000D03*
%TO.P,J3,a29*%
X64955000Y-61927000D03*
%TO.P,J3,a30,VP12*%
%TO.N,unconnected-(J3-Pada30)*%
X62415000Y-61927000D03*
%TO.P,J3,a31,VM12*%
%TO.N,unconnected-(J3-Pada31)*%
X59875000Y-61927000D03*
D13*
%TO.P,J3,a32,VIN*%
%TO.N,Net-(C1-Pad1)*%
X57335000Y-61927000D03*
D12*
%TO.P,J3,b1,GND*%
%TO.N,GND*%
X136075000Y-64467000D03*
%TO.P,J3,b2,D2*%
%TO.N,Net-(J3-Padb2)*%
X133535000Y-64467000D03*
%TO.P,J3,b3,D1*%
%TO.N,Net-(J3-Padb3)*%
X130995000Y-64467000D03*
%TO.P,J3,b4,D0*%
%TO.N,Net-(J3-Padb4)*%
X128455000Y-64467000D03*
%TO.P,J3,b5,ASL*%
%TO.N,/ASL*%
X125915000Y-64467000D03*
%TO.P,J3,b6,DSL*%
%TO.N,/DSL*%
X123375000Y-64467000D03*
%TO.P,J3,b7,RDWL*%
%TO.N,/RDWL*%
X120835000Y-64467000D03*
%TO.P,J3,b8,DTACKL*%
%TO.N,/DTACKL*%
X118295000Y-64467000D03*
%TO.P,J3,b9*%
%TO.N,N/C*%
X115755000Y-64467000D03*
%TO.P,J3,b10*%
X113215000Y-64467000D03*
%TO.P,J3,b11,A15*%
%TO.N,/A15*%
X110675000Y-64467000D03*
%TO.P,J3,b12*%
%TO.N,N/C*%
X108135000Y-64467000D03*
%TO.P,J3,b13*%
X105595000Y-64467000D03*
%TO.P,J3,b14*%
X103055000Y-64467000D03*
%TO.P,J3,b15*%
X100515000Y-64467000D03*
%TO.P,J3,b16*%
X97975000Y-64467000D03*
%TO.P,J3,b17*%
X95435000Y-64467000D03*
%TO.P,J3,b18*%
X92895000Y-64467000D03*
%TO.P,J3,b19*%
X90355000Y-64467000D03*
%TO.P,J3,b20*%
X87815000Y-64467000D03*
%TO.P,J3,b21*%
X85275000Y-64467000D03*
%TO.P,J3,b22,A0*%
%TO.N,Net-(J3-Padb22)*%
X82735000Y-64467000D03*
%TO.P,J3,b23*%
%TO.N,N/C*%
X80195000Y-64467000D03*
%TO.P,J3,b24,A1*%
%TO.N,Net-(J3-Padb24)*%
X77655000Y-64467000D03*
%TO.P,J3,b25,A2*%
%TO.N,Net-(J3-Padb25)*%
X75115000Y-64467000D03*
%TO.P,J3,b26*%
%TO.N,N/C*%
X72575000Y-64467000D03*
%TO.P,J3,b27*%
X70035000Y-64467000D03*
%TO.P,J3,b28*%
X67495000Y-64467000D03*
%TO.P,J3,b29*%
X64955000Y-64467000D03*
%TO.P,J3,b30*%
X62415000Y-64467000D03*
%TO.P,J3,b31,VIN*%
%TO.N,Net-(C1-Pad1)*%
X59875000Y-64467000D03*
%TO.P,J3,b32,VIN*%
X57335000Y-64467000D03*
%TD*%
D10*
%TO.P,U3,J1_1,VCC*%
%TO.N,+3V3*%
X73670000Y-105938000D03*
D11*
%TO.P,U3,J1_2*%
%TO.N,N/C*%
X73670000Y-103398000D03*
%TO.P,U3,J1_3*%
X76210000Y-105938000D03*
%TO.P,U3,J1_4*%
X76210000Y-103398000D03*
%TO.P,U3,J1_5*%
X78750000Y-105938000D03*
%TO.P,U3,J1_6*%
X78750000Y-103398000D03*
%TO.P,U3,J1_7*%
X81290000Y-105938000D03*
%TO.P,U3,J1_8*%
X81290000Y-103398000D03*
%TO.P,U3,J1_9*%
X83830000Y-105938000D03*
%TO.P,U3,J1_10,D7*%
%TO.N,Net-(J3-Pada6)*%
X83830000Y-103398000D03*
%TO.P,U3,J1_11,D6*%
%TO.N,Net-(J3-Pada5)*%
X86370000Y-105938000D03*
%TO.P,U3,J1_12,D5*%
%TO.N,Net-(J3-Pada4)*%
X86370000Y-103398000D03*
%TO.P,U3,J1_13,D4*%
%TO.N,Net-(J3-Pada3)*%
X88910000Y-105938000D03*
%TO.P,U3,J1_14,D3*%
%TO.N,Net-(J3-Pada2)*%
X88910000Y-103398000D03*
%TO.P,U3,J1_15,D2*%
%TO.N,Net-(J3-Padb2)*%
X91450000Y-105938000D03*
%TO.P,U3,J1_16,D1*%
%TO.N,Net-(J3-Padb3)*%
X91450000Y-103398000D03*
%TO.P,U3,J1_17,D0*%
%TO.N,Net-(J3-Padb4)*%
X93990000Y-105938000D03*
%TO.P,U3,J1_18,GND*%
%TO.N,GND*%
X93990000Y-103398000D03*
%TO.P,U3,J1_19,A9*%
%TO.N,Net-(J3-Pada18)*%
X96530000Y-105938000D03*
%TO.P,U3,J1_20,A8*%
%TO.N,Net-(J3-Pada19)*%
X96530000Y-103398000D03*
%TO.P,U3,J1_21,A7*%
%TO.N,Net-(J3-Pada20)*%
X99070000Y-105938000D03*
%TO.P,U3,J1_22,A6*%
%TO.N,Net-(J3-Pada21)*%
X99070000Y-103398000D03*
%TO.P,U3,J1_23,A5*%
%TO.N,Net-(J3-Pada22)*%
X101610000Y-105938000D03*
%TO.P,U3,J1_24,A4*%
%TO.N,Net-(J3-Pada23)*%
X101610000Y-103398000D03*
%TO.P,U3,J1_25,A3*%
%TO.N,Net-(J3-Pada24)*%
X104150000Y-105938000D03*
%TO.P,U3,J1_26,A2*%
%TO.N,Net-(J3-Padb25)*%
X104150000Y-103398000D03*
%TO.P,U3,J1_27,A1*%
%TO.N,Net-(J3-Padb24)*%
X106690000Y-105938000D03*
%TO.P,U3,J1_28,A0*%
%TO.N,Net-(J3-Padb22)*%
X106690000Y-103398000D03*
D10*
%TO.P,U3,J2_1,VCC*%
%TO.N,+3V3*%
X73670000Y-77998000D03*
D11*
%TO.P,U3,J2_2,BIT16EN*%
%TO.N,GND*%
X73670000Y-75458000D03*
%TO.P,U3,J2_3,/LINKLED*%
%TO.N,unconnected-(U3-PadJ2_3)*%
X76210000Y-77998000D03*
%TO.P,U3,J2_4,/TXLED*%
%TO.N,/TX*%
X76210000Y-75458000D03*
%TO.P,U3,J2_5,/RXLED*%
%TO.N,/RX*%
X78750000Y-77998000D03*
%TO.P,U3,J2_6,/COLLED*%
%TO.N,unconnected-(U3-PadJ2_6)*%
X78750000Y-75458000D03*
%TO.P,U3,J2_7,/FDXLED*%
%TO.N,unconnected-(U3-PadJ2_7)*%
X81290000Y-77998000D03*
%TO.P,U3,J2_8,/SPDLED*%
%TO.N,unconnected-(U3-PadJ2_8)*%
X81290000Y-75458000D03*
%TO.P,U3,J2_9,/ACTLED*%
%TO.N,unconnected-(U3-PadJ2_9)*%
X83830000Y-77998000D03*
%TO.P,U3,J2_10,GND*%
%TO.N,GND*%
X83830000Y-75458000D03*
%TO.P,U3,J2_11,BRDY3*%
%TO.N,unconnected-(U3-PadJ2_11)*%
X86370000Y-77998000D03*
%TO.P,U3,J2_12,BRDY2*%
%TO.N,unconnected-(U3-PadJ2_12)*%
X86370000Y-75458000D03*
%TO.P,U3,J2_13,BRDY1*%
%TO.N,unconnected-(U3-PadJ2_13)*%
X88910000Y-77998000D03*
%TO.P,U3,J2_14,BRDY0*%
%TO.N,unconnected-(U3-PadJ2_14)*%
X88910000Y-75458000D03*
%TO.P,U3,J2_15,GND*%
%TO.N,GND*%
X91450000Y-77998000D03*
%TO.P,U3,J2_16,GND*%
X91450000Y-75458000D03*
%TO.P,U3,J2_17,/RESET*%
%TO.N,/{slash}RESET*%
X93990000Y-77998000D03*
%TO.P,U3,J2_18,/INT*%
%TO.N,unconnected-(U3-PadJ2_18)*%
X93990000Y-75458000D03*
%TO.P,U3,J2_19,/CS*%
%TO.N,/{slash}CS*%
X96530000Y-77998000D03*
%TO.P,U3,J2_20,/RD*%
%TO.N,/{slash}RD*%
X96530000Y-75458000D03*
%TO.P,U3,J2_21,/WR*%
%TO.N,/{slash}WR*%
X99070000Y-77998000D03*
%TO.P,U3,J2_22*%
%TO.N,N/C*%
X99070000Y-75458000D03*
%TO.P,U3,J2_23,GND*%
%TO.N,GND*%
X101610000Y-77998000D03*
%TO.P,U3,J2_24,GND*%
X101610000Y-75458000D03*
%TO.P,U3,J2_25*%
%TO.N,N/C*%
X104150000Y-77998000D03*
%TO.P,U3,J2_26*%
X104150000Y-75458000D03*
%TO.P,U3,J2_27*%
X106690000Y-77998000D03*
%TO.P,U3,J2_28*%
X106690000Y-75458000D03*
%TD*%
D14*
%TO.N,/RX*%
X78740000Y-98044000D03*
X80010000Y-104648000D03*
%TO.N,/TX*%
X76200000Y-80010000D03*
X76200000Y-98552000D03*
X77470000Y-104648000D03*
%TO.N,GND*%
X115316000Y-96266000D03*
%TO.N,+3V3*%
X114764000Y-83864000D03*
X119634000Y-84836000D03*
X101346000Y-82042000D03*
X67838000Y-77998000D03*
X109474000Y-82042000D03*
%TO.N,GND*%
X114328000Y-90960000D03*
X110744000Y-79248000D03*
X120400000Y-86364000D03*
X65989200Y-73355200D03*
X65515600Y-78502400D03*
X104648000Y-83820000D03*
X117602000Y-74676000D03*
X105664000Y-85598000D03*
X53100000Y-70372000D03*
X116840000Y-83312000D03*
X119634000Y-82804000D03*
X124460000Y-91948000D03*
X111716000Y-89364000D03*
%TO.N,Net-(J3-Pada4)*%
X128524000Y-59944000D03*
%TO.N,Net-(J3-Padb2)*%
X131318000Y-67564000D03*
%TO.N,Net-(J3-Pada18)*%
X71374000Y-72390000D03*
%TO.N,Net-(J3-Pada19)*%
X72898000Y-71628000D03*
%TO.N,Net-(J3-Pada20)*%
X76200000Y-70866000D03*
%TO.N,Net-(J3-Pada21)*%
X78740000Y-69850000D03*
%TO.N,Net-(J3-Pada22)*%
X80010000Y-69088000D03*
%TO.N,Net-(J3-Pada23)*%
X78994000Y-68326000D03*
%TO.N,/DSMCL_O*%
X69850000Y-73152000D03*
X95250000Y-73152000D03*
%TD*%
D15*
%TO.N,/RX*%
X80010000Y-99314000D02*
X78740000Y-98044000D01*
X80010000Y-104648000D02*
X80010000Y-99314000D01*
%TO.N,/TX*%
X76200000Y-80010000D02*
X77470000Y-78740000D01*
X77470000Y-76718000D02*
X76210000Y-75458000D01*
X77470000Y-78740000D02*
X77470000Y-76718000D01*
X77470000Y-104648000D02*
X77470000Y-99822000D01*
X77470000Y-99822000D02*
X76200000Y-98552000D01*
D16*
%TO.N,+3V3*%
X114764000Y-83864000D02*
X115736000Y-84836000D01*
X73670000Y-77998000D02*
X67838000Y-77998000D01*
X73670000Y-79258000D02*
X76454000Y-82042000D01*
X115736000Y-84836000D02*
X119634000Y-84836000D01*
X112942000Y-82042000D02*
X114764000Y-83864000D01*
X76454000Y-82042000D02*
X101346000Y-82042000D01*
X107696000Y-82042000D02*
X112942000Y-82042000D01*
X73670000Y-77998000D02*
X73670000Y-79258000D01*
X101346000Y-82042000D02*
X107696000Y-82042000D01*
D15*
%TO.N,Net-(J3-Pada4)*%
X128455000Y-60013000D02*
X128524000Y-59944000D01*
X128455000Y-61927000D02*
X128455000Y-60013000D01*
%TO.N,Net-(J3-Padb2)*%
X133535000Y-64467000D02*
X133535000Y-65347000D01*
X133535000Y-65347000D02*
X131318000Y-67564000D01*
%TO.N,Net-(J3-Pada18)*%
X85598000Y-72390000D02*
X71374000Y-72390000D01*
X91694000Y-63128000D02*
X91694000Y-66294000D01*
X91694000Y-66294000D02*
X85598000Y-72390000D01*
X92895000Y-61927000D02*
X91694000Y-63128000D01*
%TO.N,Net-(J3-Pada19)*%
X89154000Y-66294000D02*
X83820000Y-71628000D01*
X83820000Y-71628000D02*
X72898000Y-71628000D01*
X90355000Y-61927000D02*
X89154000Y-63128000D01*
X89154000Y-63128000D02*
X89154000Y-66294000D01*
%TO.N,Net-(J3-Pada20)*%
X86614000Y-63128000D02*
X86614000Y-65278000D01*
X86614000Y-65278000D02*
X81026000Y-70866000D01*
X87815000Y-61927000D02*
X86614000Y-63128000D01*
X81026000Y-70866000D02*
X76200000Y-70866000D01*
%TO.N,Net-(J3-Pada21)*%
X84074000Y-63128000D02*
X84074000Y-66294000D01*
X85275000Y-61927000D02*
X84074000Y-63128000D01*
X84074000Y-66294000D02*
X80518000Y-69850000D01*
X80518000Y-69850000D02*
X78740000Y-69850000D01*
%TO.N,Net-(J3-Pada22)*%
X81534000Y-63128000D02*
X81534000Y-67310000D01*
X82735000Y-61927000D02*
X81534000Y-63128000D01*
X81534000Y-67310000D02*
X81534000Y-67564000D01*
X81534000Y-67564000D02*
X80010000Y-69088000D01*
%TO.N,Net-(J3-Pada23)*%
X80195000Y-61927000D02*
X78994000Y-63128000D01*
X78994000Y-63128000D02*
X78994000Y-68326000D01*
%TO.N,/DSMCL_O*%
X95250000Y-73152000D02*
X69850000Y-73152000D01*
%TD*%
%TA.AperFunction,Conductor*%
%TO.N,GND*%
G36*
X51514590Y-57338991D02*
G01*
X51582656Y-57359177D01*
X51629005Y-57412957D01*
X51638920Y-57483258D01*
X51609253Y-57547759D01*
X51557861Y-57583203D01*
X51491920Y-57607530D01*
X51457305Y-57620300D01*
X51453387Y-57622414D01*
X51347900Y-57679332D01*
X51216332Y-57750322D01*
X50996085Y-57912999D01*
X50800955Y-58105087D01*
X50798256Y-58108624D01*
X50798253Y-58108627D01*
X50768074Y-58148172D01*
X50634838Y-58322753D01*
X50501048Y-58561653D01*
X50402254Y-58817021D01*
X50401251Y-58821346D01*
X50401250Y-58821351D01*
X50387685Y-58879873D01*
X50340426Y-59083761D01*
X50316800Y-59356552D01*
X50331846Y-59629951D01*
X50385264Y-59898502D01*
X50475989Y-60156847D01*
X50478042Y-60160798D01*
X50478044Y-60160804D01*
X50558431Y-60315556D01*
X50602209Y-60399832D01*
X50604792Y-60403447D01*
X50604796Y-60403453D01*
X50641481Y-60454788D01*
X50761407Y-60622608D01*
X50796691Y-60659595D01*
X50933201Y-60802694D01*
X50950406Y-60820730D01*
X51165436Y-60990245D01*
X51169278Y-60992477D01*
X51169283Y-60992480D01*
X51398351Y-61125534D01*
X51398357Y-61125537D01*
X51402205Y-61127772D01*
X51470023Y-61155241D01*
X51651857Y-61228892D01*
X51651865Y-61228895D01*
X51655989Y-61230565D01*
X51788858Y-61263570D01*
X51917401Y-61295500D01*
X51917405Y-61295501D01*
X51921726Y-61296574D01*
X52155247Y-61320500D01*
X52324754Y-61320500D01*
X52528128Y-61306100D01*
X52532483Y-61305162D01*
X52532486Y-61305162D01*
X52791460Y-61249407D01*
X52791462Y-61249407D01*
X52795807Y-61248471D01*
X53052695Y-61153700D01*
X53154385Y-61098831D01*
X53289752Y-61025791D01*
X53293668Y-61023678D01*
X53423678Y-60927651D01*
X53510329Y-60863650D01*
X53510332Y-60863647D01*
X53513915Y-60861001D01*
X53709045Y-60668913D01*
X53711747Y-60665373D01*
X53872460Y-60454788D01*
X53872462Y-60454784D01*
X53875162Y-60451247D01*
X54008952Y-60212347D01*
X54107746Y-59956979D01*
X54110755Y-59944000D01*
X54168568Y-59694577D01*
X54169574Y-59690239D01*
X54193200Y-59417448D01*
X54178854Y-59156763D01*
X54178399Y-59148492D01*
X54178398Y-59148485D01*
X54178154Y-59144049D01*
X54124736Y-58875498D01*
X54034011Y-58617153D01*
X54007336Y-58565800D01*
X53909843Y-58378118D01*
X53909842Y-58378116D01*
X53907791Y-58374168D01*
X53905208Y-58370553D01*
X53905204Y-58370547D01*
X53751181Y-58155014D01*
X53748593Y-58151392D01*
X53559594Y-57953270D01*
X53344564Y-57783755D01*
X53340722Y-57781523D01*
X53340717Y-57781520D01*
X53111649Y-57648466D01*
X53111643Y-57648463D01*
X53107795Y-57646228D01*
X52958566Y-57585784D01*
X52902937Y-57541671D01*
X52879988Y-57474486D01*
X52897006Y-57405559D01*
X52948586Y-57356774D01*
X53006206Y-57343000D01*
X86756042Y-57433726D01*
X139968972Y-57576772D01*
X140037038Y-57596958D01*
X140083387Y-57650738D01*
X140093302Y-57721039D01*
X140063635Y-57785540D01*
X140043495Y-57804120D01*
X139896085Y-57912999D01*
X139700955Y-58105087D01*
X139698256Y-58108624D01*
X139698253Y-58108627D01*
X139668074Y-58148172D01*
X139534838Y-58322753D01*
X139401048Y-58561653D01*
X139302254Y-58817021D01*
X139301251Y-58821346D01*
X139301250Y-58821351D01*
X139287685Y-58879873D01*
X139240426Y-59083761D01*
X139216800Y-59356552D01*
X139231846Y-59629951D01*
X139285264Y-59898502D01*
X139375989Y-60156847D01*
X139378042Y-60160798D01*
X139378044Y-60160804D01*
X139458431Y-60315556D01*
X139502209Y-60399832D01*
X139504792Y-60403447D01*
X139504796Y-60403453D01*
X139541481Y-60454788D01*
X139661407Y-60622608D01*
X139696691Y-60659595D01*
X139833201Y-60802694D01*
X139850406Y-60820730D01*
X140065436Y-60990245D01*
X140069278Y-60992477D01*
X140069283Y-60992480D01*
X140298351Y-61125534D01*
X140298357Y-61125537D01*
X140302205Y-61127772D01*
X140370023Y-61155241D01*
X140551857Y-61228892D01*
X140551865Y-61228895D01*
X140555989Y-61230565D01*
X140688858Y-61263570D01*
X140817401Y-61295500D01*
X140817405Y-61295501D01*
X140821726Y-61296574D01*
X141055247Y-61320500D01*
X141224754Y-61320500D01*
X141428128Y-61306100D01*
X141432483Y-61305162D01*
X141432486Y-61305162D01*
X141691460Y-61249407D01*
X141691462Y-61249407D01*
X141695807Y-61248471D01*
X141952695Y-61153700D01*
X142054385Y-61098831D01*
X142189752Y-61025791D01*
X142193668Y-61023678D01*
X142323678Y-60927651D01*
X142410329Y-60863650D01*
X142410332Y-60863647D01*
X142413915Y-60861001D01*
X142609045Y-60668913D01*
X142611747Y-60665373D01*
X142772460Y-60454788D01*
X142772462Y-60454784D01*
X142775162Y-60451247D01*
X142908952Y-60212347D01*
X143007746Y-59956979D01*
X143010755Y-59944000D01*
X143068568Y-59694577D01*
X143069574Y-59690239D01*
X143093200Y-59417448D01*
X143078854Y-59156763D01*
X143078399Y-59148492D01*
X143078398Y-59148485D01*
X143078154Y-59144049D01*
X143024736Y-58875498D01*
X142934011Y-58617153D01*
X142907336Y-58565800D01*
X142809843Y-58378118D01*
X142809842Y-58378116D01*
X142807791Y-58374168D01*
X142805208Y-58370553D01*
X142805204Y-58370547D01*
X142651181Y-58155014D01*
X142648593Y-58151392D01*
X142459594Y-57953270D01*
X142456095Y-57950512D01*
X142456091Y-57950508D01*
X142275488Y-57808133D01*
X142234374Y-57750252D01*
X142231080Y-57679332D01*
X142266651Y-57617889D01*
X142329794Y-57585432D01*
X142353832Y-57583183D01*
X143658322Y-57586689D01*
X143902067Y-57587344D01*
X143970133Y-57607530D01*
X144016482Y-57661310D01*
X144027728Y-57713364D01*
X144023727Y-81394469D01*
X144018021Y-115164621D01*
X143998007Y-115232739D01*
X143944344Y-115279222D01*
X143892021Y-115290600D01*
X49656021Y-115290600D01*
X49587900Y-115270598D01*
X49541407Y-115216942D01*
X49530021Y-115164579D01*
X49531348Y-107279564D01*
X49532006Y-103364695D01*
X72307251Y-103364695D01*
X72307548Y-103369848D01*
X72307548Y-103369851D01*
X72313011Y-103464590D01*
X72320110Y-103587715D01*
X72321247Y-103592761D01*
X72321248Y-103592767D01*
X72341119Y-103680939D01*
X72369222Y-103805639D01*
X72453266Y-104012616D01*
X72491763Y-104075438D01*
X72567291Y-104198688D01*
X72569987Y-104203088D01*
X72716250Y-104371938D01*
X72720230Y-104375242D01*
X72724981Y-104379187D01*
X72764616Y-104438090D01*
X72766113Y-104509071D01*
X72728997Y-104569593D01*
X72688725Y-104594112D01*
X72621907Y-104619161D01*
X72573295Y-104637385D01*
X72456739Y-104724739D01*
X72369385Y-104841295D01*
X72318255Y-104977684D01*
X72311500Y-105039866D01*
X72311500Y-106836134D01*
X72318255Y-106898316D01*
X72369385Y-107034705D01*
X72456739Y-107151261D01*
X72573295Y-107238615D01*
X72709684Y-107289745D01*
X72771866Y-107296500D01*
X74568134Y-107296500D01*
X74630316Y-107289745D01*
X74766705Y-107238615D01*
X74883261Y-107151261D01*
X74970615Y-107034705D01*
X75000297Y-106955529D01*
X75014598Y-106917382D01*
X75057240Y-106860618D01*
X75123802Y-106835918D01*
X75193150Y-106851126D01*
X75227817Y-106879114D01*
X75256250Y-106911938D01*
X75428126Y-107054632D01*
X75621000Y-107167338D01*
X75829692Y-107247030D01*
X75834760Y-107248061D01*
X75834763Y-107248062D01*
X75942017Y-107269883D01*
X76048597Y-107291567D01*
X76053772Y-107291757D01*
X76053774Y-107291757D01*
X76266673Y-107299564D01*
X76266677Y-107299564D01*
X76271837Y-107299753D01*
X76276957Y-107299097D01*
X76276959Y-107299097D01*
X76488288Y-107272025D01*
X76488289Y-107272025D01*
X76493416Y-107271368D01*
X76498366Y-107269883D01*
X76702429Y-107208661D01*
X76702434Y-107208659D01*
X76707384Y-107207174D01*
X76907994Y-107108896D01*
X77089860Y-106979173D01*
X77248096Y-106821489D01*
X77262468Y-106801489D01*
X77378453Y-106640077D01*
X77379776Y-106641028D01*
X77426645Y-106597857D01*
X77496580Y-106585625D01*
X77562026Y-106613144D01*
X77589875Y-106644994D01*
X77649987Y-106743088D01*
X77796250Y-106911938D01*
X77968126Y-107054632D01*
X78161000Y-107167338D01*
X78369692Y-107247030D01*
X78374760Y-107248061D01*
X78374763Y-107248062D01*
X78482017Y-107269883D01*
X78588597Y-107291567D01*
X78593772Y-107291757D01*
X78593774Y-107291757D01*
X78806673Y-107299564D01*
X78806677Y-107299564D01*
X78811837Y-107299753D01*
X78816957Y-107299097D01*
X78816959Y-107299097D01*
X79028288Y-107272025D01*
X79028289Y-107272025D01*
X79033416Y-107271368D01*
X79038366Y-107269883D01*
X79242429Y-107208661D01*
X79242434Y-107208659D01*
X79247384Y-107207174D01*
X79447994Y-107108896D01*
X79629860Y-106979173D01*
X79788096Y-106821489D01*
X79802468Y-106801489D01*
X79918453Y-106640077D01*
X79919776Y-106641028D01*
X79966645Y-106597857D01*
X80036580Y-106585625D01*
X80102026Y-106613144D01*
X80129875Y-106644994D01*
X80189987Y-106743088D01*
X80336250Y-106911938D01*
X80508126Y-107054632D01*
X80701000Y-107167338D01*
X80909692Y-107247030D01*
X80914760Y-107248061D01*
X80914763Y-107248062D01*
X81022017Y-107269883D01*
X81128597Y-107291567D01*
X81133772Y-107291757D01*
X81133774Y-107291757D01*
X81346673Y-107299564D01*
X81346677Y-107299564D01*
X81351837Y-107299753D01*
X81356957Y-107299097D01*
X81356959Y-107299097D01*
X81568288Y-107272025D01*
X81568289Y-107272025D01*
X81573416Y-107271368D01*
X81578366Y-107269883D01*
X81782429Y-107208661D01*
X81782434Y-107208659D01*
X81787384Y-107207174D01*
X81987994Y-107108896D01*
X82169860Y-106979173D01*
X82328096Y-106821489D01*
X82342468Y-106801489D01*
X82458453Y-106640077D01*
X82459776Y-106641028D01*
X82506645Y-106597857D01*
X82576580Y-106585625D01*
X82642026Y-106613144D01*
X82669875Y-106644994D01*
X82729987Y-106743088D01*
X82876250Y-106911938D01*
X83048126Y-107054632D01*
X83241000Y-107167338D01*
X83449692Y-107247030D01*
X83454760Y-107248061D01*
X83454763Y-107248062D01*
X83562017Y-107269883D01*
X83668597Y-107291567D01*
X83673772Y-107291757D01*
X83673774Y-107291757D01*
X83886673Y-107299564D01*
X83886677Y-107299564D01*
X83891837Y-107299753D01*
X83896957Y-107299097D01*
X83896959Y-107299097D01*
X84108288Y-107272025D01*
X84108289Y-107272025D01*
X84113416Y-107271368D01*
X84118366Y-107269883D01*
X84322429Y-107208661D01*
X84322434Y-107208659D01*
X84327384Y-107207174D01*
X84527994Y-107108896D01*
X84709860Y-106979173D01*
X84868096Y-106821489D01*
X84882468Y-106801489D01*
X84998453Y-106640077D01*
X84999776Y-106641028D01*
X85046645Y-106597857D01*
X85116580Y-106585625D01*
X85182026Y-106613144D01*
X85209875Y-106644994D01*
X85269987Y-106743088D01*
X85416250Y-106911938D01*
X85588126Y-107054632D01*
X85781000Y-107167338D01*
X85989692Y-107247030D01*
X85994760Y-107248061D01*
X85994763Y-107248062D01*
X86102017Y-107269883D01*
X86208597Y-107291567D01*
X86213772Y-107291757D01*
X86213774Y-107291757D01*
X86426673Y-107299564D01*
X86426677Y-107299564D01*
X86431837Y-107299753D01*
X86436957Y-107299097D01*
X86436959Y-107299097D01*
X86648288Y-107272025D01*
X86648289Y-107272025D01*
X86653416Y-107271368D01*
X86658366Y-107269883D01*
X86862429Y-107208661D01*
X86862434Y-107208659D01*
X86867384Y-107207174D01*
X87067994Y-107108896D01*
X87249860Y-106979173D01*
X87408096Y-106821489D01*
X87422468Y-106801489D01*
X87538453Y-106640077D01*
X87539776Y-106641028D01*
X87586645Y-106597857D01*
X87656580Y-106585625D01*
X87722026Y-106613144D01*
X87749875Y-106644994D01*
X87809987Y-106743088D01*
X87956250Y-106911938D01*
X88128126Y-107054632D01*
X88321000Y-107167338D01*
X88529692Y-107247030D01*
X88534760Y-107248061D01*
X88534763Y-107248062D01*
X88642017Y-107269883D01*
X88748597Y-107291567D01*
X88753772Y-107291757D01*
X88753774Y-107291757D01*
X88966673Y-107299564D01*
X88966677Y-107299564D01*
X88971837Y-107299753D01*
X88976957Y-107299097D01*
X88976959Y-107299097D01*
X89188288Y-107272025D01*
X89188289Y-107272025D01*
X89193416Y-107271368D01*
X89198366Y-107269883D01*
X89402429Y-107208661D01*
X89402434Y-107208659D01*
X89407384Y-107207174D01*
X89607994Y-107108896D01*
X89789860Y-106979173D01*
X89948096Y-106821489D01*
X89962468Y-106801489D01*
X90078453Y-106640077D01*
X90079776Y-106641028D01*
X90126645Y-106597857D01*
X90196580Y-106585625D01*
X90262026Y-106613144D01*
X90289875Y-106644994D01*
X90349987Y-106743088D01*
X90496250Y-106911938D01*
X90668126Y-107054632D01*
X90861000Y-107167338D01*
X91069692Y-107247030D01*
X91074760Y-107248061D01*
X91074763Y-107248062D01*
X91182017Y-107269883D01*
X91288597Y-107291567D01*
X91293772Y-107291757D01*
X91293774Y-107291757D01*
X91506673Y-107299564D01*
X91506677Y-107299564D01*
X91511837Y-107299753D01*
X91516957Y-107299097D01*
X91516959Y-107299097D01*
X91728288Y-107272025D01*
X91728289Y-107272025D01*
X91733416Y-107271368D01*
X91738366Y-107269883D01*
X91942429Y-107208661D01*
X91942434Y-107208659D01*
X91947384Y-107207174D01*
X92147994Y-107108896D01*
X92329860Y-106979173D01*
X92488096Y-106821489D01*
X92502468Y-106801489D01*
X92618453Y-106640077D01*
X92619776Y-106641028D01*
X92666645Y-106597857D01*
X92736580Y-106585625D01*
X92802026Y-106613144D01*
X92829875Y-106644994D01*
X92889987Y-106743088D01*
X93036250Y-106911938D01*
X93208126Y-107054632D01*
X93401000Y-107167338D01*
X93609692Y-107247030D01*
X93614760Y-107248061D01*
X93614763Y-107248062D01*
X93722017Y-107269883D01*
X93828597Y-107291567D01*
X93833772Y-107291757D01*
X93833774Y-107291757D01*
X94046673Y-107299564D01*
X94046677Y-107299564D01*
X94051837Y-107299753D01*
X94056957Y-107299097D01*
X94056959Y-107299097D01*
X94268288Y-107272025D01*
X94268289Y-107272025D01*
X94273416Y-107271368D01*
X94278366Y-107269883D01*
X94482429Y-107208661D01*
X94482434Y-107208659D01*
X94487384Y-107207174D01*
X94687994Y-107108896D01*
X94869860Y-106979173D01*
X95028096Y-106821489D01*
X95042468Y-106801489D01*
X95158453Y-106640077D01*
X95159776Y-106641028D01*
X95206645Y-106597857D01*
X95276580Y-106585625D01*
X95342026Y-106613144D01*
X95369875Y-106644994D01*
X95429987Y-106743088D01*
X95576250Y-106911938D01*
X95748126Y-107054632D01*
X95941000Y-107167338D01*
X96149692Y-107247030D01*
X96154760Y-107248061D01*
X96154763Y-107248062D01*
X96262017Y-107269883D01*
X96368597Y-107291567D01*
X96373772Y-107291757D01*
X96373774Y-107291757D01*
X96586673Y-107299564D01*
X96586677Y-107299564D01*
X96591837Y-107299753D01*
X96596957Y-107299097D01*
X96596959Y-107299097D01*
X96808288Y-107272025D01*
X96808289Y-107272025D01*
X96813416Y-107271368D01*
X96818366Y-107269883D01*
X97022429Y-107208661D01*
X97022434Y-107208659D01*
X97027384Y-107207174D01*
X97227994Y-107108896D01*
X97409860Y-106979173D01*
X97568096Y-106821489D01*
X97582468Y-106801489D01*
X97698453Y-106640077D01*
X97699776Y-106641028D01*
X97746645Y-106597857D01*
X97816580Y-106585625D01*
X97882026Y-106613144D01*
X97909875Y-106644994D01*
X97969987Y-106743088D01*
X98116250Y-106911938D01*
X98288126Y-107054632D01*
X98481000Y-107167338D01*
X98689692Y-107247030D01*
X98694760Y-107248061D01*
X98694763Y-107248062D01*
X98802017Y-107269883D01*
X98908597Y-107291567D01*
X98913772Y-107291757D01*
X98913774Y-107291757D01*
X99126673Y-107299564D01*
X99126677Y-107299564D01*
X99131837Y-107299753D01*
X99136957Y-107299097D01*
X99136959Y-107299097D01*
X99348288Y-107272025D01*
X99348289Y-107272025D01*
X99353416Y-107271368D01*
X99358366Y-107269883D01*
X99562429Y-107208661D01*
X99562434Y-107208659D01*
X99567384Y-107207174D01*
X99767994Y-107108896D01*
X99949860Y-106979173D01*
X100108096Y-106821489D01*
X100122468Y-106801489D01*
X100238453Y-106640077D01*
X100239776Y-106641028D01*
X100286645Y-106597857D01*
X100356580Y-106585625D01*
X100422026Y-106613144D01*
X100449875Y-106644994D01*
X100509987Y-106743088D01*
X100656250Y-106911938D01*
X100828126Y-107054632D01*
X101021000Y-107167338D01*
X101229692Y-107247030D01*
X101234760Y-107248061D01*
X101234763Y-107248062D01*
X101342017Y-107269883D01*
X101448597Y-107291567D01*
X101453772Y-107291757D01*
X101453774Y-107291757D01*
X101666673Y-107299564D01*
X101666677Y-107299564D01*
X101671837Y-107299753D01*
X101676957Y-107299097D01*
X101676959Y-107299097D01*
X101888288Y-107272025D01*
X101888289Y-107272025D01*
X101893416Y-107271368D01*
X101898366Y-107269883D01*
X102102429Y-107208661D01*
X102102434Y-107208659D01*
X102107384Y-107207174D01*
X102307994Y-107108896D01*
X102489860Y-106979173D01*
X102648096Y-106821489D01*
X102662468Y-106801489D01*
X102778453Y-106640077D01*
X102779776Y-106641028D01*
X102826645Y-106597857D01*
X102896580Y-106585625D01*
X102962026Y-106613144D01*
X102989875Y-106644994D01*
X103049987Y-106743088D01*
X103196250Y-106911938D01*
X103368126Y-107054632D01*
X103561000Y-107167338D01*
X103769692Y-107247030D01*
X103774760Y-107248061D01*
X103774763Y-107248062D01*
X103882017Y-107269883D01*
X103988597Y-107291567D01*
X103993772Y-107291757D01*
X103993774Y-107291757D01*
X104206673Y-107299564D01*
X104206677Y-107299564D01*
X104211837Y-107299753D01*
X104216957Y-107299097D01*
X104216959Y-107299097D01*
X104428288Y-107272025D01*
X104428289Y-107272025D01*
X104433416Y-107271368D01*
X104438366Y-107269883D01*
X104642429Y-107208661D01*
X104642434Y-107208659D01*
X104647384Y-107207174D01*
X104847994Y-107108896D01*
X105029860Y-106979173D01*
X105188096Y-106821489D01*
X105202468Y-106801489D01*
X105318453Y-106640077D01*
X105319776Y-106641028D01*
X105366645Y-106597857D01*
X105436580Y-106585625D01*
X105502026Y-106613144D01*
X105529875Y-106644994D01*
X105589987Y-106743088D01*
X105736250Y-106911938D01*
X105908126Y-107054632D01*
X106101000Y-107167338D01*
X106309692Y-107247030D01*
X106314760Y-107248061D01*
X106314763Y-107248062D01*
X106422017Y-107269883D01*
X106528597Y-107291567D01*
X106533772Y-107291757D01*
X106533774Y-107291757D01*
X106746673Y-107299564D01*
X106746677Y-107299564D01*
X106751837Y-107299753D01*
X106756957Y-107299097D01*
X106756959Y-107299097D01*
X106968288Y-107272025D01*
X106968289Y-107272025D01*
X106973416Y-107271368D01*
X106978366Y-107269883D01*
X107182429Y-107208661D01*
X107182434Y-107208659D01*
X107187384Y-107207174D01*
X107387994Y-107108896D01*
X107569860Y-106979173D01*
X107728096Y-106821489D01*
X107742468Y-106801489D01*
X107855435Y-106644277D01*
X107858453Y-106640077D01*
X107870631Y-106615438D01*
X107955136Y-106444453D01*
X107955137Y-106444451D01*
X107957430Y-106439811D01*
X108022370Y-106226069D01*
X108051529Y-106004590D01*
X108053156Y-105938000D01*
X108048774Y-105884695D01*
X109635251Y-105884695D01*
X109635548Y-105889848D01*
X109635548Y-105889851D01*
X109641011Y-105984590D01*
X109648110Y-106107715D01*
X109649247Y-106112761D01*
X109649248Y-106112767D01*
X109669119Y-106200939D01*
X109697222Y-106325639D01*
X109781266Y-106532616D01*
X109897987Y-106723088D01*
X110044250Y-106891938D01*
X110216126Y-107034632D01*
X110409000Y-107147338D01*
X110413825Y-107149180D01*
X110413826Y-107149181D01*
X110461375Y-107167338D01*
X110617692Y-107227030D01*
X110622760Y-107228061D01*
X110622763Y-107228062D01*
X110721067Y-107248062D01*
X110836597Y-107271567D01*
X110841772Y-107271757D01*
X110841774Y-107271757D01*
X111054673Y-107279564D01*
X111054677Y-107279564D01*
X111059837Y-107279753D01*
X111064957Y-107279097D01*
X111064959Y-107279097D01*
X111276288Y-107252025D01*
X111276289Y-107252025D01*
X111281416Y-107251368D01*
X111286366Y-107249883D01*
X111490429Y-107188661D01*
X111490434Y-107188659D01*
X111495384Y-107187174D01*
X111695994Y-107088896D01*
X111877860Y-106959173D01*
X112036096Y-106801489D01*
X112095594Y-106718689D01*
X112163435Y-106624277D01*
X112166453Y-106620077D01*
X112169880Y-106613144D01*
X112263136Y-106424453D01*
X112263137Y-106424451D01*
X112265430Y-106419811D01*
X112330370Y-106206069D01*
X112359529Y-105984590D01*
X112360585Y-105941365D01*
X112361074Y-105921365D01*
X112361074Y-105921361D01*
X112361156Y-105918000D01*
X112342852Y-105695361D01*
X112288431Y-105478702D01*
X112199354Y-105273840D01*
X112159906Y-105212862D01*
X112080822Y-105090617D01*
X112080820Y-105090614D01*
X112078014Y-105086277D01*
X111927670Y-104921051D01*
X111923619Y-104917852D01*
X111923615Y-104917848D01*
X111756414Y-104785800D01*
X111756410Y-104785798D01*
X111752359Y-104782598D01*
X111711053Y-104759796D01*
X111661084Y-104709364D01*
X111646312Y-104639921D01*
X111671428Y-104573516D01*
X111698780Y-104546909D01*
X111751827Y-104509071D01*
X111877860Y-104419173D01*
X112036096Y-104261489D01*
X112095594Y-104178689D01*
X112163435Y-104084277D01*
X112166453Y-104080077D01*
X112169880Y-104073144D01*
X112263136Y-103884453D01*
X112263137Y-103884451D01*
X112265430Y-103879811D01*
X112330370Y-103666069D01*
X112359529Y-103444590D01*
X112360585Y-103401365D01*
X112361074Y-103381365D01*
X112361074Y-103381361D01*
X112361156Y-103378000D01*
X112358418Y-103344695D01*
X117255251Y-103344695D01*
X117255548Y-103349848D01*
X117255548Y-103349851D01*
X117261011Y-103444590D01*
X117268110Y-103567715D01*
X117269247Y-103572761D01*
X117269248Y-103572767D01*
X117289119Y-103660939D01*
X117317222Y-103785639D01*
X117401266Y-103992616D01*
X117441246Y-104057857D01*
X117515291Y-104178688D01*
X117517987Y-104183088D01*
X117664250Y-104351938D01*
X117836126Y-104494632D01*
X118029000Y-104607338D01*
X118033825Y-104609180D01*
X118033826Y-104609181D01*
X118045299Y-104613562D01*
X118237692Y-104687030D01*
X118242760Y-104688061D01*
X118242763Y-104688062D01*
X118347466Y-104709364D01*
X118456597Y-104731567D01*
X118461772Y-104731757D01*
X118461774Y-104731757D01*
X118674673Y-104739564D01*
X118674677Y-104739564D01*
X118679837Y-104739753D01*
X118684957Y-104739097D01*
X118684959Y-104739097D01*
X118896288Y-104712025D01*
X118896289Y-104712025D01*
X118901416Y-104711368D01*
X118908096Y-104709364D01*
X119110429Y-104648661D01*
X119110434Y-104648659D01*
X119115384Y-104647174D01*
X119315994Y-104548896D01*
X119497860Y-104419173D01*
X119656096Y-104261489D01*
X119715594Y-104178689D01*
X119786453Y-104080077D01*
X119787776Y-104081028D01*
X119834645Y-104037857D01*
X119904580Y-104025625D01*
X119970026Y-104053144D01*
X119997875Y-104084994D01*
X120057987Y-104183088D01*
X120204250Y-104351938D01*
X120376126Y-104494632D01*
X120569000Y-104607338D01*
X120573825Y-104609180D01*
X120573826Y-104609181D01*
X120585299Y-104613562D01*
X120777692Y-104687030D01*
X120782760Y-104688061D01*
X120782763Y-104688062D01*
X120887466Y-104709364D01*
X120996597Y-104731567D01*
X121001772Y-104731757D01*
X121001774Y-104731757D01*
X121214673Y-104739564D01*
X121214677Y-104739564D01*
X121219837Y-104739753D01*
X121224957Y-104739097D01*
X121224959Y-104739097D01*
X121436288Y-104712025D01*
X121436289Y-104712025D01*
X121441416Y-104711368D01*
X121448096Y-104709364D01*
X121650429Y-104648661D01*
X121650434Y-104648659D01*
X121655384Y-104647174D01*
X121855994Y-104548896D01*
X122037860Y-104419173D01*
X122196096Y-104261489D01*
X122255594Y-104178689D01*
X122326453Y-104080077D01*
X122327776Y-104081028D01*
X122374645Y-104037857D01*
X122444580Y-104025625D01*
X122510026Y-104053144D01*
X122537875Y-104084994D01*
X122597987Y-104183088D01*
X122744250Y-104351938D01*
X122916126Y-104494632D01*
X123109000Y-104607338D01*
X123113825Y-104609180D01*
X123113826Y-104609181D01*
X123125299Y-104613562D01*
X123317692Y-104687030D01*
X123322760Y-104688061D01*
X123322763Y-104688062D01*
X123427466Y-104709364D01*
X123536597Y-104731567D01*
X123541772Y-104731757D01*
X123541774Y-104731757D01*
X123754673Y-104739564D01*
X123754677Y-104739564D01*
X123759837Y-104739753D01*
X123764957Y-104739097D01*
X123764959Y-104739097D01*
X123976288Y-104712025D01*
X123976289Y-104712025D01*
X123981416Y-104711368D01*
X123988096Y-104709364D01*
X124190429Y-104648661D01*
X124190434Y-104648659D01*
X124195384Y-104647174D01*
X124395994Y-104548896D01*
X124577860Y-104419173D01*
X124736096Y-104261489D01*
X124795594Y-104178689D01*
X124866453Y-104080077D01*
X124867776Y-104081028D01*
X124914645Y-104037857D01*
X124984580Y-104025625D01*
X125050026Y-104053144D01*
X125077875Y-104084994D01*
X125137987Y-104183088D01*
X125284250Y-104351938D01*
X125456126Y-104494632D01*
X125649000Y-104607338D01*
X125653825Y-104609180D01*
X125653826Y-104609181D01*
X125665299Y-104613562D01*
X125857692Y-104687030D01*
X125862760Y-104688061D01*
X125862763Y-104688062D01*
X125967466Y-104709364D01*
X126076597Y-104731567D01*
X126081772Y-104731757D01*
X126081774Y-104731757D01*
X126294673Y-104739564D01*
X126294677Y-104739564D01*
X126299837Y-104739753D01*
X126304957Y-104739097D01*
X126304959Y-104739097D01*
X126516288Y-104712025D01*
X126516289Y-104712025D01*
X126521416Y-104711368D01*
X126528096Y-104709364D01*
X126730429Y-104648661D01*
X126730434Y-104648659D01*
X126735384Y-104647174D01*
X126935994Y-104548896D01*
X127117860Y-104419173D01*
X127261400Y-104276134D01*
X129959500Y-104276134D01*
X129966255Y-104338316D01*
X130017385Y-104474705D01*
X130104739Y-104591261D01*
X130221295Y-104678615D01*
X130357684Y-104729745D01*
X130419866Y-104736500D01*
X132216134Y-104736500D01*
X132278316Y-104729745D01*
X132414705Y-104678615D01*
X132531261Y-104591261D01*
X132618615Y-104474705D01*
X132669745Y-104338316D01*
X132676500Y-104276134D01*
X132676500Y-102479866D01*
X132669745Y-102417684D01*
X132618615Y-102281295D01*
X132531261Y-102164739D01*
X132414705Y-102077385D01*
X132278316Y-102026255D01*
X132216134Y-102019500D01*
X130419866Y-102019500D01*
X130357684Y-102026255D01*
X130221295Y-102077385D01*
X130104739Y-102164739D01*
X130017385Y-102281295D01*
X129966255Y-102417684D01*
X129959500Y-102479866D01*
X129959500Y-104276134D01*
X127261400Y-104276134D01*
X127276096Y-104261489D01*
X127335594Y-104178689D01*
X127403435Y-104084277D01*
X127406453Y-104080077D01*
X127409880Y-104073144D01*
X127503136Y-103884453D01*
X127503137Y-103884451D01*
X127505430Y-103879811D01*
X127570370Y-103666069D01*
X127599529Y-103444590D01*
X127600585Y-103401365D01*
X127601074Y-103381365D01*
X127601074Y-103381361D01*
X127601156Y-103378000D01*
X127582852Y-103155361D01*
X127528431Y-102938702D01*
X127439354Y-102733840D01*
X127399906Y-102672862D01*
X127320822Y-102550617D01*
X127320820Y-102550614D01*
X127318014Y-102546277D01*
X127167670Y-102381051D01*
X127163619Y-102377852D01*
X127163615Y-102377848D01*
X126996414Y-102245800D01*
X126996410Y-102245798D01*
X126992359Y-102242598D01*
X126796789Y-102134638D01*
X126791920Y-102132914D01*
X126791916Y-102132912D01*
X126591087Y-102061795D01*
X126591083Y-102061794D01*
X126586212Y-102060069D01*
X126581119Y-102059162D01*
X126581116Y-102059161D01*
X126371373Y-102021800D01*
X126371367Y-102021799D01*
X126366284Y-102020894D01*
X126292452Y-102019992D01*
X126148081Y-102018228D01*
X126148079Y-102018228D01*
X126142911Y-102018165D01*
X125922091Y-102051955D01*
X125709756Y-102121357D01*
X125671336Y-102141357D01*
X125574022Y-102192016D01*
X125511607Y-102224507D01*
X125507474Y-102227610D01*
X125507471Y-102227612D01*
X125337100Y-102355530D01*
X125332965Y-102358635D01*
X125178629Y-102520138D01*
X125071201Y-102677621D01*
X125016293Y-102722621D01*
X124945768Y-102730792D01*
X124882021Y-102699538D01*
X124861324Y-102675054D01*
X124780822Y-102550617D01*
X124780820Y-102550614D01*
X124778014Y-102546277D01*
X124627670Y-102381051D01*
X124623619Y-102377852D01*
X124623615Y-102377848D01*
X124456414Y-102245800D01*
X124456410Y-102245798D01*
X124452359Y-102242598D01*
X124256789Y-102134638D01*
X124251920Y-102132914D01*
X124251916Y-102132912D01*
X124051087Y-102061795D01*
X124051083Y-102061794D01*
X124046212Y-102060069D01*
X124041119Y-102059162D01*
X124041116Y-102059161D01*
X123831373Y-102021800D01*
X123831367Y-102021799D01*
X123826284Y-102020894D01*
X123752452Y-102019992D01*
X123608081Y-102018228D01*
X123608079Y-102018228D01*
X123602911Y-102018165D01*
X123382091Y-102051955D01*
X123169756Y-102121357D01*
X123131336Y-102141357D01*
X123034022Y-102192016D01*
X122971607Y-102224507D01*
X122967474Y-102227610D01*
X122967471Y-102227612D01*
X122797100Y-102355530D01*
X122792965Y-102358635D01*
X122638629Y-102520138D01*
X122531201Y-102677621D01*
X122476293Y-102722621D01*
X122405768Y-102730792D01*
X122342021Y-102699538D01*
X122321324Y-102675054D01*
X122240822Y-102550617D01*
X122240820Y-102550614D01*
X122238014Y-102546277D01*
X122087670Y-102381051D01*
X122083619Y-102377852D01*
X122083615Y-102377848D01*
X121916414Y-102245800D01*
X121916410Y-102245798D01*
X121912359Y-102242598D01*
X121716789Y-102134638D01*
X121711920Y-102132914D01*
X121711916Y-102132912D01*
X121511087Y-102061795D01*
X121511083Y-102061794D01*
X121506212Y-102060069D01*
X121501119Y-102059162D01*
X121501116Y-102059161D01*
X121291373Y-102021800D01*
X121291367Y-102021799D01*
X121286284Y-102020894D01*
X121212452Y-102019992D01*
X121068081Y-102018228D01*
X121068079Y-102018228D01*
X121062911Y-102018165D01*
X120842091Y-102051955D01*
X120629756Y-102121357D01*
X120591336Y-102141357D01*
X120494022Y-102192016D01*
X120431607Y-102224507D01*
X120427474Y-102227610D01*
X120427471Y-102227612D01*
X120257100Y-102355530D01*
X120252965Y-102358635D01*
X120098629Y-102520138D01*
X119991201Y-102677621D01*
X119936293Y-102722621D01*
X119865768Y-102730792D01*
X119802021Y-102699538D01*
X119781324Y-102675054D01*
X119700822Y-102550617D01*
X119700820Y-102550614D01*
X119698014Y-102546277D01*
X119547670Y-102381051D01*
X119543619Y-102377852D01*
X119543615Y-102377848D01*
X119376414Y-102245800D01*
X119376410Y-102245798D01*
X119372359Y-102242598D01*
X119176789Y-102134638D01*
X119171920Y-102132914D01*
X119171916Y-102132912D01*
X118971087Y-102061795D01*
X118971083Y-102061794D01*
X118966212Y-102060069D01*
X118961119Y-102059162D01*
X118961116Y-102059161D01*
X118751373Y-102021800D01*
X118751367Y-102021799D01*
X118746284Y-102020894D01*
X118672452Y-102019992D01*
X118528081Y-102018228D01*
X118528079Y-102018228D01*
X118522911Y-102018165D01*
X118302091Y-102051955D01*
X118089756Y-102121357D01*
X118051336Y-102141357D01*
X117954022Y-102192016D01*
X117891607Y-102224507D01*
X117887474Y-102227610D01*
X117887471Y-102227612D01*
X117717100Y-102355530D01*
X117712965Y-102358635D01*
X117558629Y-102520138D01*
X117555720Y-102524403D01*
X117555714Y-102524411D01*
X117470556Y-102649249D01*
X117432743Y-102704680D01*
X117338688Y-102907305D01*
X117278989Y-103122570D01*
X117255251Y-103344695D01*
X112358418Y-103344695D01*
X112342852Y-103155361D01*
X112288431Y-102938702D01*
X112199354Y-102733840D01*
X112159906Y-102672862D01*
X112080822Y-102550617D01*
X112080820Y-102550614D01*
X112078014Y-102546277D01*
X111927670Y-102381051D01*
X111923619Y-102377852D01*
X111923615Y-102377848D01*
X111756414Y-102245800D01*
X111756410Y-102245798D01*
X111752359Y-102242598D01*
X111711053Y-102219796D01*
X111661084Y-102169364D01*
X111646312Y-102099921D01*
X111671428Y-102033516D01*
X111698780Y-102006909D01*
X111742603Y-101975650D01*
X111877860Y-101879173D01*
X112036096Y-101721489D01*
X112095594Y-101638689D01*
X112163435Y-101544277D01*
X112166453Y-101540077D01*
X112265430Y-101339811D01*
X112330370Y-101126069D01*
X112359529Y-100904590D01*
X112361156Y-100838000D01*
X112342852Y-100615361D01*
X112288431Y-100398702D01*
X112199354Y-100193840D01*
X112078014Y-100006277D01*
X112074532Y-100002450D01*
X111930798Y-99844488D01*
X111899746Y-99780642D01*
X111908141Y-99710143D01*
X111953317Y-99655375D01*
X111979761Y-99641706D01*
X112086297Y-99601767D01*
X112094705Y-99598615D01*
X112211261Y-99511261D01*
X112298615Y-99394705D01*
X112349745Y-99258316D01*
X112356500Y-99196134D01*
X112356500Y-97399866D01*
X112349745Y-97337684D01*
X112298615Y-97201295D01*
X112211261Y-97084739D01*
X112094705Y-96997385D01*
X111958316Y-96946255D01*
X111896134Y-96939500D01*
X110099866Y-96939500D01*
X110037684Y-96946255D01*
X109901295Y-96997385D01*
X109784739Y-97084739D01*
X109697385Y-97201295D01*
X109646255Y-97337684D01*
X109639500Y-97399866D01*
X109639500Y-99196134D01*
X109646255Y-99258316D01*
X109697385Y-99394705D01*
X109784739Y-99511261D01*
X109901295Y-99598615D01*
X109909704Y-99601767D01*
X109909705Y-99601768D01*
X110018451Y-99642535D01*
X110075216Y-99685176D01*
X110099916Y-99751738D01*
X110084709Y-99821087D01*
X110065316Y-99847568D01*
X109938629Y-99980138D01*
X109812743Y-100164680D01*
X109718688Y-100367305D01*
X109658989Y-100582570D01*
X109635251Y-100804695D01*
X109635548Y-100809848D01*
X109635548Y-100809851D01*
X109641011Y-100904590D01*
X109648110Y-101027715D01*
X109649247Y-101032761D01*
X109649248Y-101032767D01*
X109669119Y-101120939D01*
X109697222Y-101245639D01*
X109781266Y-101452616D01*
X109897987Y-101643088D01*
X110044250Y-101811938D01*
X110216126Y-101954632D01*
X110286595Y-101995811D01*
X110289445Y-101997476D01*
X110338169Y-102049114D01*
X110351240Y-102118897D01*
X110324509Y-102184669D01*
X110284055Y-102218027D01*
X110271607Y-102224507D01*
X110267474Y-102227610D01*
X110267471Y-102227612D01*
X110097100Y-102355530D01*
X110092965Y-102358635D01*
X109938629Y-102520138D01*
X109935720Y-102524403D01*
X109935714Y-102524411D01*
X109850556Y-102649249D01*
X109812743Y-102704680D01*
X109718688Y-102907305D01*
X109658989Y-103122570D01*
X109635251Y-103344695D01*
X109635548Y-103349848D01*
X109635548Y-103349851D01*
X109641011Y-103444590D01*
X109648110Y-103567715D01*
X109649247Y-103572761D01*
X109649248Y-103572767D01*
X109669119Y-103660939D01*
X109697222Y-103785639D01*
X109781266Y-103992616D01*
X109821246Y-104057857D01*
X109895291Y-104178688D01*
X109897987Y-104183088D01*
X110044250Y-104351938D01*
X110216126Y-104494632D01*
X110250352Y-104514632D01*
X110289445Y-104537476D01*
X110338169Y-104589114D01*
X110351240Y-104658897D01*
X110324509Y-104724669D01*
X110284055Y-104758027D01*
X110271607Y-104764507D01*
X110267474Y-104767610D01*
X110267471Y-104767612D01*
X110158136Y-104849703D01*
X110092965Y-104898635D01*
X110067894Y-104924870D01*
X109959313Y-105038494D01*
X109938629Y-105060138D01*
X109935715Y-105064410D01*
X109935714Y-105064411D01*
X109850556Y-105189249D01*
X109812743Y-105244680D01*
X109718688Y-105447305D01*
X109658989Y-105662570D01*
X109635251Y-105884695D01*
X108048774Y-105884695D01*
X108034852Y-105715361D01*
X107980431Y-105498702D01*
X107891354Y-105293840D01*
X107770014Y-105106277D01*
X107619670Y-104941051D01*
X107615619Y-104937852D01*
X107615615Y-104937848D01*
X107448414Y-104805800D01*
X107448410Y-104805798D01*
X107444359Y-104802598D01*
X107403053Y-104779796D01*
X107353084Y-104729364D01*
X107338312Y-104659921D01*
X107363428Y-104593516D01*
X107390780Y-104566909D01*
X107434603Y-104535650D01*
X107569860Y-104439173D01*
X107728096Y-104281489D01*
X107742468Y-104261489D01*
X107855435Y-104104277D01*
X107858453Y-104100077D01*
X107865908Y-104084994D01*
X107955136Y-103904453D01*
X107955137Y-103904451D01*
X107957430Y-103899811D01*
X108022370Y-103686069D01*
X108051529Y-103464590D01*
X108053156Y-103398000D01*
X108034852Y-103175361D01*
X107980431Y-102958702D01*
X107891354Y-102753840D01*
X107770014Y-102566277D01*
X107619670Y-102401051D01*
X107615619Y-102397852D01*
X107615615Y-102397848D01*
X107448414Y-102265800D01*
X107448410Y-102265798D01*
X107444359Y-102262598D01*
X107413930Y-102245800D01*
X107363618Y-102218027D01*
X107248789Y-102154638D01*
X107243920Y-102152914D01*
X107243916Y-102152912D01*
X107043087Y-102081795D01*
X107043083Y-102081794D01*
X107038212Y-102080069D01*
X107033119Y-102079162D01*
X107033116Y-102079161D01*
X106823373Y-102041800D01*
X106823367Y-102041799D01*
X106818284Y-102040894D01*
X106744452Y-102039992D01*
X106600081Y-102038228D01*
X106600079Y-102038228D01*
X106594911Y-102038165D01*
X106374091Y-102071955D01*
X106161756Y-102141357D01*
X106116840Y-102164739D01*
X106002027Y-102224507D01*
X105963607Y-102244507D01*
X105959474Y-102247610D01*
X105959471Y-102247612D01*
X105806624Y-102362373D01*
X105784965Y-102378635D01*
X105719346Y-102447301D01*
X105653313Y-102516401D01*
X105630629Y-102540138D01*
X105523201Y-102697621D01*
X105468293Y-102742621D01*
X105397768Y-102750792D01*
X105334021Y-102719538D01*
X105313324Y-102695054D01*
X105232822Y-102570617D01*
X105232820Y-102570614D01*
X105230014Y-102566277D01*
X105079670Y-102401051D01*
X105075619Y-102397852D01*
X105075615Y-102397848D01*
X104908414Y-102265800D01*
X104908410Y-102265798D01*
X104904359Y-102262598D01*
X104873930Y-102245800D01*
X104823618Y-102218027D01*
X104708789Y-102154638D01*
X104703920Y-102152914D01*
X104703916Y-102152912D01*
X104503087Y-102081795D01*
X104503083Y-102081794D01*
X104498212Y-102080069D01*
X104493119Y-102079162D01*
X104493116Y-102079161D01*
X104283373Y-102041800D01*
X104283367Y-102041799D01*
X104278284Y-102040894D01*
X104204452Y-102039992D01*
X104060081Y-102038228D01*
X104060079Y-102038228D01*
X104054911Y-102038165D01*
X103834091Y-102071955D01*
X103621756Y-102141357D01*
X103576840Y-102164739D01*
X103462027Y-102224507D01*
X103423607Y-102244507D01*
X103419474Y-102247610D01*
X103419471Y-102247612D01*
X103266624Y-102362373D01*
X103244965Y-102378635D01*
X103179346Y-102447301D01*
X103113313Y-102516401D01*
X103090629Y-102540138D01*
X102983201Y-102697621D01*
X102928293Y-102742621D01*
X102857768Y-102750792D01*
X102794021Y-102719538D01*
X102773324Y-102695054D01*
X102692822Y-102570617D01*
X102692820Y-102570614D01*
X102690014Y-102566277D01*
X102539670Y-102401051D01*
X102535619Y-102397852D01*
X102535615Y-102397848D01*
X102368414Y-102265800D01*
X102368410Y-102265798D01*
X102364359Y-102262598D01*
X102333930Y-102245800D01*
X102283618Y-102218027D01*
X102168789Y-102154638D01*
X102163920Y-102152914D01*
X102163916Y-102152912D01*
X101963087Y-102081795D01*
X101963083Y-102081794D01*
X101958212Y-102080069D01*
X101953119Y-102079162D01*
X101953116Y-102079161D01*
X101743373Y-102041800D01*
X101743367Y-102041799D01*
X101738284Y-102040894D01*
X101664452Y-102039992D01*
X101520081Y-102038228D01*
X101520079Y-102038228D01*
X101514911Y-102038165D01*
X101294091Y-102071955D01*
X101081756Y-102141357D01*
X101036840Y-102164739D01*
X100922027Y-102224507D01*
X100883607Y-102244507D01*
X100879474Y-102247610D01*
X100879471Y-102247612D01*
X100726624Y-102362373D01*
X100704965Y-102378635D01*
X100639346Y-102447301D01*
X100573313Y-102516401D01*
X100550629Y-102540138D01*
X100443201Y-102697621D01*
X100388293Y-102742621D01*
X100317768Y-102750792D01*
X100254021Y-102719538D01*
X100233324Y-102695054D01*
X100152822Y-102570617D01*
X100152820Y-102570614D01*
X100150014Y-102566277D01*
X99999670Y-102401051D01*
X99995619Y-102397852D01*
X99995615Y-102397848D01*
X99828414Y-102265800D01*
X99828410Y-102265798D01*
X99824359Y-102262598D01*
X99793930Y-102245800D01*
X99743618Y-102218027D01*
X99628789Y-102154638D01*
X99623920Y-102152914D01*
X99623916Y-102152912D01*
X99423087Y-102081795D01*
X99423083Y-102081794D01*
X99418212Y-102080069D01*
X99413119Y-102079162D01*
X99413116Y-102079161D01*
X99203373Y-102041800D01*
X99203367Y-102041799D01*
X99198284Y-102040894D01*
X99124452Y-102039992D01*
X98980081Y-102038228D01*
X98980079Y-102038228D01*
X98974911Y-102038165D01*
X98754091Y-102071955D01*
X98541756Y-102141357D01*
X98496840Y-102164739D01*
X98382027Y-102224507D01*
X98343607Y-102244507D01*
X98339474Y-102247610D01*
X98339471Y-102247612D01*
X98186624Y-102362373D01*
X98164965Y-102378635D01*
X98099346Y-102447301D01*
X98033313Y-102516401D01*
X98010629Y-102540138D01*
X97903201Y-102697621D01*
X97848293Y-102742621D01*
X97777768Y-102750792D01*
X97714021Y-102719538D01*
X97693324Y-102695054D01*
X97612822Y-102570617D01*
X97612820Y-102570614D01*
X97610014Y-102566277D01*
X97459670Y-102401051D01*
X97455619Y-102397852D01*
X97455615Y-102397848D01*
X97288414Y-102265800D01*
X97288410Y-102265798D01*
X97284359Y-102262598D01*
X97253930Y-102245800D01*
X97203618Y-102218027D01*
X97088789Y-102154638D01*
X97083920Y-102152914D01*
X97083916Y-102152912D01*
X96883087Y-102081795D01*
X96883083Y-102081794D01*
X96878212Y-102080069D01*
X96873119Y-102079162D01*
X96873116Y-102079161D01*
X96663373Y-102041800D01*
X96663367Y-102041799D01*
X96658284Y-102040894D01*
X96584452Y-102039992D01*
X96440081Y-102038228D01*
X96440079Y-102038228D01*
X96434911Y-102038165D01*
X96214091Y-102071955D01*
X96001756Y-102141357D01*
X95956840Y-102164739D01*
X95842027Y-102224507D01*
X95803607Y-102244507D01*
X95799474Y-102247610D01*
X95799471Y-102247612D01*
X95646624Y-102362373D01*
X95624965Y-102378635D01*
X95559346Y-102447301D01*
X95493313Y-102516401D01*
X95470629Y-102540138D01*
X95344743Y-102724680D01*
X95329003Y-102758590D01*
X95259972Y-102907305D01*
X95250688Y-102927305D01*
X95190989Y-103142570D01*
X95167251Y-103364695D01*
X95167548Y-103369848D01*
X95167548Y-103369851D01*
X95173011Y-103464590D01*
X95180110Y-103587715D01*
X95181247Y-103592761D01*
X95181248Y-103592767D01*
X95201119Y-103680939D01*
X95229222Y-103805639D01*
X95313266Y-104012616D01*
X95351763Y-104075438D01*
X95427291Y-104198688D01*
X95429987Y-104203088D01*
X95576250Y-104371938D01*
X95748126Y-104514632D01*
X95787219Y-104537476D01*
X95821445Y-104557476D01*
X95870169Y-104609114D01*
X95883240Y-104678897D01*
X95856509Y-104744669D01*
X95816055Y-104778027D01*
X95803607Y-104784507D01*
X95799474Y-104787610D01*
X95799471Y-104787612D01*
X95646624Y-104902373D01*
X95624965Y-104918635D01*
X95621393Y-104922373D01*
X95493313Y-105056401D01*
X95470629Y-105080138D01*
X95363201Y-105237621D01*
X95308293Y-105282621D01*
X95237768Y-105290792D01*
X95174021Y-105259538D01*
X95153324Y-105235054D01*
X95072822Y-105110617D01*
X95072820Y-105110614D01*
X95070014Y-105106277D01*
X94919670Y-104941051D01*
X94915619Y-104937852D01*
X94915615Y-104937848D01*
X94748414Y-104805800D01*
X94748410Y-104805798D01*
X94744359Y-104802598D01*
X94713930Y-104785800D01*
X94630515Y-104739753D01*
X94548789Y-104694638D01*
X94543920Y-104692914D01*
X94543916Y-104692912D01*
X94343087Y-104621795D01*
X94343083Y-104621794D01*
X94338212Y-104620069D01*
X94333119Y-104619162D01*
X94333116Y-104619161D01*
X94123373Y-104581800D01*
X94123367Y-104581799D01*
X94118284Y-104580894D01*
X94044452Y-104579992D01*
X93900081Y-104578228D01*
X93900079Y-104578228D01*
X93894911Y-104578165D01*
X93674091Y-104611955D01*
X93461756Y-104681357D01*
X93402843Y-104712025D01*
X93302027Y-104764507D01*
X93263607Y-104784507D01*
X93259474Y-104787610D01*
X93259471Y-104787612D01*
X93106624Y-104902373D01*
X93084965Y-104918635D01*
X93081393Y-104922373D01*
X92953313Y-105056401D01*
X92930629Y-105080138D01*
X92823201Y-105237621D01*
X92768293Y-105282621D01*
X92697768Y-105290792D01*
X92634021Y-105259538D01*
X92613324Y-105235054D01*
X92532822Y-105110617D01*
X92532820Y-105110614D01*
X92530014Y-105106277D01*
X92379670Y-104941051D01*
X92375619Y-104937852D01*
X92375615Y-104937848D01*
X92208414Y-104805800D01*
X92208410Y-104805798D01*
X92204359Y-104802598D01*
X92163053Y-104779796D01*
X92113084Y-104729364D01*
X92098312Y-104659921D01*
X92123428Y-104593516D01*
X92150780Y-104566909D01*
X92194603Y-104535650D01*
X92329860Y-104439173D01*
X92488096Y-104281489D01*
X92502468Y-104261489D01*
X92615435Y-104104277D01*
X92618453Y-104100077D01*
X92625908Y-104084994D01*
X92715136Y-103904453D01*
X92715137Y-103904451D01*
X92717430Y-103899811D01*
X92782370Y-103686069D01*
X92811529Y-103464590D01*
X92813156Y-103398000D01*
X92794852Y-103175361D01*
X92740431Y-102958702D01*
X92651354Y-102753840D01*
X92530014Y-102566277D01*
X92379670Y-102401051D01*
X92375619Y-102397852D01*
X92375615Y-102397848D01*
X92208414Y-102265800D01*
X92208410Y-102265798D01*
X92204359Y-102262598D01*
X92173930Y-102245800D01*
X92123618Y-102218027D01*
X92008789Y-102154638D01*
X92003920Y-102152914D01*
X92003916Y-102152912D01*
X91803087Y-102081795D01*
X91803083Y-102081794D01*
X91798212Y-102080069D01*
X91793119Y-102079162D01*
X91793116Y-102079161D01*
X91583373Y-102041800D01*
X91583367Y-102041799D01*
X91578284Y-102040894D01*
X91504452Y-102039992D01*
X91360081Y-102038228D01*
X91360079Y-102038228D01*
X91354911Y-102038165D01*
X91134091Y-102071955D01*
X90921756Y-102141357D01*
X90876840Y-102164739D01*
X90762027Y-102224507D01*
X90723607Y-102244507D01*
X90719474Y-102247610D01*
X90719471Y-102247612D01*
X90566624Y-102362373D01*
X90544965Y-102378635D01*
X90479346Y-102447301D01*
X90413313Y-102516401D01*
X90390629Y-102540138D01*
X90283201Y-102697621D01*
X90228293Y-102742621D01*
X90157768Y-102750792D01*
X90094021Y-102719538D01*
X90073324Y-102695054D01*
X89992822Y-102570617D01*
X89992820Y-102570614D01*
X89990014Y-102566277D01*
X89839670Y-102401051D01*
X89835619Y-102397852D01*
X89835615Y-102397848D01*
X89668414Y-102265800D01*
X89668410Y-102265798D01*
X89664359Y-102262598D01*
X89633930Y-102245800D01*
X89583618Y-102218027D01*
X89468789Y-102154638D01*
X89463920Y-102152914D01*
X89463916Y-102152912D01*
X89263087Y-102081795D01*
X89263083Y-102081794D01*
X89258212Y-102080069D01*
X89253119Y-102079162D01*
X89253116Y-102079161D01*
X89043373Y-102041800D01*
X89043367Y-102041799D01*
X89038284Y-102040894D01*
X88964452Y-102039992D01*
X88820081Y-102038228D01*
X88820079Y-102038228D01*
X88814911Y-102038165D01*
X88594091Y-102071955D01*
X88381756Y-102141357D01*
X88336840Y-102164739D01*
X88222027Y-102224507D01*
X88183607Y-102244507D01*
X88179474Y-102247610D01*
X88179471Y-102247612D01*
X88026624Y-102362373D01*
X88004965Y-102378635D01*
X87939346Y-102447301D01*
X87873313Y-102516401D01*
X87850629Y-102540138D01*
X87743201Y-102697621D01*
X87688293Y-102742621D01*
X87617768Y-102750792D01*
X87554021Y-102719538D01*
X87533324Y-102695054D01*
X87452822Y-102570617D01*
X87452820Y-102570614D01*
X87450014Y-102566277D01*
X87299670Y-102401051D01*
X87295619Y-102397852D01*
X87295615Y-102397848D01*
X87128414Y-102265800D01*
X87128410Y-102265798D01*
X87124359Y-102262598D01*
X87093930Y-102245800D01*
X87043618Y-102218027D01*
X86928789Y-102154638D01*
X86923920Y-102152914D01*
X86923916Y-102152912D01*
X86723087Y-102081795D01*
X86723083Y-102081794D01*
X86718212Y-102080069D01*
X86713119Y-102079162D01*
X86713116Y-102079161D01*
X86503373Y-102041800D01*
X86503367Y-102041799D01*
X86498284Y-102040894D01*
X86424452Y-102039992D01*
X86280081Y-102038228D01*
X86280079Y-102038228D01*
X86274911Y-102038165D01*
X86054091Y-102071955D01*
X85841756Y-102141357D01*
X85796840Y-102164739D01*
X85682027Y-102224507D01*
X85643607Y-102244507D01*
X85639474Y-102247610D01*
X85639471Y-102247612D01*
X85486624Y-102362373D01*
X85464965Y-102378635D01*
X85399346Y-102447301D01*
X85333313Y-102516401D01*
X85310629Y-102540138D01*
X85203201Y-102697621D01*
X85148293Y-102742621D01*
X85077768Y-102750792D01*
X85014021Y-102719538D01*
X84993324Y-102695054D01*
X84912822Y-102570617D01*
X84912820Y-102570614D01*
X84910014Y-102566277D01*
X84759670Y-102401051D01*
X84755619Y-102397852D01*
X84755615Y-102397848D01*
X84588414Y-102265800D01*
X84588410Y-102265798D01*
X84584359Y-102262598D01*
X84553930Y-102245800D01*
X84503618Y-102218027D01*
X84388789Y-102154638D01*
X84383920Y-102152914D01*
X84383916Y-102152912D01*
X84183087Y-102081795D01*
X84183083Y-102081794D01*
X84178212Y-102080069D01*
X84173119Y-102079162D01*
X84173116Y-102079161D01*
X83963373Y-102041800D01*
X83963367Y-102041799D01*
X83958284Y-102040894D01*
X83884452Y-102039992D01*
X83740081Y-102038228D01*
X83740079Y-102038228D01*
X83734911Y-102038165D01*
X83514091Y-102071955D01*
X83301756Y-102141357D01*
X83256840Y-102164739D01*
X83142027Y-102224507D01*
X83103607Y-102244507D01*
X83099474Y-102247610D01*
X83099471Y-102247612D01*
X82946624Y-102362373D01*
X82924965Y-102378635D01*
X82859346Y-102447301D01*
X82793313Y-102516401D01*
X82770629Y-102540138D01*
X82663201Y-102697621D01*
X82608293Y-102742621D01*
X82537768Y-102750792D01*
X82474021Y-102719538D01*
X82453324Y-102695054D01*
X82372822Y-102570617D01*
X82372820Y-102570614D01*
X82370014Y-102566277D01*
X82219670Y-102401051D01*
X82215619Y-102397852D01*
X82215615Y-102397848D01*
X82048414Y-102265800D01*
X82048410Y-102265798D01*
X82044359Y-102262598D01*
X82013930Y-102245800D01*
X81963618Y-102218027D01*
X81848789Y-102154638D01*
X81843920Y-102152914D01*
X81843916Y-102152912D01*
X81643087Y-102081795D01*
X81643083Y-102081794D01*
X81638212Y-102080069D01*
X81633119Y-102079162D01*
X81633116Y-102079161D01*
X81423373Y-102041800D01*
X81423367Y-102041799D01*
X81418284Y-102040894D01*
X81344452Y-102039992D01*
X81200081Y-102038228D01*
X81200079Y-102038228D01*
X81194911Y-102038165D01*
X80974091Y-102071955D01*
X80866339Y-102107174D01*
X80808645Y-102126031D01*
X80737681Y-102128182D01*
X80676819Y-102091626D01*
X80645383Y-102027968D01*
X80643500Y-102006266D01*
X80643500Y-99392767D01*
X80644027Y-99381584D01*
X80645702Y-99374091D01*
X80643562Y-99306014D01*
X80643500Y-99302055D01*
X80643500Y-99274144D01*
X80642995Y-99270144D01*
X80642062Y-99258301D01*
X80640922Y-99222029D01*
X80640673Y-99214110D01*
X80635022Y-99194658D01*
X80631014Y-99175306D01*
X80629467Y-99163063D01*
X80628474Y-99155203D01*
X80625556Y-99147832D01*
X80612200Y-99114097D01*
X80608355Y-99102870D01*
X80604309Y-99088944D01*
X80596018Y-99060407D01*
X80591984Y-99053585D01*
X80591981Y-99053579D01*
X80585706Y-99042968D01*
X80577010Y-99025218D01*
X80572472Y-99013756D01*
X80572469Y-99013751D01*
X80569552Y-99006383D01*
X80556901Y-98988970D01*
X80543573Y-98970625D01*
X80537057Y-98960707D01*
X80518575Y-98929457D01*
X80514542Y-98922637D01*
X80500218Y-98908313D01*
X80487376Y-98893278D01*
X80475472Y-98876893D01*
X80441406Y-98848711D01*
X80432627Y-98840722D01*
X79687122Y-98095217D01*
X79653096Y-98032905D01*
X79650907Y-98019292D01*
X79634232Y-97860635D01*
X79634232Y-97860633D01*
X79633542Y-97854072D01*
X79574527Y-97672444D01*
X79479040Y-97507056D01*
X79385603Y-97403283D01*
X79355675Y-97370045D01*
X79355674Y-97370044D01*
X79351253Y-97365134D01*
X79196752Y-97252882D01*
X79190724Y-97250198D01*
X79190722Y-97250197D01*
X79028319Y-97177891D01*
X79028318Y-97177891D01*
X79022288Y-97175206D01*
X78928888Y-97155353D01*
X78841944Y-97136872D01*
X78841939Y-97136872D01*
X78835487Y-97135500D01*
X78644513Y-97135500D01*
X78638061Y-97136872D01*
X78638056Y-97136872D01*
X78551112Y-97155353D01*
X78457712Y-97175206D01*
X78451682Y-97177891D01*
X78451681Y-97177891D01*
X78289278Y-97250197D01*
X78289276Y-97250198D01*
X78283248Y-97252882D01*
X78128747Y-97365134D01*
X78124326Y-97370044D01*
X78124325Y-97370045D01*
X78094398Y-97403283D01*
X78000960Y-97507056D01*
X77905473Y-97672444D01*
X77846458Y-97854072D01*
X77845768Y-97860633D01*
X77845768Y-97860635D01*
X77843938Y-97878045D01*
X77826496Y-98044000D01*
X77846458Y-98233928D01*
X77905473Y-98415556D01*
X78000960Y-98580944D01*
X78128747Y-98722866D01*
X78283248Y-98835118D01*
X78289276Y-98837802D01*
X78289278Y-98837803D01*
X78447647Y-98908313D01*
X78457712Y-98912794D01*
X78536105Y-98929457D01*
X78638056Y-98951128D01*
X78638061Y-98951128D01*
X78644513Y-98952500D01*
X78700406Y-98952500D01*
X78768527Y-98972502D01*
X78789501Y-98989405D01*
X79339595Y-99539499D01*
X79373621Y-99601811D01*
X79376500Y-99628594D01*
X79376500Y-102000330D01*
X79356498Y-102068451D01*
X79302842Y-102114944D01*
X79232568Y-102125048D01*
X79208443Y-102119104D01*
X79130848Y-102091626D01*
X79103087Y-102081795D01*
X79103083Y-102081794D01*
X79098212Y-102080069D01*
X79093119Y-102079162D01*
X79093116Y-102079161D01*
X78883373Y-102041800D01*
X78883367Y-102041799D01*
X78878284Y-102040894D01*
X78804452Y-102039992D01*
X78660081Y-102038228D01*
X78660079Y-102038228D01*
X78654911Y-102038165D01*
X78434091Y-102071955D01*
X78326339Y-102107174D01*
X78268645Y-102126031D01*
X78197681Y-102128182D01*
X78136819Y-102091626D01*
X78105383Y-102027968D01*
X78103500Y-102006266D01*
X78103500Y-99900767D01*
X78104027Y-99889584D01*
X78105702Y-99882091D01*
X78103562Y-99814014D01*
X78103500Y-99810055D01*
X78103500Y-99782144D01*
X78102995Y-99778144D01*
X78102062Y-99766301D01*
X78100922Y-99730029D01*
X78100673Y-99722110D01*
X78095022Y-99702658D01*
X78091014Y-99683306D01*
X78089467Y-99671063D01*
X78088474Y-99663203D01*
X78083146Y-99649745D01*
X78072200Y-99622097D01*
X78068355Y-99610870D01*
X78065723Y-99601811D01*
X78056018Y-99568407D01*
X78051984Y-99561585D01*
X78051981Y-99561579D01*
X78045706Y-99550968D01*
X78037010Y-99533218D01*
X78032472Y-99521756D01*
X78032469Y-99521751D01*
X78029552Y-99514383D01*
X78016901Y-99496970D01*
X78003573Y-99478625D01*
X77997057Y-99468707D01*
X77978575Y-99437457D01*
X77974542Y-99430637D01*
X77960218Y-99416313D01*
X77947376Y-99401278D01*
X77935472Y-99384893D01*
X77901406Y-99356711D01*
X77892627Y-99348722D01*
X77147122Y-98603217D01*
X77113096Y-98540905D01*
X77110907Y-98527292D01*
X77094232Y-98368635D01*
X77094232Y-98368633D01*
X77093542Y-98362072D01*
X77034527Y-98180444D01*
X76939040Y-98015056D01*
X76811253Y-97873134D01*
X76656752Y-97760882D01*
X76650724Y-97758198D01*
X76650722Y-97758197D01*
X76488319Y-97685891D01*
X76488318Y-97685891D01*
X76482288Y-97683206D01*
X76388888Y-97663353D01*
X76301944Y-97644872D01*
X76301939Y-97644872D01*
X76295487Y-97643500D01*
X76104513Y-97643500D01*
X76098061Y-97644872D01*
X76098056Y-97644872D01*
X76011112Y-97663353D01*
X75917712Y-97683206D01*
X75911682Y-97685891D01*
X75911681Y-97685891D01*
X75749278Y-97758197D01*
X75749276Y-97758198D01*
X75743248Y-97760882D01*
X75588747Y-97873134D01*
X75460960Y-98015056D01*
X75365473Y-98180444D01*
X75306458Y-98362072D01*
X75286496Y-98552000D01*
X75287186Y-98558565D01*
X75304863Y-98726749D01*
X75306458Y-98741928D01*
X75365473Y-98923556D01*
X75460960Y-99088944D01*
X75465378Y-99093851D01*
X75465379Y-99093852D01*
X75556145Y-99194658D01*
X75588747Y-99230866D01*
X75743248Y-99343118D01*
X75749276Y-99345802D01*
X75749278Y-99345803D01*
X75907647Y-99416313D01*
X75917712Y-99420794D01*
X75996105Y-99437457D01*
X76098056Y-99459128D01*
X76098061Y-99459128D01*
X76104513Y-99460500D01*
X76160406Y-99460500D01*
X76228527Y-99480502D01*
X76249501Y-99497405D01*
X76799595Y-100047499D01*
X76833621Y-100109811D01*
X76836500Y-100136594D01*
X76836500Y-102000330D01*
X76816498Y-102068451D01*
X76762842Y-102114944D01*
X76692568Y-102125048D01*
X76668443Y-102119104D01*
X76590848Y-102091626D01*
X76563087Y-102081795D01*
X76563083Y-102081794D01*
X76558212Y-102080069D01*
X76553119Y-102079162D01*
X76553116Y-102079161D01*
X76343373Y-102041800D01*
X76343367Y-102041799D01*
X76338284Y-102040894D01*
X76264452Y-102039992D01*
X76120081Y-102038228D01*
X76120079Y-102038228D01*
X76114911Y-102038165D01*
X75894091Y-102071955D01*
X75681756Y-102141357D01*
X75636840Y-102164739D01*
X75522027Y-102224507D01*
X75483607Y-102244507D01*
X75479474Y-102247610D01*
X75479471Y-102247612D01*
X75326624Y-102362373D01*
X75304965Y-102378635D01*
X75239346Y-102447301D01*
X75173313Y-102516401D01*
X75150629Y-102540138D01*
X75043201Y-102697621D01*
X74988293Y-102742621D01*
X74917768Y-102750792D01*
X74854021Y-102719538D01*
X74833324Y-102695054D01*
X74752822Y-102570617D01*
X74752820Y-102570614D01*
X74750014Y-102566277D01*
X74599670Y-102401051D01*
X74595619Y-102397852D01*
X74595615Y-102397848D01*
X74428414Y-102265800D01*
X74428410Y-102265798D01*
X74424359Y-102262598D01*
X74393930Y-102245800D01*
X74343618Y-102218027D01*
X74228789Y-102154638D01*
X74223920Y-102152914D01*
X74223916Y-102152912D01*
X74023087Y-102081795D01*
X74023083Y-102081794D01*
X74018212Y-102080069D01*
X74013119Y-102079162D01*
X74013116Y-102079161D01*
X73803373Y-102041800D01*
X73803367Y-102041799D01*
X73798284Y-102040894D01*
X73724452Y-102039992D01*
X73580081Y-102038228D01*
X73580079Y-102038228D01*
X73574911Y-102038165D01*
X73354091Y-102071955D01*
X73141756Y-102141357D01*
X73096840Y-102164739D01*
X72982027Y-102224507D01*
X72943607Y-102244507D01*
X72939474Y-102247610D01*
X72939471Y-102247612D01*
X72786624Y-102362373D01*
X72764965Y-102378635D01*
X72699346Y-102447301D01*
X72633313Y-102516401D01*
X72610629Y-102540138D01*
X72484743Y-102724680D01*
X72469003Y-102758590D01*
X72399972Y-102907305D01*
X72390688Y-102927305D01*
X72330989Y-103142570D01*
X72307251Y-103364695D01*
X49532006Y-103364695D01*
X49534544Y-88274134D01*
X127414500Y-88274134D01*
X127421255Y-88336316D01*
X127472385Y-88472705D01*
X127559739Y-88589261D01*
X127676295Y-88676615D01*
X127812684Y-88727745D01*
X127874866Y-88734500D01*
X129671134Y-88734500D01*
X129733316Y-88727745D01*
X129869705Y-88676615D01*
X129986261Y-88589261D01*
X130073615Y-88472705D01*
X130124745Y-88336316D01*
X130131500Y-88274134D01*
X130131500Y-86477866D01*
X130124745Y-86415684D01*
X130073615Y-86279295D01*
X129986261Y-86162739D01*
X129869705Y-86075385D01*
X129733316Y-86024255D01*
X129671134Y-86017500D01*
X127874866Y-86017500D01*
X127812684Y-86024255D01*
X127676295Y-86075385D01*
X127559739Y-86162739D01*
X127472385Y-86279295D01*
X127421255Y-86415684D01*
X127414500Y-86477866D01*
X127414500Y-88274134D01*
X49534544Y-88274134D01*
X49534954Y-85838786D01*
X49536274Y-77990925D01*
X66824645Y-77990925D01*
X66842570Y-78187888D01*
X66898410Y-78377619D01*
X66901263Y-78383077D01*
X66901265Y-78383081D01*
X66948720Y-78473853D01*
X66990040Y-78552890D01*
X67113968Y-78707025D01*
X67265474Y-78834154D01*
X67270872Y-78837121D01*
X67270877Y-78837125D01*
X67358212Y-78885137D01*
X67438787Y-78929433D01*
X67444654Y-78931294D01*
X67444656Y-78931295D01*
X67621436Y-78987373D01*
X67627306Y-78989235D01*
X67781227Y-79006500D01*
X72248991Y-79006500D01*
X72317112Y-79026502D01*
X72363605Y-79080158D01*
X72365903Y-79085694D01*
X72366232Y-79086296D01*
X72369385Y-79094705D01*
X72456739Y-79211261D01*
X72463919Y-79216642D01*
X72566113Y-79293233D01*
X72566116Y-79293235D01*
X72573295Y-79298615D01*
X72589767Y-79304790D01*
X72646532Y-79347431D01*
X72671059Y-79411791D01*
X72673913Y-79444413D01*
X72675400Y-79449532D01*
X72675920Y-79454833D01*
X72702791Y-79543834D01*
X72703126Y-79544967D01*
X72709802Y-79567943D01*
X72729091Y-79634336D01*
X72731544Y-79639068D01*
X72733084Y-79644169D01*
X72735978Y-79649612D01*
X72776731Y-79726260D01*
X72777343Y-79727426D01*
X72820108Y-79809926D01*
X72823431Y-79814089D01*
X72825934Y-79818796D01*
X72884755Y-79890918D01*
X72885446Y-79891774D01*
X72916738Y-79930973D01*
X72919242Y-79933477D01*
X72919884Y-79934195D01*
X72923585Y-79938528D01*
X72950935Y-79972062D01*
X72955682Y-79975989D01*
X72955684Y-79975991D01*
X72986262Y-80001287D01*
X72995042Y-80009277D01*
X75697145Y-82711379D01*
X75706247Y-82721522D01*
X75729968Y-82751025D01*
X75734696Y-82754992D01*
X75768421Y-82783291D01*
X75772070Y-82786473D01*
X75773883Y-82788117D01*
X75776075Y-82790309D01*
X75809276Y-82817580D01*
X75810164Y-82818318D01*
X75845437Y-82847915D01*
X75876753Y-82874193D01*
X75876756Y-82874195D01*
X75881474Y-82878154D01*
X75886147Y-82880723D01*
X75890262Y-82884103D01*
X75895691Y-82887014D01*
X75895694Y-82887016D01*
X75972180Y-82928028D01*
X75973338Y-82928657D01*
X76049388Y-82970465D01*
X76054787Y-82973433D01*
X76059865Y-82975044D01*
X76064563Y-82977563D01*
X76153498Y-83004753D01*
X76154702Y-83005128D01*
X76243306Y-83033235D01*
X76248597Y-83033828D01*
X76253698Y-83035388D01*
X76346311Y-83044795D01*
X76347431Y-83044915D01*
X76397227Y-83050500D01*
X76400756Y-83050500D01*
X76401739Y-83050555D01*
X76407426Y-83051003D01*
X76427683Y-83053060D01*
X76444336Y-83054752D01*
X76444339Y-83054752D01*
X76450463Y-83055374D01*
X76496112Y-83051059D01*
X76507969Y-83050500D01*
X112472075Y-83050500D01*
X112540196Y-83070502D01*
X112561170Y-83087405D01*
X114010721Y-84536955D01*
X114010738Y-84536973D01*
X114979149Y-85505383D01*
X114988251Y-85515527D01*
X115011968Y-85545025D01*
X115016696Y-85548992D01*
X115050421Y-85577291D01*
X115054070Y-85580473D01*
X115055883Y-85582117D01*
X115058075Y-85584309D01*
X115091276Y-85611580D01*
X115092164Y-85612318D01*
X115127437Y-85641915D01*
X115158753Y-85668193D01*
X115158756Y-85668195D01*
X115163474Y-85672154D01*
X115168147Y-85674723D01*
X115172262Y-85678103D01*
X115177691Y-85681014D01*
X115177694Y-85681016D01*
X115254180Y-85722028D01*
X115255338Y-85722657D01*
X115331388Y-85764465D01*
X115336787Y-85767433D01*
X115341865Y-85769044D01*
X115346563Y-85771563D01*
X115435498Y-85798753D01*
X115436702Y-85799128D01*
X115525306Y-85827235D01*
X115530597Y-85827828D01*
X115535698Y-85829388D01*
X115628311Y-85838795D01*
X115629431Y-85838915D01*
X115679227Y-85844500D01*
X115682756Y-85844500D01*
X115683739Y-85844555D01*
X115689426Y-85845003D01*
X115709683Y-85847060D01*
X115726336Y-85848752D01*
X115726339Y-85848752D01*
X115732463Y-85849374D01*
X115778112Y-85845059D01*
X115789969Y-85844500D01*
X119683769Y-85844500D01*
X119686825Y-85844200D01*
X119686832Y-85844200D01*
X119745340Y-85838463D01*
X119830833Y-85830080D01*
X119836734Y-85828298D01*
X119836736Y-85828298D01*
X119933324Y-85799136D01*
X120020169Y-85772916D01*
X120194796Y-85680066D01*
X120309800Y-85586271D01*
X120343287Y-85558960D01*
X120343290Y-85558957D01*
X120348062Y-85555065D01*
X120380771Y-85515527D01*
X120470201Y-85407425D01*
X120470203Y-85407421D01*
X120474130Y-85402675D01*
X120568198Y-85228701D01*
X120626682Y-85039768D01*
X120647355Y-84843075D01*
X120629430Y-84646112D01*
X120573590Y-84456381D01*
X120481960Y-84281110D01*
X120358032Y-84126975D01*
X120206526Y-83999846D01*
X120201128Y-83996879D01*
X120201123Y-83996875D01*
X120038608Y-83907533D01*
X120038609Y-83907533D01*
X120033213Y-83904567D01*
X120027346Y-83902706D01*
X120027344Y-83902705D01*
X119850564Y-83846627D01*
X119850563Y-83846627D01*
X119844694Y-83844765D01*
X119690773Y-83827500D01*
X116205924Y-83827500D01*
X116137803Y-83807498D01*
X116116829Y-83790595D01*
X115520368Y-83194134D01*
X127414500Y-83194134D01*
X127421255Y-83256316D01*
X127472385Y-83392705D01*
X127559739Y-83509261D01*
X127676295Y-83596615D01*
X127812684Y-83647745D01*
X127874866Y-83654500D01*
X129671134Y-83654500D01*
X129733316Y-83647745D01*
X129869705Y-83596615D01*
X129986261Y-83509261D01*
X130073615Y-83392705D01*
X130124745Y-83256316D01*
X130131500Y-83194134D01*
X130131500Y-81397866D01*
X130124745Y-81335684D01*
X130073615Y-81199295D01*
X129986261Y-81082739D01*
X129869705Y-80995385D01*
X129733316Y-80944255D01*
X129671134Y-80937500D01*
X127874866Y-80937500D01*
X127812684Y-80944255D01*
X127676295Y-80995385D01*
X127559739Y-81082739D01*
X127472385Y-81199295D01*
X127421255Y-81335684D01*
X127414500Y-81397866D01*
X127414500Y-83194134D01*
X115520368Y-83194134D01*
X115517266Y-83191032D01*
X115517262Y-83191027D01*
X113698855Y-81372621D01*
X113689753Y-81362478D01*
X113669897Y-81337782D01*
X113666032Y-81332975D01*
X113627578Y-81300708D01*
X113623931Y-81297528D01*
X113622119Y-81295885D01*
X113619925Y-81293691D01*
X113586651Y-81266358D01*
X113585853Y-81265696D01*
X113514526Y-81205846D01*
X113509856Y-81203278D01*
X113505739Y-81199897D01*
X113423914Y-81156023D01*
X113422755Y-81155394D01*
X113346619Y-81113538D01*
X113346611Y-81113535D01*
X113341213Y-81110567D01*
X113336131Y-81108955D01*
X113331437Y-81106438D01*
X113242469Y-81079238D01*
X113241441Y-81078918D01*
X113152694Y-81050765D01*
X113147398Y-81050171D01*
X113142302Y-81048613D01*
X113049743Y-81039210D01*
X113048607Y-81039089D01*
X113014992Y-81035319D01*
X113002270Y-81033892D01*
X113002266Y-81033892D01*
X112998773Y-81033500D01*
X112995246Y-81033500D01*
X112994261Y-81033445D01*
X112988581Y-81032998D01*
X112959175Y-81030011D01*
X112951663Y-81029248D01*
X112951661Y-81029248D01*
X112945538Y-81028626D01*
X112903259Y-81032623D01*
X112899891Y-81032941D01*
X112888033Y-81033500D01*
X76923924Y-81033500D01*
X76855803Y-81013498D01*
X76834829Y-80996595D01*
X76750991Y-80912757D01*
X76716965Y-80850445D01*
X76722030Y-80779630D01*
X76766025Y-80721726D01*
X76805909Y-80692749D01*
X76805911Y-80692747D01*
X76811253Y-80688866D01*
X76939040Y-80546944D01*
X77034527Y-80381556D01*
X77093542Y-80199928D01*
X77110907Y-80034706D01*
X77137920Y-79969050D01*
X77147122Y-79958782D01*
X77862247Y-79243657D01*
X77870537Y-79236113D01*
X77877018Y-79232000D01*
X77911732Y-79195033D01*
X77972944Y-79159068D01*
X78043884Y-79161905D01*
X78067152Y-79172498D01*
X78161000Y-79227338D01*
X78165825Y-79229180D01*
X78165826Y-79229181D01*
X78182814Y-79235668D01*
X78369692Y-79307030D01*
X78374760Y-79308061D01*
X78374763Y-79308062D01*
X78482017Y-79329883D01*
X78588597Y-79351567D01*
X78593772Y-79351757D01*
X78593774Y-79351757D01*
X78806673Y-79359564D01*
X78806677Y-79359564D01*
X78811837Y-79359753D01*
X78816957Y-79359097D01*
X78816959Y-79359097D01*
X79028288Y-79332025D01*
X79028289Y-79332025D01*
X79033416Y-79331368D01*
X79038366Y-79329883D01*
X79242429Y-79268661D01*
X79242434Y-79268659D01*
X79247384Y-79267174D01*
X79447994Y-79168896D01*
X79629860Y-79039173D01*
X79642576Y-79026502D01*
X79739984Y-78929433D01*
X79788096Y-78881489D01*
X79822110Y-78834154D01*
X79918453Y-78700077D01*
X79919776Y-78701028D01*
X79966645Y-78657857D01*
X80036580Y-78645625D01*
X80102026Y-78673144D01*
X80129875Y-78704994D01*
X80189987Y-78803088D01*
X80336250Y-78971938D01*
X80508126Y-79114632D01*
X80701000Y-79227338D01*
X80705825Y-79229180D01*
X80705826Y-79229181D01*
X80722814Y-79235668D01*
X80909692Y-79307030D01*
X80914760Y-79308061D01*
X80914763Y-79308062D01*
X81022017Y-79329883D01*
X81128597Y-79351567D01*
X81133772Y-79351757D01*
X81133774Y-79351757D01*
X81346673Y-79359564D01*
X81346677Y-79359564D01*
X81351837Y-79359753D01*
X81356957Y-79359097D01*
X81356959Y-79359097D01*
X81568288Y-79332025D01*
X81568289Y-79332025D01*
X81573416Y-79331368D01*
X81578366Y-79329883D01*
X81782429Y-79268661D01*
X81782434Y-79268659D01*
X81787384Y-79267174D01*
X81987994Y-79168896D01*
X82169860Y-79039173D01*
X82182576Y-79026502D01*
X82279984Y-78929433D01*
X82328096Y-78881489D01*
X82362110Y-78834154D01*
X82458453Y-78700077D01*
X82459776Y-78701028D01*
X82506645Y-78657857D01*
X82576580Y-78645625D01*
X82642026Y-78673144D01*
X82669875Y-78704994D01*
X82729987Y-78803088D01*
X82876250Y-78971938D01*
X83048126Y-79114632D01*
X83241000Y-79227338D01*
X83245825Y-79229180D01*
X83245826Y-79229181D01*
X83262814Y-79235668D01*
X83449692Y-79307030D01*
X83454760Y-79308061D01*
X83454763Y-79308062D01*
X83562017Y-79329883D01*
X83668597Y-79351567D01*
X83673772Y-79351757D01*
X83673774Y-79351757D01*
X83886673Y-79359564D01*
X83886677Y-79359564D01*
X83891837Y-79359753D01*
X83896957Y-79359097D01*
X83896959Y-79359097D01*
X84108288Y-79332025D01*
X84108289Y-79332025D01*
X84113416Y-79331368D01*
X84118366Y-79329883D01*
X84322429Y-79268661D01*
X84322434Y-79268659D01*
X84327384Y-79267174D01*
X84527994Y-79168896D01*
X84709860Y-79039173D01*
X84722576Y-79026502D01*
X84819984Y-78929433D01*
X84868096Y-78881489D01*
X84902110Y-78834154D01*
X84998453Y-78700077D01*
X84999776Y-78701028D01*
X85046645Y-78657857D01*
X85116580Y-78645625D01*
X85182026Y-78673144D01*
X85209875Y-78704994D01*
X85269987Y-78803088D01*
X85416250Y-78971938D01*
X85588126Y-79114632D01*
X85781000Y-79227338D01*
X85785825Y-79229180D01*
X85785826Y-79229181D01*
X85802814Y-79235668D01*
X85989692Y-79307030D01*
X85994760Y-79308061D01*
X85994763Y-79308062D01*
X86102017Y-79329883D01*
X86208597Y-79351567D01*
X86213772Y-79351757D01*
X86213774Y-79351757D01*
X86426673Y-79359564D01*
X86426677Y-79359564D01*
X86431837Y-79359753D01*
X86436957Y-79359097D01*
X86436959Y-79359097D01*
X86648288Y-79332025D01*
X86648289Y-79332025D01*
X86653416Y-79331368D01*
X86658366Y-79329883D01*
X86862429Y-79268661D01*
X86862434Y-79268659D01*
X86867384Y-79267174D01*
X87067994Y-79168896D01*
X87249860Y-79039173D01*
X87262576Y-79026502D01*
X87359984Y-78929433D01*
X87408096Y-78881489D01*
X87442110Y-78834154D01*
X87538453Y-78700077D01*
X87539776Y-78701028D01*
X87586645Y-78657857D01*
X87656580Y-78645625D01*
X87722026Y-78673144D01*
X87749875Y-78704994D01*
X87809987Y-78803088D01*
X87956250Y-78971938D01*
X88128126Y-79114632D01*
X88321000Y-79227338D01*
X88325825Y-79229180D01*
X88325826Y-79229181D01*
X88342814Y-79235668D01*
X88529692Y-79307030D01*
X88534760Y-79308061D01*
X88534763Y-79308062D01*
X88642017Y-79329883D01*
X88748597Y-79351567D01*
X88753772Y-79351757D01*
X88753774Y-79351757D01*
X88966673Y-79359564D01*
X88966677Y-79359564D01*
X88971837Y-79359753D01*
X88976957Y-79359097D01*
X88976959Y-79359097D01*
X89188288Y-79332025D01*
X89188289Y-79332025D01*
X89193416Y-79331368D01*
X89198366Y-79329883D01*
X89402429Y-79268661D01*
X89402434Y-79268659D01*
X89407384Y-79267174D01*
X89607994Y-79168896D01*
X89789860Y-79039173D01*
X89802576Y-79026502D01*
X89899984Y-78929433D01*
X89948096Y-78881489D01*
X89982110Y-78834154D01*
X90075435Y-78704277D01*
X90078453Y-78700077D01*
X90099320Y-78657857D01*
X90175136Y-78504453D01*
X90175137Y-78504451D01*
X90177430Y-78499811D01*
X90242370Y-78286069D01*
X90271529Y-78064590D01*
X90273156Y-77998000D01*
X90270418Y-77964695D01*
X92627251Y-77964695D01*
X92627548Y-77969848D01*
X92627548Y-77969851D01*
X92633011Y-78064590D01*
X92640110Y-78187715D01*
X92641247Y-78192761D01*
X92641248Y-78192767D01*
X92661119Y-78280939D01*
X92689222Y-78405639D01*
X92773266Y-78612616D01*
X92824019Y-78695438D01*
X92887291Y-78798688D01*
X92889987Y-78803088D01*
X93036250Y-78971938D01*
X93208126Y-79114632D01*
X93401000Y-79227338D01*
X93405825Y-79229180D01*
X93405826Y-79229181D01*
X93422814Y-79235668D01*
X93609692Y-79307030D01*
X93614760Y-79308061D01*
X93614763Y-79308062D01*
X93722017Y-79329883D01*
X93828597Y-79351567D01*
X93833772Y-79351757D01*
X93833774Y-79351757D01*
X94046673Y-79359564D01*
X94046677Y-79359564D01*
X94051837Y-79359753D01*
X94056957Y-79359097D01*
X94056959Y-79359097D01*
X94268288Y-79332025D01*
X94268289Y-79332025D01*
X94273416Y-79331368D01*
X94278366Y-79329883D01*
X94482429Y-79268661D01*
X94482434Y-79268659D01*
X94487384Y-79267174D01*
X94687994Y-79168896D01*
X94869860Y-79039173D01*
X94882576Y-79026502D01*
X94979984Y-78929433D01*
X95028096Y-78881489D01*
X95062110Y-78834154D01*
X95158453Y-78700077D01*
X95159776Y-78701028D01*
X95206645Y-78657857D01*
X95276580Y-78645625D01*
X95342026Y-78673144D01*
X95369875Y-78704994D01*
X95429987Y-78803088D01*
X95576250Y-78971938D01*
X95748126Y-79114632D01*
X95941000Y-79227338D01*
X95945825Y-79229180D01*
X95945826Y-79229181D01*
X95962814Y-79235668D01*
X96149692Y-79307030D01*
X96154760Y-79308061D01*
X96154763Y-79308062D01*
X96262017Y-79329883D01*
X96368597Y-79351567D01*
X96373772Y-79351757D01*
X96373774Y-79351757D01*
X96586673Y-79359564D01*
X96586677Y-79359564D01*
X96591837Y-79359753D01*
X96596957Y-79359097D01*
X96596959Y-79359097D01*
X96808288Y-79332025D01*
X96808289Y-79332025D01*
X96813416Y-79331368D01*
X96818366Y-79329883D01*
X97022429Y-79268661D01*
X97022434Y-79268659D01*
X97027384Y-79267174D01*
X97227994Y-79168896D01*
X97409860Y-79039173D01*
X97422576Y-79026502D01*
X97519984Y-78929433D01*
X97568096Y-78881489D01*
X97602110Y-78834154D01*
X97698453Y-78700077D01*
X97699776Y-78701028D01*
X97746645Y-78657857D01*
X97816580Y-78645625D01*
X97882026Y-78673144D01*
X97909875Y-78704994D01*
X97969987Y-78803088D01*
X98116250Y-78971938D01*
X98288126Y-79114632D01*
X98481000Y-79227338D01*
X98485825Y-79229180D01*
X98485826Y-79229181D01*
X98502814Y-79235668D01*
X98689692Y-79307030D01*
X98694760Y-79308061D01*
X98694763Y-79308062D01*
X98802017Y-79329883D01*
X98908597Y-79351567D01*
X98913772Y-79351757D01*
X98913774Y-79351757D01*
X99126673Y-79359564D01*
X99126677Y-79359564D01*
X99131837Y-79359753D01*
X99136957Y-79359097D01*
X99136959Y-79359097D01*
X99348288Y-79332025D01*
X99348289Y-79332025D01*
X99353416Y-79331368D01*
X99358366Y-79329883D01*
X99562429Y-79268661D01*
X99562434Y-79268659D01*
X99567384Y-79267174D01*
X99767994Y-79168896D01*
X99949860Y-79039173D01*
X99962576Y-79026502D01*
X100059984Y-78929433D01*
X100108096Y-78881489D01*
X100142110Y-78834154D01*
X100235435Y-78704277D01*
X100238453Y-78700077D01*
X100259320Y-78657857D01*
X100335136Y-78504453D01*
X100335137Y-78504451D01*
X100337430Y-78499811D01*
X100402370Y-78286069D01*
X100431529Y-78064590D01*
X100433156Y-77998000D01*
X100430418Y-77964695D01*
X102787251Y-77964695D01*
X102787548Y-77969848D01*
X102787548Y-77969851D01*
X102793011Y-78064590D01*
X102800110Y-78187715D01*
X102801247Y-78192761D01*
X102801248Y-78192767D01*
X102821119Y-78280939D01*
X102849222Y-78405639D01*
X102933266Y-78612616D01*
X102984019Y-78695438D01*
X103047291Y-78798688D01*
X103049987Y-78803088D01*
X103196250Y-78971938D01*
X103368126Y-79114632D01*
X103561000Y-79227338D01*
X103565825Y-79229180D01*
X103565826Y-79229181D01*
X103582814Y-79235668D01*
X103769692Y-79307030D01*
X103774760Y-79308061D01*
X103774763Y-79308062D01*
X103882017Y-79329883D01*
X103988597Y-79351567D01*
X103993772Y-79351757D01*
X103993774Y-79351757D01*
X104206673Y-79359564D01*
X104206677Y-79359564D01*
X104211837Y-79359753D01*
X104216957Y-79359097D01*
X104216959Y-79359097D01*
X104428288Y-79332025D01*
X104428289Y-79332025D01*
X104433416Y-79331368D01*
X104438366Y-79329883D01*
X104642429Y-79268661D01*
X104642434Y-79268659D01*
X104647384Y-79267174D01*
X104847994Y-79168896D01*
X105029860Y-79039173D01*
X105042576Y-79026502D01*
X105139984Y-78929433D01*
X105188096Y-78881489D01*
X105222110Y-78834154D01*
X105318453Y-78700077D01*
X105319776Y-78701028D01*
X105366645Y-78657857D01*
X105436580Y-78645625D01*
X105502026Y-78673144D01*
X105529875Y-78704994D01*
X105589987Y-78803088D01*
X105736250Y-78971938D01*
X105908126Y-79114632D01*
X106101000Y-79227338D01*
X106105825Y-79229180D01*
X106105826Y-79229181D01*
X106122814Y-79235668D01*
X106309692Y-79307030D01*
X106314760Y-79308061D01*
X106314763Y-79308062D01*
X106422017Y-79329883D01*
X106528597Y-79351567D01*
X106533772Y-79351757D01*
X106533774Y-79351757D01*
X106746673Y-79359564D01*
X106746677Y-79359564D01*
X106751837Y-79359753D01*
X106756957Y-79359097D01*
X106756959Y-79359097D01*
X106968288Y-79332025D01*
X106968289Y-79332025D01*
X106973416Y-79331368D01*
X106978366Y-79329883D01*
X107182429Y-79268661D01*
X107182434Y-79268659D01*
X107187384Y-79267174D01*
X107387994Y-79168896D01*
X107569860Y-79039173D01*
X107582576Y-79026502D01*
X107679984Y-78929433D01*
X107728096Y-78881489D01*
X107762110Y-78834154D01*
X107855435Y-78704277D01*
X107858453Y-78700077D01*
X107879320Y-78657857D01*
X107955136Y-78504453D01*
X107955137Y-78504451D01*
X107957430Y-78499811D01*
X108022370Y-78286069D01*
X108051529Y-78064590D01*
X108053156Y-77998000D01*
X108034852Y-77775361D01*
X107980431Y-77558702D01*
X107891354Y-77353840D01*
X107770014Y-77166277D01*
X107619670Y-77001051D01*
X107615619Y-76997852D01*
X107615615Y-76997848D01*
X107448414Y-76865800D01*
X107448410Y-76865798D01*
X107444359Y-76862598D01*
X107403053Y-76839796D01*
X107353084Y-76789364D01*
X107338312Y-76719921D01*
X107363428Y-76653516D01*
X107390780Y-76626909D01*
X107434603Y-76595650D01*
X107569860Y-76499173D01*
X107728096Y-76341489D01*
X107787594Y-76258689D01*
X107855435Y-76164277D01*
X107858453Y-76160077D01*
X107879320Y-76117857D01*
X107955136Y-75964453D01*
X107955137Y-75964451D01*
X107957430Y-75959811D01*
X108022370Y-75746069D01*
X108051529Y-75524590D01*
X108053156Y-75458000D01*
X108034852Y-75235361D01*
X107980431Y-75018702D01*
X107891354Y-74813840D01*
X107770014Y-74626277D01*
X107619670Y-74461051D01*
X107615619Y-74457852D01*
X107615615Y-74457848D01*
X107448414Y-74325800D01*
X107448410Y-74325798D01*
X107444359Y-74322598D01*
X107248789Y-74214638D01*
X107243920Y-74212914D01*
X107243916Y-74212912D01*
X107043087Y-74141795D01*
X107043083Y-74141794D01*
X107038212Y-74140069D01*
X107033119Y-74139162D01*
X107033116Y-74139161D01*
X106823373Y-74101800D01*
X106823367Y-74101799D01*
X106818284Y-74100894D01*
X106744452Y-74099992D01*
X106600081Y-74098228D01*
X106600079Y-74098228D01*
X106594911Y-74098165D01*
X106374091Y-74131955D01*
X106161756Y-74201357D01*
X105963607Y-74304507D01*
X105959474Y-74307610D01*
X105959471Y-74307612D01*
X105935247Y-74325800D01*
X105784965Y-74438635D01*
X105630629Y-74600138D01*
X105523201Y-74757621D01*
X105468293Y-74802621D01*
X105397768Y-74810792D01*
X105334021Y-74779538D01*
X105313324Y-74755054D01*
X105232822Y-74630617D01*
X105232820Y-74630614D01*
X105230014Y-74626277D01*
X105079670Y-74461051D01*
X105075619Y-74457852D01*
X105075615Y-74457848D01*
X104908414Y-74325800D01*
X104908410Y-74325798D01*
X104904359Y-74322598D01*
X104708789Y-74214638D01*
X104703920Y-74212914D01*
X104703916Y-74212912D01*
X104503087Y-74141795D01*
X104503083Y-74141794D01*
X104498212Y-74140069D01*
X104493119Y-74139162D01*
X104493116Y-74139161D01*
X104283373Y-74101800D01*
X104283367Y-74101799D01*
X104278284Y-74100894D01*
X104204452Y-74099992D01*
X104060081Y-74098228D01*
X104060079Y-74098228D01*
X104054911Y-74098165D01*
X103834091Y-74131955D01*
X103621756Y-74201357D01*
X103423607Y-74304507D01*
X103419474Y-74307610D01*
X103419471Y-74307612D01*
X103395247Y-74325800D01*
X103244965Y-74438635D01*
X103090629Y-74600138D01*
X102964743Y-74784680D01*
X102870688Y-74987305D01*
X102810989Y-75202570D01*
X102787251Y-75424695D01*
X102787548Y-75429848D01*
X102787548Y-75429851D01*
X102793011Y-75524590D01*
X102800110Y-75647715D01*
X102801247Y-75652761D01*
X102801248Y-75652767D01*
X102821119Y-75740939D01*
X102849222Y-75865639D01*
X102933266Y-76072616D01*
X102984019Y-76155438D01*
X103047291Y-76258688D01*
X103049987Y-76263088D01*
X103196250Y-76431938D01*
X103368126Y-76574632D01*
X103438595Y-76615811D01*
X103441445Y-76617476D01*
X103490169Y-76669114D01*
X103503240Y-76738897D01*
X103476509Y-76804669D01*
X103436055Y-76838027D01*
X103423607Y-76844507D01*
X103419474Y-76847610D01*
X103419471Y-76847612D01*
X103326289Y-76917575D01*
X103244965Y-76978635D01*
X103226605Y-76997848D01*
X103133729Y-77095037D01*
X103090629Y-77140138D01*
X102964743Y-77324680D01*
X102870688Y-77527305D01*
X102810989Y-77742570D01*
X102787251Y-77964695D01*
X100430418Y-77964695D01*
X100414852Y-77775361D01*
X100360431Y-77558702D01*
X100271354Y-77353840D01*
X100150014Y-77166277D01*
X99999670Y-77001051D01*
X99995619Y-76997852D01*
X99995615Y-76997848D01*
X99828414Y-76865800D01*
X99828410Y-76865798D01*
X99824359Y-76862598D01*
X99783053Y-76839796D01*
X99733084Y-76789364D01*
X99718312Y-76719921D01*
X99743428Y-76653516D01*
X99770780Y-76626909D01*
X99814603Y-76595650D01*
X99949860Y-76499173D01*
X100108096Y-76341489D01*
X100167594Y-76258689D01*
X100235435Y-76164277D01*
X100238453Y-76160077D01*
X100259320Y-76117857D01*
X100335136Y-75964453D01*
X100335137Y-75964451D01*
X100337430Y-75959811D01*
X100402370Y-75746069D01*
X100431529Y-75524590D01*
X100433156Y-75458000D01*
X100414852Y-75235361D01*
X100360431Y-75018702D01*
X100271354Y-74813840D01*
X100150014Y-74626277D01*
X99999670Y-74461051D01*
X99995619Y-74457852D01*
X99995615Y-74457848D01*
X99828414Y-74325800D01*
X99828410Y-74325798D01*
X99824359Y-74322598D01*
X99628789Y-74214638D01*
X99623920Y-74212914D01*
X99623916Y-74212912D01*
X99423087Y-74141795D01*
X99423083Y-74141794D01*
X99418212Y-74140069D01*
X99413119Y-74139162D01*
X99413116Y-74139161D01*
X99203373Y-74101800D01*
X99203367Y-74101799D01*
X99198284Y-74100894D01*
X99124452Y-74099992D01*
X98980081Y-74098228D01*
X98980079Y-74098228D01*
X98974911Y-74098165D01*
X98754091Y-74131955D01*
X98541756Y-74201357D01*
X98343607Y-74304507D01*
X98339474Y-74307610D01*
X98339471Y-74307612D01*
X98315247Y-74325800D01*
X98164965Y-74438635D01*
X98010629Y-74600138D01*
X97903201Y-74757621D01*
X97848293Y-74802621D01*
X97777768Y-74810792D01*
X97714021Y-74779538D01*
X97693324Y-74755054D01*
X97612822Y-74630617D01*
X97612820Y-74630614D01*
X97610014Y-74626277D01*
X97459670Y-74461051D01*
X97455619Y-74457852D01*
X97455615Y-74457848D01*
X97288414Y-74325800D01*
X97288410Y-74325798D01*
X97284359Y-74322598D01*
X97088789Y-74214638D01*
X97083920Y-74212914D01*
X97083916Y-74212912D01*
X96883087Y-74141795D01*
X96883083Y-74141794D01*
X96878212Y-74140069D01*
X96873119Y-74139162D01*
X96873116Y-74139161D01*
X96663373Y-74101800D01*
X96663367Y-74101799D01*
X96658284Y-74100894D01*
X96584452Y-74099992D01*
X96440081Y-74098228D01*
X96440079Y-74098228D01*
X96434911Y-74098165D01*
X96214091Y-74131955D01*
X96001756Y-74201357D01*
X95803607Y-74304507D01*
X95799474Y-74307610D01*
X95799471Y-74307612D01*
X95775247Y-74325800D01*
X95624965Y-74438635D01*
X95470629Y-74600138D01*
X95363201Y-74757621D01*
X95308293Y-74802621D01*
X95237768Y-74810792D01*
X95174021Y-74779538D01*
X95153324Y-74755054D01*
X95072822Y-74630617D01*
X95072820Y-74630614D01*
X95070014Y-74626277D01*
X94919670Y-74461051D01*
X94915619Y-74457852D01*
X94915615Y-74457848D01*
X94748414Y-74325800D01*
X94748410Y-74325798D01*
X94744359Y-74322598D01*
X94548789Y-74214638D01*
X94543920Y-74212914D01*
X94543916Y-74212912D01*
X94343087Y-74141795D01*
X94343083Y-74141794D01*
X94338212Y-74140069D01*
X94333119Y-74139162D01*
X94333116Y-74139161D01*
X94123373Y-74101800D01*
X94123367Y-74101799D01*
X94118284Y-74100894D01*
X94044452Y-74099992D01*
X93900081Y-74098228D01*
X93900079Y-74098228D01*
X93894911Y-74098165D01*
X93674091Y-74131955D01*
X93461756Y-74201357D01*
X93263607Y-74304507D01*
X93259474Y-74307610D01*
X93259471Y-74307612D01*
X93235247Y-74325800D01*
X93084965Y-74438635D01*
X92930629Y-74600138D01*
X92804743Y-74784680D01*
X92710688Y-74987305D01*
X92650989Y-75202570D01*
X92627251Y-75424695D01*
X92627548Y-75429848D01*
X92627548Y-75429851D01*
X92633011Y-75524590D01*
X92640110Y-75647715D01*
X92641247Y-75652761D01*
X92641248Y-75652767D01*
X92661119Y-75740939D01*
X92689222Y-75865639D01*
X92773266Y-76072616D01*
X92824019Y-76155438D01*
X92887291Y-76258688D01*
X92889987Y-76263088D01*
X93036250Y-76431938D01*
X93208126Y-76574632D01*
X93278595Y-76615811D01*
X93281445Y-76617476D01*
X93330169Y-76669114D01*
X93343240Y-76738897D01*
X93316509Y-76804669D01*
X93276055Y-76838027D01*
X93263607Y-76844507D01*
X93259474Y-76847610D01*
X93259471Y-76847612D01*
X93166289Y-76917575D01*
X93084965Y-76978635D01*
X93066605Y-76997848D01*
X92973729Y-77095037D01*
X92930629Y-77140138D01*
X92804743Y-77324680D01*
X92710688Y-77527305D01*
X92650989Y-77742570D01*
X92627251Y-77964695D01*
X90270418Y-77964695D01*
X90254852Y-77775361D01*
X90200431Y-77558702D01*
X90111354Y-77353840D01*
X89990014Y-77166277D01*
X89839670Y-77001051D01*
X89835619Y-76997852D01*
X89835615Y-76997848D01*
X89668414Y-76865800D01*
X89668410Y-76865798D01*
X89664359Y-76862598D01*
X89623053Y-76839796D01*
X89573084Y-76789364D01*
X89558312Y-76719921D01*
X89583428Y-76653516D01*
X89610780Y-76626909D01*
X89654603Y-76595650D01*
X89789860Y-76499173D01*
X89948096Y-76341489D01*
X90007594Y-76258689D01*
X90075435Y-76164277D01*
X90078453Y-76160077D01*
X90099320Y-76117857D01*
X90175136Y-75964453D01*
X90175137Y-75964451D01*
X90177430Y-75959811D01*
X90242370Y-75746069D01*
X90271529Y-75524590D01*
X90273156Y-75458000D01*
X90254852Y-75235361D01*
X90200431Y-75018702D01*
X90111354Y-74813840D01*
X89990014Y-74626277D01*
X89839670Y-74461051D01*
X89835619Y-74457852D01*
X89835615Y-74457848D01*
X89668414Y-74325800D01*
X89668410Y-74325798D01*
X89664359Y-74322598D01*
X89468789Y-74214638D01*
X89463920Y-74212914D01*
X89463916Y-74212912D01*
X89263087Y-74141795D01*
X89263083Y-74141794D01*
X89258212Y-74140069D01*
X89253119Y-74139162D01*
X89253116Y-74139161D01*
X89043373Y-74101800D01*
X89043367Y-74101799D01*
X89038284Y-74100894D01*
X88964452Y-74099992D01*
X88820081Y-74098228D01*
X88820079Y-74098228D01*
X88814911Y-74098165D01*
X88594091Y-74131955D01*
X88381756Y-74201357D01*
X88183607Y-74304507D01*
X88179474Y-74307610D01*
X88179471Y-74307612D01*
X88155247Y-74325800D01*
X88004965Y-74438635D01*
X87850629Y-74600138D01*
X87743201Y-74757621D01*
X87688293Y-74802621D01*
X87617768Y-74810792D01*
X87554021Y-74779538D01*
X87533324Y-74755054D01*
X87452822Y-74630617D01*
X87452820Y-74630614D01*
X87450014Y-74626277D01*
X87299670Y-74461051D01*
X87295619Y-74457852D01*
X87295615Y-74457848D01*
X87128414Y-74325800D01*
X87128410Y-74325798D01*
X87124359Y-74322598D01*
X86928789Y-74214638D01*
X86923920Y-74212914D01*
X86923916Y-74212912D01*
X86723087Y-74141795D01*
X86723083Y-74141794D01*
X86718212Y-74140069D01*
X86713119Y-74139162D01*
X86713116Y-74139161D01*
X86503373Y-74101800D01*
X86503367Y-74101799D01*
X86498284Y-74100894D01*
X86424452Y-74099992D01*
X86280081Y-74098228D01*
X86280079Y-74098228D01*
X86274911Y-74098165D01*
X86054091Y-74131955D01*
X85841756Y-74201357D01*
X85643607Y-74304507D01*
X85639474Y-74307610D01*
X85639471Y-74307612D01*
X85615247Y-74325800D01*
X85464965Y-74438635D01*
X85310629Y-74600138D01*
X85184743Y-74784680D01*
X85090688Y-74987305D01*
X85030989Y-75202570D01*
X85007251Y-75424695D01*
X85007548Y-75429848D01*
X85007548Y-75429851D01*
X85013011Y-75524590D01*
X85020110Y-75647715D01*
X85021247Y-75652761D01*
X85021248Y-75652767D01*
X85041119Y-75740939D01*
X85069222Y-75865639D01*
X85153266Y-76072616D01*
X85204019Y-76155438D01*
X85267291Y-76258688D01*
X85269987Y-76263088D01*
X85416250Y-76431938D01*
X85588126Y-76574632D01*
X85658595Y-76615811D01*
X85661445Y-76617476D01*
X85710169Y-76669114D01*
X85723240Y-76738897D01*
X85696509Y-76804669D01*
X85656055Y-76838027D01*
X85643607Y-76844507D01*
X85639474Y-76847610D01*
X85639471Y-76847612D01*
X85546289Y-76917575D01*
X85464965Y-76978635D01*
X85446605Y-76997848D01*
X85353729Y-77095037D01*
X85310629Y-77140138D01*
X85203201Y-77297621D01*
X85148293Y-77342621D01*
X85077768Y-77350792D01*
X85014021Y-77319538D01*
X84993324Y-77295054D01*
X84912822Y-77170617D01*
X84912820Y-77170614D01*
X84910014Y-77166277D01*
X84759670Y-77001051D01*
X84755619Y-76997852D01*
X84755615Y-76997848D01*
X84588414Y-76865800D01*
X84588410Y-76865798D01*
X84584359Y-76862598D01*
X84388789Y-76754638D01*
X84383920Y-76752914D01*
X84383916Y-76752912D01*
X84183087Y-76681795D01*
X84183083Y-76681794D01*
X84178212Y-76680069D01*
X84173119Y-76679162D01*
X84173116Y-76679161D01*
X83963373Y-76641800D01*
X83963367Y-76641799D01*
X83958284Y-76640894D01*
X83884452Y-76639992D01*
X83740081Y-76638228D01*
X83740079Y-76638228D01*
X83734911Y-76638165D01*
X83514091Y-76671955D01*
X83301756Y-76741357D01*
X83271443Y-76757137D01*
X83183501Y-76802917D01*
X83103607Y-76844507D01*
X83099474Y-76847610D01*
X83099471Y-76847612D01*
X83006289Y-76917575D01*
X82924965Y-76978635D01*
X82906605Y-76997848D01*
X82813729Y-77095037D01*
X82770629Y-77140138D01*
X82663201Y-77297621D01*
X82608293Y-77342621D01*
X82537768Y-77350792D01*
X82474021Y-77319538D01*
X82453324Y-77295054D01*
X82372822Y-77170617D01*
X82372820Y-77170614D01*
X82370014Y-77166277D01*
X82219670Y-77001051D01*
X82215619Y-76997852D01*
X82215615Y-76997848D01*
X82048414Y-76865800D01*
X82048410Y-76865798D01*
X82044359Y-76862598D01*
X82003053Y-76839796D01*
X81953084Y-76789364D01*
X81938312Y-76719921D01*
X81963428Y-76653516D01*
X81990780Y-76626909D01*
X82034603Y-76595650D01*
X82169860Y-76499173D01*
X82328096Y-76341489D01*
X82387594Y-76258689D01*
X82455435Y-76164277D01*
X82458453Y-76160077D01*
X82479320Y-76117857D01*
X82555136Y-75964453D01*
X82555137Y-75964451D01*
X82557430Y-75959811D01*
X82622370Y-75746069D01*
X82651529Y-75524590D01*
X82653156Y-75458000D01*
X82634852Y-75235361D01*
X82580431Y-75018702D01*
X82491354Y-74813840D01*
X82370014Y-74626277D01*
X82219670Y-74461051D01*
X82215619Y-74457852D01*
X82215615Y-74457848D01*
X82048414Y-74325800D01*
X82048410Y-74325798D01*
X82044359Y-74322598D01*
X81848789Y-74214638D01*
X81843920Y-74212914D01*
X81843916Y-74212912D01*
X81643087Y-74141795D01*
X81643083Y-74141794D01*
X81638212Y-74140069D01*
X81633119Y-74139162D01*
X81633116Y-74139161D01*
X81423373Y-74101800D01*
X81423367Y-74101799D01*
X81418284Y-74100894D01*
X81344452Y-74099992D01*
X81200081Y-74098228D01*
X81200079Y-74098228D01*
X81194911Y-74098165D01*
X80974091Y-74131955D01*
X80761756Y-74201357D01*
X80563607Y-74304507D01*
X80559474Y-74307610D01*
X80559471Y-74307612D01*
X80535247Y-74325800D01*
X80384965Y-74438635D01*
X80230629Y-74600138D01*
X80123201Y-74757621D01*
X80068293Y-74802621D01*
X79997768Y-74810792D01*
X79934021Y-74779538D01*
X79913324Y-74755054D01*
X79832822Y-74630617D01*
X79832820Y-74630614D01*
X79830014Y-74626277D01*
X79679670Y-74461051D01*
X79675619Y-74457852D01*
X79675615Y-74457848D01*
X79508414Y-74325800D01*
X79508410Y-74325798D01*
X79504359Y-74322598D01*
X79308789Y-74214638D01*
X79303920Y-74212914D01*
X79303916Y-74212912D01*
X79103087Y-74141795D01*
X79103083Y-74141794D01*
X79098212Y-74140069D01*
X79093119Y-74139162D01*
X79093116Y-74139161D01*
X78883373Y-74101800D01*
X78883367Y-74101799D01*
X78878284Y-74100894D01*
X78804452Y-74099992D01*
X78660081Y-74098228D01*
X78660079Y-74098228D01*
X78654911Y-74098165D01*
X78434091Y-74131955D01*
X78221756Y-74201357D01*
X78023607Y-74304507D01*
X78019474Y-74307610D01*
X78019471Y-74307612D01*
X77995247Y-74325800D01*
X77844965Y-74438635D01*
X77690629Y-74600138D01*
X77583201Y-74757621D01*
X77528293Y-74802621D01*
X77457768Y-74810792D01*
X77394021Y-74779538D01*
X77373324Y-74755054D01*
X77292822Y-74630617D01*
X77292820Y-74630614D01*
X77290014Y-74626277D01*
X77139670Y-74461051D01*
X77135619Y-74457852D01*
X77135615Y-74457848D01*
X76968414Y-74325800D01*
X76968410Y-74325798D01*
X76964359Y-74322598D01*
X76768789Y-74214638D01*
X76763920Y-74212914D01*
X76763916Y-74212912D01*
X76563087Y-74141795D01*
X76563083Y-74141794D01*
X76558212Y-74140069D01*
X76553119Y-74139162D01*
X76553116Y-74139161D01*
X76343373Y-74101800D01*
X76343367Y-74101799D01*
X76338284Y-74100894D01*
X76264452Y-74099992D01*
X76120081Y-74098228D01*
X76120079Y-74098228D01*
X76114911Y-74098165D01*
X75894091Y-74131955D01*
X75681756Y-74201357D01*
X75483607Y-74304507D01*
X75479474Y-74307610D01*
X75479471Y-74307612D01*
X75455247Y-74325800D01*
X75304965Y-74438635D01*
X75150629Y-74600138D01*
X75024743Y-74784680D01*
X74930688Y-74987305D01*
X74870989Y-75202570D01*
X74847251Y-75424695D01*
X74847548Y-75429848D01*
X74847548Y-75429851D01*
X74853011Y-75524590D01*
X74860110Y-75647715D01*
X74861247Y-75652761D01*
X74861248Y-75652767D01*
X74881119Y-75740939D01*
X74909222Y-75865639D01*
X74993266Y-76072616D01*
X75044019Y-76155438D01*
X75107291Y-76258688D01*
X75109987Y-76263088D01*
X75256250Y-76431938D01*
X75428126Y-76574632D01*
X75498595Y-76615811D01*
X75501445Y-76617476D01*
X75550169Y-76669114D01*
X75563240Y-76738897D01*
X75536509Y-76804669D01*
X75496055Y-76838027D01*
X75483607Y-76844507D01*
X75479474Y-76847610D01*
X75479471Y-76847612D01*
X75386289Y-76917575D01*
X75304965Y-76978635D01*
X75248537Y-77037684D01*
X75224283Y-77063064D01*
X75162759Y-77098494D01*
X75091846Y-77095037D01*
X75034060Y-77053791D01*
X75015207Y-77020243D01*
X74973767Y-76909703D01*
X74970615Y-76901295D01*
X74883261Y-76784739D01*
X74766705Y-76697385D01*
X74630316Y-76646255D01*
X74568134Y-76639500D01*
X72771866Y-76639500D01*
X72709684Y-76646255D01*
X72573295Y-76697385D01*
X72456739Y-76784739D01*
X72369385Y-76901295D01*
X72366233Y-76909703D01*
X72361923Y-76917575D01*
X72360259Y-76916664D01*
X72324337Y-76964490D01*
X72257776Y-76989193D01*
X72248991Y-76989500D01*
X67788231Y-76989500D01*
X67785175Y-76989800D01*
X67785168Y-76989800D01*
X67726660Y-76995537D01*
X67641167Y-77003920D01*
X67635266Y-77005702D01*
X67635264Y-77005702D01*
X67561947Y-77027838D01*
X67451831Y-77061084D01*
X67277204Y-77153934D01*
X67256749Y-77170617D01*
X67128713Y-77275040D01*
X67128710Y-77275043D01*
X67123938Y-77278935D01*
X67120011Y-77283682D01*
X67120009Y-77283684D01*
X67001799Y-77426575D01*
X67001797Y-77426579D01*
X66997870Y-77431325D01*
X66903802Y-77605299D01*
X66845318Y-77794232D01*
X66824645Y-77990925D01*
X49536274Y-77990925D01*
X49538549Y-64467000D01*
X56046597Y-64467000D01*
X56066171Y-64690729D01*
X56124297Y-64907660D01*
X56126619Y-64912641D01*
X56126620Y-64912642D01*
X56216884Y-65106214D01*
X56216887Y-65106219D01*
X56219210Y-65111201D01*
X56348026Y-65295169D01*
X56506831Y-65453974D01*
X56690798Y-65582790D01*
X56695780Y-65585113D01*
X56695785Y-65585116D01*
X56889358Y-65675380D01*
X56894340Y-65677703D01*
X56899648Y-65679125D01*
X56899650Y-65679126D01*
X57105956Y-65734405D01*
X57105958Y-65734405D01*
X57111271Y-65735829D01*
X57335000Y-65755403D01*
X57558729Y-65735829D01*
X57564042Y-65734405D01*
X57564044Y-65734405D01*
X57770350Y-65679126D01*
X57770352Y-65679125D01*
X57775660Y-65677703D01*
X57780642Y-65675380D01*
X57974215Y-65585116D01*
X57974220Y-65585113D01*
X57979202Y-65582790D01*
X58163169Y-65453974D01*
X58321974Y-65295169D01*
X58450790Y-65111201D01*
X58453113Y-65106219D01*
X58453116Y-65106214D01*
X58490805Y-65025389D01*
X58537723Y-64972104D01*
X58606000Y-64952643D01*
X58673960Y-64973185D01*
X58719195Y-65025389D01*
X58756884Y-65106214D01*
X58756887Y-65106219D01*
X58759210Y-65111201D01*
X58888026Y-65295169D01*
X59046831Y-65453974D01*
X59230798Y-65582790D01*
X59235780Y-65585113D01*
X59235785Y-65585116D01*
X59429358Y-65675380D01*
X59434340Y-65677703D01*
X59439648Y-65679125D01*
X59439650Y-65679126D01*
X59645956Y-65734405D01*
X59645958Y-65734405D01*
X59651271Y-65735829D01*
X59875000Y-65755403D01*
X60098729Y-65735829D01*
X60104042Y-65734405D01*
X60104044Y-65734405D01*
X60310350Y-65679126D01*
X60310352Y-65679125D01*
X60315660Y-65677703D01*
X60320642Y-65675380D01*
X60514215Y-65585116D01*
X60514220Y-65585113D01*
X60519202Y-65582790D01*
X60703169Y-65453974D01*
X60861974Y-65295169D01*
X60990790Y-65111201D01*
X60993113Y-65106219D01*
X60993116Y-65106214D01*
X61030805Y-65025389D01*
X61077723Y-64972104D01*
X61146000Y-64952643D01*
X61213960Y-64973185D01*
X61259195Y-65025389D01*
X61296884Y-65106214D01*
X61296887Y-65106219D01*
X61299210Y-65111201D01*
X61428026Y-65295169D01*
X61586831Y-65453974D01*
X61770798Y-65582790D01*
X61775780Y-65585113D01*
X61775785Y-65585116D01*
X61969358Y-65675380D01*
X61974340Y-65677703D01*
X61979648Y-65679125D01*
X61979650Y-65679126D01*
X62185956Y-65734405D01*
X62185958Y-65734405D01*
X62191271Y-65735829D01*
X62415000Y-65755403D01*
X62638729Y-65735829D01*
X62644042Y-65734405D01*
X62644044Y-65734405D01*
X62850350Y-65679126D01*
X62850352Y-65679125D01*
X62855660Y-65677703D01*
X62860642Y-65675380D01*
X63054215Y-65585116D01*
X63054220Y-65585113D01*
X63059202Y-65582790D01*
X63243169Y-65453974D01*
X63401974Y-65295169D01*
X63530790Y-65111201D01*
X63533113Y-65106219D01*
X63533116Y-65106214D01*
X63570805Y-65025389D01*
X63617723Y-64972104D01*
X63686000Y-64952643D01*
X63753960Y-64973185D01*
X63799195Y-65025389D01*
X63836884Y-65106214D01*
X63836887Y-65106219D01*
X63839210Y-65111201D01*
X63968026Y-65295169D01*
X64126831Y-65453974D01*
X64310798Y-65582790D01*
X64315780Y-65585113D01*
X64315785Y-65585116D01*
X64509358Y-65675380D01*
X64514340Y-65677703D01*
X64519648Y-65679125D01*
X64519650Y-65679126D01*
X64725956Y-65734405D01*
X64725958Y-65734405D01*
X64731271Y-65735829D01*
X64955000Y-65755403D01*
X65178729Y-65735829D01*
X65184042Y-65734405D01*
X65184044Y-65734405D01*
X65390350Y-65679126D01*
X65390352Y-65679125D01*
X65395660Y-65677703D01*
X65400642Y-65675380D01*
X65594215Y-65585116D01*
X65594220Y-65585113D01*
X65599202Y-65582790D01*
X65783169Y-65453974D01*
X65941974Y-65295169D01*
X66070790Y-65111201D01*
X66073113Y-65106219D01*
X66073116Y-65106214D01*
X66110805Y-65025389D01*
X66157723Y-64972104D01*
X66226000Y-64952643D01*
X66293960Y-64973185D01*
X66339195Y-65025389D01*
X66376884Y-65106214D01*
X66376887Y-65106219D01*
X66379210Y-65111201D01*
X66508026Y-65295169D01*
X66666831Y-65453974D01*
X66850798Y-65582790D01*
X66855780Y-65585113D01*
X66855785Y-65585116D01*
X67049358Y-65675380D01*
X67054340Y-65677703D01*
X67059648Y-65679125D01*
X67059650Y-65679126D01*
X67265956Y-65734405D01*
X67265958Y-65734405D01*
X67271271Y-65735829D01*
X67495000Y-65755403D01*
X67718729Y-65735829D01*
X67724042Y-65734405D01*
X67724044Y-65734405D01*
X67930350Y-65679126D01*
X67930352Y-65679125D01*
X67935660Y-65677703D01*
X67940642Y-65675380D01*
X68134215Y-65585116D01*
X68134220Y-65585113D01*
X68139202Y-65582790D01*
X68323169Y-65453974D01*
X68481974Y-65295169D01*
X68610790Y-65111201D01*
X68613113Y-65106219D01*
X68613116Y-65106214D01*
X68650805Y-65025389D01*
X68697723Y-64972104D01*
X68766000Y-64952643D01*
X68833960Y-64973185D01*
X68879195Y-65025389D01*
X68916884Y-65106214D01*
X68916887Y-65106219D01*
X68919210Y-65111201D01*
X69048026Y-65295169D01*
X69206831Y-65453974D01*
X69390798Y-65582790D01*
X69395780Y-65585113D01*
X69395785Y-65585116D01*
X69589358Y-65675380D01*
X69594340Y-65677703D01*
X69599648Y-65679125D01*
X69599650Y-65679126D01*
X69805956Y-65734405D01*
X69805958Y-65734405D01*
X69811271Y-65735829D01*
X70035000Y-65755403D01*
X70258729Y-65735829D01*
X70264042Y-65734405D01*
X70264044Y-65734405D01*
X70470350Y-65679126D01*
X70470352Y-65679125D01*
X70475660Y-65677703D01*
X70480642Y-65675380D01*
X70674215Y-65585116D01*
X70674220Y-65585113D01*
X70679202Y-65582790D01*
X70863169Y-65453974D01*
X71021974Y-65295169D01*
X71150790Y-65111201D01*
X71153113Y-65106219D01*
X71153116Y-65106214D01*
X71190805Y-65025389D01*
X71237723Y-64972104D01*
X71306000Y-64952643D01*
X71373960Y-64973185D01*
X71419195Y-65025389D01*
X71456884Y-65106214D01*
X71456887Y-65106219D01*
X71459210Y-65111201D01*
X71588026Y-65295169D01*
X71746831Y-65453974D01*
X71930798Y-65582790D01*
X71935780Y-65585113D01*
X71935785Y-65585116D01*
X72129358Y-65675380D01*
X72134340Y-65677703D01*
X72139648Y-65679125D01*
X72139650Y-65679126D01*
X72345956Y-65734405D01*
X72345958Y-65734405D01*
X72351271Y-65735829D01*
X72575000Y-65755403D01*
X72798729Y-65735829D01*
X72804042Y-65734405D01*
X72804044Y-65734405D01*
X73010350Y-65679126D01*
X73010352Y-65679125D01*
X73015660Y-65677703D01*
X73020642Y-65675380D01*
X73214215Y-65585116D01*
X73214220Y-65585113D01*
X73219202Y-65582790D01*
X73403169Y-65453974D01*
X73561974Y-65295169D01*
X73690790Y-65111201D01*
X73693113Y-65106219D01*
X73693116Y-65106214D01*
X73730805Y-65025389D01*
X73777723Y-64972104D01*
X73846000Y-64952643D01*
X73913960Y-64973185D01*
X73959195Y-65025389D01*
X73996884Y-65106214D01*
X73996887Y-65106219D01*
X73999210Y-65111201D01*
X74128026Y-65295169D01*
X74286831Y-65453974D01*
X74470798Y-65582790D01*
X74475780Y-65585113D01*
X74475785Y-65585116D01*
X74669358Y-65675380D01*
X74674340Y-65677703D01*
X74679648Y-65679125D01*
X74679650Y-65679126D01*
X74885956Y-65734405D01*
X74885958Y-65734405D01*
X74891271Y-65735829D01*
X75115000Y-65755403D01*
X75338729Y-65735829D01*
X75344042Y-65734405D01*
X75344044Y-65734405D01*
X75550350Y-65679126D01*
X75550352Y-65679125D01*
X75555660Y-65677703D01*
X75560642Y-65675380D01*
X75754215Y-65585116D01*
X75754220Y-65585113D01*
X75759202Y-65582790D01*
X75943169Y-65453974D01*
X76101974Y-65295169D01*
X76230790Y-65111201D01*
X76233113Y-65106219D01*
X76233116Y-65106214D01*
X76270805Y-65025389D01*
X76317723Y-64972104D01*
X76386000Y-64952643D01*
X76453960Y-64973185D01*
X76499195Y-65025389D01*
X76536884Y-65106214D01*
X76536887Y-65106219D01*
X76539210Y-65111201D01*
X76668026Y-65295169D01*
X76826831Y-65453974D01*
X77010798Y-65582790D01*
X77015780Y-65585113D01*
X77015785Y-65585116D01*
X77209358Y-65675380D01*
X77214340Y-65677703D01*
X77219648Y-65679125D01*
X77219650Y-65679126D01*
X77425956Y-65734405D01*
X77425958Y-65734405D01*
X77431271Y-65735829D01*
X77655000Y-65755403D01*
X77878729Y-65735829D01*
X77884042Y-65734405D01*
X77884044Y-65734405D01*
X78090350Y-65679126D01*
X78090352Y-65679125D01*
X78095660Y-65677703D01*
X78100642Y-65675380D01*
X78181250Y-65637792D01*
X78251442Y-65627131D01*
X78316255Y-65656111D01*
X78355111Y-65715531D01*
X78360500Y-65751987D01*
X78360500Y-67623476D01*
X78340498Y-67691597D01*
X78328142Y-67707779D01*
X78254960Y-67789056D01*
X78159473Y-67954444D01*
X78100458Y-68136072D01*
X78099768Y-68142633D01*
X78099768Y-68142635D01*
X78081186Y-68319435D01*
X78080496Y-68326000D01*
X78081186Y-68332565D01*
X78095894Y-68472500D01*
X78100458Y-68515928D01*
X78159473Y-68697556D01*
X78254960Y-68862944D01*
X78279165Y-68889827D01*
X78309881Y-68953831D01*
X78301118Y-69024285D01*
X78259589Y-69076071D01*
X78128747Y-69171134D01*
X78000960Y-69313056D01*
X77905473Y-69478444D01*
X77846458Y-69660072D01*
X77826496Y-69850000D01*
X77827186Y-69856565D01*
X77841824Y-69995834D01*
X77846458Y-70039928D01*
X77848497Y-70046203D01*
X77848498Y-70046208D01*
X77855437Y-70067562D01*
X77857466Y-70138529D01*
X77820805Y-70199328D01*
X77757093Y-70230654D01*
X77735605Y-70232500D01*
X76908200Y-70232500D01*
X76840079Y-70212498D01*
X76820853Y-70196157D01*
X76820580Y-70196460D01*
X76815668Y-70192037D01*
X76811253Y-70187134D01*
X76656752Y-70074882D01*
X76650724Y-70072198D01*
X76650722Y-70072197D01*
X76488319Y-69999891D01*
X76488318Y-69999891D01*
X76482288Y-69997206D01*
X76388888Y-69977353D01*
X76301944Y-69958872D01*
X76301939Y-69958872D01*
X76295487Y-69957500D01*
X76104513Y-69957500D01*
X76098061Y-69958872D01*
X76098056Y-69958872D01*
X76011112Y-69977353D01*
X75917712Y-69997206D01*
X75911682Y-69999891D01*
X75911681Y-69999891D01*
X75749278Y-70072197D01*
X75749276Y-70072198D01*
X75743248Y-70074882D01*
X75588747Y-70187134D01*
X75460960Y-70329056D01*
X75365473Y-70494444D01*
X75306458Y-70676072D01*
X75305768Y-70682633D01*
X75305768Y-70682635D01*
X75289839Y-70834197D01*
X75286496Y-70866000D01*
X75286871Y-70869571D01*
X75267184Y-70936621D01*
X75213528Y-70983114D01*
X75161186Y-70994500D01*
X73606200Y-70994500D01*
X73538079Y-70974498D01*
X73518853Y-70958157D01*
X73518580Y-70958460D01*
X73513668Y-70954037D01*
X73509253Y-70949134D01*
X73398270Y-70868500D01*
X73360094Y-70840763D01*
X73360093Y-70840762D01*
X73354752Y-70836882D01*
X73348724Y-70834198D01*
X73348722Y-70834197D01*
X73186319Y-70761891D01*
X73186318Y-70761891D01*
X73180288Y-70759206D01*
X73086888Y-70739353D01*
X72999944Y-70720872D01*
X72999939Y-70720872D01*
X72993487Y-70719500D01*
X72802513Y-70719500D01*
X72796061Y-70720872D01*
X72796056Y-70720872D01*
X72709112Y-70739353D01*
X72615712Y-70759206D01*
X72609682Y-70761891D01*
X72609681Y-70761891D01*
X72447278Y-70834197D01*
X72447276Y-70834198D01*
X72441248Y-70836882D01*
X72435907Y-70840762D01*
X72435906Y-70840763D01*
X72401171Y-70866000D01*
X72286747Y-70949134D01*
X72282326Y-70954044D01*
X72282325Y-70954045D01*
X72248492Y-70991621D01*
X72158960Y-71091056D01*
X72063473Y-71256444D01*
X72004458Y-71438072D01*
X72003768Y-71444633D01*
X72003768Y-71444635D01*
X71998674Y-71493101D01*
X71971660Y-71558758D01*
X71913438Y-71599387D01*
X71842493Y-71602090D01*
X71822119Y-71595038D01*
X71656288Y-71521206D01*
X71562887Y-71501353D01*
X71475944Y-71482872D01*
X71475939Y-71482872D01*
X71469487Y-71481500D01*
X71278513Y-71481500D01*
X71272061Y-71482872D01*
X71272056Y-71482872D01*
X71185113Y-71501353D01*
X71091712Y-71521206D01*
X71085682Y-71523891D01*
X71085681Y-71523891D01*
X70923278Y-71596197D01*
X70923276Y-71596198D01*
X70917248Y-71598882D01*
X70762747Y-71711134D01*
X70758326Y-71716044D01*
X70758325Y-71716045D01*
X70724492Y-71753621D01*
X70634960Y-71853056D01*
X70539473Y-72018444D01*
X70480458Y-72200072D01*
X70479768Y-72206633D01*
X70479768Y-72206635D01*
X70474674Y-72255101D01*
X70447660Y-72320758D01*
X70389438Y-72361387D01*
X70318493Y-72364090D01*
X70298119Y-72357038D01*
X70132288Y-72283206D01*
X70038887Y-72263353D01*
X69951944Y-72244872D01*
X69951939Y-72244872D01*
X69945487Y-72243500D01*
X69754513Y-72243500D01*
X69748061Y-72244872D01*
X69748056Y-72244872D01*
X69661113Y-72263353D01*
X69567712Y-72283206D01*
X69561682Y-72285891D01*
X69561681Y-72285891D01*
X69399278Y-72358197D01*
X69399276Y-72358198D01*
X69393248Y-72360882D01*
X69238747Y-72473134D01*
X69110960Y-72615056D01*
X69015473Y-72780444D01*
X68956458Y-72962072D01*
X68936496Y-73152000D01*
X68956458Y-73341928D01*
X69015473Y-73523556D01*
X69110960Y-73688944D01*
X69238747Y-73830866D01*
X69393248Y-73943118D01*
X69399276Y-73945802D01*
X69399278Y-73945803D01*
X69561681Y-74018109D01*
X69567712Y-74020794D01*
X69661113Y-74040647D01*
X69748056Y-74059128D01*
X69748061Y-74059128D01*
X69754513Y-74060500D01*
X69945487Y-74060500D01*
X69951939Y-74059128D01*
X69951944Y-74059128D01*
X70038887Y-74040647D01*
X70132288Y-74020794D01*
X70138319Y-74018109D01*
X70300722Y-73945803D01*
X70300724Y-73945802D01*
X70306752Y-73943118D01*
X70461253Y-73830866D01*
X70465668Y-73825963D01*
X70470580Y-73821540D01*
X70471705Y-73822789D01*
X70525014Y-73789949D01*
X70558200Y-73785500D01*
X94541800Y-73785500D01*
X94609921Y-73805502D01*
X94629147Y-73821843D01*
X94629420Y-73821540D01*
X94634332Y-73825963D01*
X94638747Y-73830866D01*
X94793248Y-73943118D01*
X94799276Y-73945802D01*
X94799278Y-73945803D01*
X94961681Y-74018109D01*
X94967712Y-74020794D01*
X95061113Y-74040647D01*
X95148056Y-74059128D01*
X95148061Y-74059128D01*
X95154513Y-74060500D01*
X95345487Y-74060500D01*
X95351939Y-74059128D01*
X95351944Y-74059128D01*
X95438887Y-74040647D01*
X95532288Y-74020794D01*
X95538319Y-74018109D01*
X95700722Y-73945803D01*
X95700724Y-73945802D01*
X95706752Y-73943118D01*
X95861253Y-73830866D01*
X95989040Y-73688944D01*
X96084527Y-73523556D01*
X96143542Y-73341928D01*
X96163504Y-73152000D01*
X96143542Y-72962072D01*
X96084527Y-72780444D01*
X95989040Y-72615056D01*
X95861253Y-72473134D01*
X95706752Y-72360882D01*
X95700724Y-72358198D01*
X95700722Y-72358197D01*
X95538319Y-72285891D01*
X95538318Y-72285891D01*
X95532288Y-72283206D01*
X95438887Y-72263353D01*
X95351944Y-72244872D01*
X95351939Y-72244872D01*
X95345487Y-72243500D01*
X95154513Y-72243500D01*
X95148061Y-72244872D01*
X95148056Y-72244872D01*
X95061113Y-72263353D01*
X94967712Y-72283206D01*
X94961682Y-72285891D01*
X94961681Y-72285891D01*
X94799278Y-72358197D01*
X94799276Y-72358198D01*
X94793248Y-72360882D01*
X94787907Y-72364762D01*
X94787906Y-72364763D01*
X94677687Y-72444842D01*
X94638747Y-72473134D01*
X94634332Y-72478037D01*
X94629420Y-72482460D01*
X94628295Y-72481211D01*
X94574986Y-72514051D01*
X94541800Y-72518500D01*
X86669594Y-72518500D01*
X86601473Y-72498498D01*
X86554980Y-72444842D01*
X86544876Y-72374568D01*
X86574370Y-72309988D01*
X86580499Y-72303405D01*
X89230111Y-69653794D01*
X92086253Y-66797652D01*
X92094539Y-66790112D01*
X92101018Y-66786000D01*
X92147644Y-66736348D01*
X92150398Y-66733507D01*
X92170135Y-66713770D01*
X92172615Y-66710573D01*
X92180320Y-66701551D01*
X92205159Y-66675100D01*
X92210586Y-66669321D01*
X92214405Y-66662375D01*
X92214407Y-66662372D01*
X92220348Y-66651566D01*
X92231199Y-66635047D01*
X92231559Y-66634583D01*
X92243614Y-66619041D01*
X92246759Y-66611772D01*
X92246762Y-66611768D01*
X92261174Y-66578463D01*
X92266391Y-66567813D01*
X92287695Y-66529060D01*
X92289668Y-66521378D01*
X92292733Y-66509438D01*
X92299137Y-66490734D01*
X92304033Y-66479420D01*
X92304033Y-66479419D01*
X92307181Y-66472145D01*
X92308420Y-66464322D01*
X92308423Y-66464312D01*
X92314099Y-66428476D01*
X92316505Y-66416856D01*
X92325528Y-66381711D01*
X92325528Y-66381710D01*
X92327500Y-66374030D01*
X92327500Y-66353776D01*
X92329051Y-66334065D01*
X92330980Y-66321886D01*
X92332220Y-66314057D01*
X92328059Y-66270038D01*
X92327500Y-66258181D01*
X92327500Y-65807923D01*
X92347502Y-65739802D01*
X92401158Y-65693309D01*
X92471432Y-65683205D01*
X92486111Y-65686216D01*
X92665956Y-65734405D01*
X92665958Y-65734405D01*
X92671271Y-65735829D01*
X92895000Y-65755403D01*
X93118729Y-65735829D01*
X93124042Y-65734405D01*
X93124044Y-65734405D01*
X93330350Y-65679126D01*
X93330352Y-65679125D01*
X93335660Y-65677703D01*
X93340642Y-65675380D01*
X93534215Y-65585116D01*
X93534220Y-65585113D01*
X93539202Y-65582790D01*
X93723169Y-65453974D01*
X93881974Y-65295169D01*
X94010790Y-65111201D01*
X94013113Y-65106219D01*
X94013116Y-65106214D01*
X94050805Y-65025389D01*
X94097723Y-64972104D01*
X94166000Y-64952643D01*
X94233960Y-64973185D01*
X94279195Y-65025389D01*
X94316884Y-65106214D01*
X94316887Y-65106219D01*
X94319210Y-65111201D01*
X94448026Y-65295169D01*
X94606831Y-65453974D01*
X94790798Y-65582790D01*
X94795780Y-65585113D01*
X94795785Y-65585116D01*
X94989358Y-65675380D01*
X94994340Y-65677703D01*
X94999648Y-65679125D01*
X94999650Y-65679126D01*
X95205956Y-65734405D01*
X95205958Y-65734405D01*
X95211271Y-65735829D01*
X95435000Y-65755403D01*
X95658729Y-65735829D01*
X95664042Y-65734405D01*
X95664044Y-65734405D01*
X95870350Y-65679126D01*
X95870352Y-65679125D01*
X95875660Y-65677703D01*
X95880642Y-65675380D01*
X96074215Y-65585116D01*
X96074220Y-65585113D01*
X96079202Y-65582790D01*
X96263169Y-65453974D01*
X96421974Y-65295169D01*
X96550790Y-65111201D01*
X96553113Y-65106219D01*
X96553116Y-65106214D01*
X96590805Y-65025389D01*
X96637723Y-64972104D01*
X96706000Y-64952643D01*
X96773960Y-64973185D01*
X96819195Y-65025389D01*
X96856884Y-65106214D01*
X96856887Y-65106219D01*
X96859210Y-65111201D01*
X96988026Y-65295169D01*
X97146831Y-65453974D01*
X97330798Y-65582790D01*
X97335780Y-65585113D01*
X97335785Y-65585116D01*
X97529358Y-65675380D01*
X97534340Y-65677703D01*
X97539648Y-65679125D01*
X97539650Y-65679126D01*
X97745956Y-65734405D01*
X97745958Y-65734405D01*
X97751271Y-65735829D01*
X97975000Y-65755403D01*
X98198729Y-65735829D01*
X98204042Y-65734405D01*
X98204044Y-65734405D01*
X98410350Y-65679126D01*
X98410352Y-65679125D01*
X98415660Y-65677703D01*
X98420642Y-65675380D01*
X98614215Y-65585116D01*
X98614220Y-65585113D01*
X98619202Y-65582790D01*
X98803169Y-65453974D01*
X98961974Y-65295169D01*
X99090790Y-65111201D01*
X99093113Y-65106219D01*
X99093116Y-65106214D01*
X99130805Y-65025389D01*
X99177723Y-64972104D01*
X99246000Y-64952643D01*
X99313960Y-64973185D01*
X99359195Y-65025389D01*
X99396884Y-65106214D01*
X99396887Y-65106219D01*
X99399210Y-65111201D01*
X99528026Y-65295169D01*
X99686831Y-65453974D01*
X99870798Y-65582790D01*
X99875780Y-65585113D01*
X99875785Y-65585116D01*
X100069358Y-65675380D01*
X100074340Y-65677703D01*
X100079648Y-65679125D01*
X100079650Y-65679126D01*
X100285956Y-65734405D01*
X100285958Y-65734405D01*
X100291271Y-65735829D01*
X100515000Y-65755403D01*
X100738729Y-65735829D01*
X100744042Y-65734405D01*
X100744044Y-65734405D01*
X100950350Y-65679126D01*
X100950352Y-65679125D01*
X100955660Y-65677703D01*
X100960642Y-65675380D01*
X101154215Y-65585116D01*
X101154220Y-65585113D01*
X101159202Y-65582790D01*
X101343169Y-65453974D01*
X101501974Y-65295169D01*
X101630790Y-65111201D01*
X101633113Y-65106219D01*
X101633116Y-65106214D01*
X101670805Y-65025389D01*
X101717723Y-64972104D01*
X101786000Y-64952643D01*
X101853960Y-64973185D01*
X101899195Y-65025389D01*
X101936884Y-65106214D01*
X101936887Y-65106219D01*
X101939210Y-65111201D01*
X102068026Y-65295169D01*
X102226831Y-65453974D01*
X102410798Y-65582790D01*
X102415780Y-65585113D01*
X102415785Y-65585116D01*
X102609358Y-65675380D01*
X102614340Y-65677703D01*
X102619648Y-65679125D01*
X102619650Y-65679126D01*
X102825956Y-65734405D01*
X102825958Y-65734405D01*
X102831271Y-65735829D01*
X103055000Y-65755403D01*
X103278729Y-65735829D01*
X103284042Y-65734405D01*
X103284044Y-65734405D01*
X103490350Y-65679126D01*
X103490352Y-65679125D01*
X103495660Y-65677703D01*
X103500642Y-65675380D01*
X103694215Y-65585116D01*
X103694220Y-65585113D01*
X103699202Y-65582790D01*
X103883169Y-65453974D01*
X104041974Y-65295169D01*
X104170790Y-65111201D01*
X104173113Y-65106219D01*
X104173116Y-65106214D01*
X104210805Y-65025389D01*
X104257723Y-64972104D01*
X104326000Y-64952643D01*
X104393960Y-64973185D01*
X104439195Y-65025389D01*
X104476884Y-65106214D01*
X104476887Y-65106219D01*
X104479210Y-65111201D01*
X104608026Y-65295169D01*
X104766831Y-65453974D01*
X104950798Y-65582790D01*
X104955780Y-65585113D01*
X104955785Y-65585116D01*
X105149358Y-65675380D01*
X105154340Y-65677703D01*
X105159648Y-65679125D01*
X105159650Y-65679126D01*
X105365956Y-65734405D01*
X105365958Y-65734405D01*
X105371271Y-65735829D01*
X105595000Y-65755403D01*
X105818729Y-65735829D01*
X105824042Y-65734405D01*
X105824044Y-65734405D01*
X106030350Y-65679126D01*
X106030352Y-65679125D01*
X106035660Y-65677703D01*
X106040642Y-65675380D01*
X106234215Y-65585116D01*
X106234220Y-65585113D01*
X106239202Y-65582790D01*
X106423169Y-65453974D01*
X106581974Y-65295169D01*
X106710790Y-65111201D01*
X106713113Y-65106219D01*
X106713116Y-65106214D01*
X106750805Y-65025389D01*
X106797723Y-64972104D01*
X106866000Y-64952643D01*
X106933960Y-64973185D01*
X106979195Y-65025389D01*
X107016884Y-65106214D01*
X107016887Y-65106219D01*
X107019210Y-65111201D01*
X107148026Y-65295169D01*
X107306831Y-65453974D01*
X107490798Y-65582790D01*
X107495780Y-65585113D01*
X107495785Y-65585116D01*
X107689358Y-65675380D01*
X107694340Y-65677703D01*
X107699648Y-65679125D01*
X107699650Y-65679126D01*
X107905956Y-65734405D01*
X107905958Y-65734405D01*
X107911271Y-65735829D01*
X108135000Y-65755403D01*
X108358729Y-65735829D01*
X108364042Y-65734405D01*
X108364044Y-65734405D01*
X108570350Y-65679126D01*
X108570352Y-65679125D01*
X108575660Y-65677703D01*
X108580642Y-65675380D01*
X108774215Y-65585116D01*
X108774220Y-65585113D01*
X108779202Y-65582790D01*
X108963169Y-65453974D01*
X109121974Y-65295169D01*
X109250790Y-65111201D01*
X109253113Y-65106219D01*
X109253116Y-65106214D01*
X109290805Y-65025389D01*
X109337723Y-64972104D01*
X109406000Y-64952643D01*
X109473960Y-64973185D01*
X109519195Y-65025389D01*
X109556884Y-65106214D01*
X109556887Y-65106219D01*
X109559210Y-65111201D01*
X109688026Y-65295169D01*
X109846831Y-65453974D01*
X110030798Y-65582790D01*
X110035780Y-65585113D01*
X110035785Y-65585116D01*
X110229358Y-65675380D01*
X110234340Y-65677703D01*
X110239648Y-65679125D01*
X110239650Y-65679126D01*
X110445956Y-65734405D01*
X110445958Y-65734405D01*
X110451271Y-65735829D01*
X110675000Y-65755403D01*
X110898729Y-65735829D01*
X110904042Y-65734405D01*
X110904044Y-65734405D01*
X111110350Y-65679126D01*
X111110352Y-65679125D01*
X111115660Y-65677703D01*
X111120642Y-65675380D01*
X111314215Y-65585116D01*
X111314220Y-65585113D01*
X111319202Y-65582790D01*
X111503169Y-65453974D01*
X111661974Y-65295169D01*
X111790790Y-65111201D01*
X111793113Y-65106219D01*
X111793116Y-65106214D01*
X111830805Y-65025389D01*
X111877723Y-64972104D01*
X111946000Y-64952643D01*
X112013960Y-64973185D01*
X112059195Y-65025389D01*
X112096884Y-65106214D01*
X112096887Y-65106219D01*
X112099210Y-65111201D01*
X112228026Y-65295169D01*
X112386831Y-65453974D01*
X112570798Y-65582790D01*
X112575780Y-65585113D01*
X112575785Y-65585116D01*
X112769358Y-65675380D01*
X112774340Y-65677703D01*
X112779648Y-65679125D01*
X112779650Y-65679126D01*
X112985956Y-65734405D01*
X112985958Y-65734405D01*
X112991271Y-65735829D01*
X113215000Y-65755403D01*
X113438729Y-65735829D01*
X113444042Y-65734405D01*
X113444044Y-65734405D01*
X113650350Y-65679126D01*
X113650352Y-65679125D01*
X113655660Y-65677703D01*
X113660642Y-65675380D01*
X113854215Y-65585116D01*
X113854220Y-65585113D01*
X113859202Y-65582790D01*
X114043169Y-65453974D01*
X114201974Y-65295169D01*
X114330790Y-65111201D01*
X114333113Y-65106219D01*
X114333116Y-65106214D01*
X114370805Y-65025389D01*
X114417723Y-64972104D01*
X114486000Y-64952643D01*
X114553960Y-64973185D01*
X114599195Y-65025389D01*
X114636884Y-65106214D01*
X114636887Y-65106219D01*
X114639210Y-65111201D01*
X114768026Y-65295169D01*
X114926831Y-65453974D01*
X115110798Y-65582790D01*
X115115780Y-65585113D01*
X115115785Y-65585116D01*
X115309358Y-65675380D01*
X115314340Y-65677703D01*
X115319648Y-65679125D01*
X115319650Y-65679126D01*
X115525956Y-65734405D01*
X115525958Y-65734405D01*
X115531271Y-65735829D01*
X115755000Y-65755403D01*
X115978729Y-65735829D01*
X115984042Y-65734405D01*
X115984044Y-65734405D01*
X116190350Y-65679126D01*
X116190352Y-65679125D01*
X116195660Y-65677703D01*
X116200642Y-65675380D01*
X116394215Y-65585116D01*
X116394220Y-65585113D01*
X116399202Y-65582790D01*
X116583169Y-65453974D01*
X116741974Y-65295169D01*
X116870790Y-65111201D01*
X116873113Y-65106219D01*
X116873116Y-65106214D01*
X116910805Y-65025389D01*
X116957723Y-64972104D01*
X117026000Y-64952643D01*
X117093960Y-64973185D01*
X117139195Y-65025389D01*
X117176884Y-65106214D01*
X117176887Y-65106219D01*
X117179210Y-65111201D01*
X117308026Y-65295169D01*
X117466831Y-65453974D01*
X117650798Y-65582790D01*
X117655780Y-65585113D01*
X117655785Y-65585116D01*
X117849358Y-65675380D01*
X117854340Y-65677703D01*
X117859648Y-65679125D01*
X117859650Y-65679126D01*
X118065956Y-65734405D01*
X118065958Y-65734405D01*
X118071271Y-65735829D01*
X118295000Y-65755403D01*
X118518729Y-65735829D01*
X118524042Y-65734405D01*
X118524044Y-65734405D01*
X118730350Y-65679126D01*
X118730352Y-65679125D01*
X118735660Y-65677703D01*
X118740642Y-65675380D01*
X118934215Y-65585116D01*
X118934220Y-65585113D01*
X118939202Y-65582790D01*
X119123169Y-65453974D01*
X119281974Y-65295169D01*
X119410790Y-65111201D01*
X119413113Y-65106219D01*
X119413116Y-65106214D01*
X119450805Y-65025389D01*
X119497723Y-64972104D01*
X119566000Y-64952643D01*
X119633960Y-64973185D01*
X119679195Y-65025389D01*
X119716884Y-65106214D01*
X119716887Y-65106219D01*
X119719210Y-65111201D01*
X119848026Y-65295169D01*
X120006831Y-65453974D01*
X120190798Y-65582790D01*
X120195780Y-65585113D01*
X120195785Y-65585116D01*
X120389358Y-65675380D01*
X120394340Y-65677703D01*
X120399648Y-65679125D01*
X120399650Y-65679126D01*
X120605956Y-65734405D01*
X120605958Y-65734405D01*
X120611271Y-65735829D01*
X120835000Y-65755403D01*
X121058729Y-65735829D01*
X121064042Y-65734405D01*
X121064044Y-65734405D01*
X121270350Y-65679126D01*
X121270352Y-65679125D01*
X121275660Y-65677703D01*
X121280642Y-65675380D01*
X121474215Y-65585116D01*
X121474220Y-65585113D01*
X121479202Y-65582790D01*
X121663169Y-65453974D01*
X121821974Y-65295169D01*
X121950790Y-65111201D01*
X121953113Y-65106219D01*
X121953116Y-65106214D01*
X121990805Y-65025389D01*
X122037723Y-64972104D01*
X122106000Y-64952643D01*
X122173960Y-64973185D01*
X122219195Y-65025389D01*
X122256884Y-65106214D01*
X122256887Y-65106219D01*
X122259210Y-65111201D01*
X122388026Y-65295169D01*
X122546831Y-65453974D01*
X122730798Y-65582790D01*
X122735780Y-65585113D01*
X122735785Y-65585116D01*
X122929358Y-65675380D01*
X122934340Y-65677703D01*
X122939648Y-65679125D01*
X122939650Y-65679126D01*
X123145956Y-65734405D01*
X123145958Y-65734405D01*
X123151271Y-65735829D01*
X123375000Y-65755403D01*
X123598729Y-65735829D01*
X123604042Y-65734405D01*
X123604044Y-65734405D01*
X123810350Y-65679126D01*
X123810352Y-65679125D01*
X123815660Y-65677703D01*
X123820642Y-65675380D01*
X124014215Y-65585116D01*
X124014220Y-65585113D01*
X124019202Y-65582790D01*
X124203169Y-65453974D01*
X124361974Y-65295169D01*
X124490790Y-65111201D01*
X124493113Y-65106219D01*
X124493116Y-65106214D01*
X124530805Y-65025389D01*
X124577723Y-64972104D01*
X124646000Y-64952643D01*
X124713960Y-64973185D01*
X124759195Y-65025389D01*
X124796884Y-65106214D01*
X124796887Y-65106219D01*
X124799210Y-65111201D01*
X124928026Y-65295169D01*
X125086831Y-65453974D01*
X125270798Y-65582790D01*
X125275780Y-65585113D01*
X125275785Y-65585116D01*
X125469358Y-65675380D01*
X125474340Y-65677703D01*
X125479648Y-65679125D01*
X125479650Y-65679126D01*
X125685956Y-65734405D01*
X125685958Y-65734405D01*
X125691271Y-65735829D01*
X125915000Y-65755403D01*
X126138729Y-65735829D01*
X126144042Y-65734405D01*
X126144044Y-65734405D01*
X126350350Y-65679126D01*
X126350352Y-65679125D01*
X126355660Y-65677703D01*
X126360642Y-65675380D01*
X126554215Y-65585116D01*
X126554220Y-65585113D01*
X126559202Y-65582790D01*
X126743169Y-65453974D01*
X126901974Y-65295169D01*
X127030790Y-65111201D01*
X127033113Y-65106219D01*
X127033116Y-65106214D01*
X127070805Y-65025389D01*
X127117723Y-64972104D01*
X127186000Y-64952643D01*
X127253960Y-64973185D01*
X127299195Y-65025389D01*
X127336884Y-65106214D01*
X127336887Y-65106219D01*
X127339210Y-65111201D01*
X127468026Y-65295169D01*
X127626831Y-65453974D01*
X127810798Y-65582790D01*
X127815780Y-65585113D01*
X127815785Y-65585116D01*
X128009358Y-65675380D01*
X128014340Y-65677703D01*
X128019648Y-65679125D01*
X128019650Y-65679126D01*
X128225956Y-65734405D01*
X128225958Y-65734405D01*
X128231271Y-65735829D01*
X128455000Y-65755403D01*
X128678729Y-65735829D01*
X128684042Y-65734405D01*
X128684044Y-65734405D01*
X128890350Y-65679126D01*
X128890352Y-65679125D01*
X128895660Y-65677703D01*
X128900642Y-65675380D01*
X129094215Y-65585116D01*
X129094220Y-65585113D01*
X129099202Y-65582790D01*
X129283169Y-65453974D01*
X129441974Y-65295169D01*
X129570790Y-65111201D01*
X129573113Y-65106219D01*
X129573116Y-65106214D01*
X129610805Y-65025389D01*
X129657723Y-64972104D01*
X129726000Y-64952643D01*
X129793960Y-64973185D01*
X129839195Y-65025389D01*
X129876884Y-65106214D01*
X129876887Y-65106219D01*
X129879210Y-65111201D01*
X130008026Y-65295169D01*
X130166831Y-65453974D01*
X130350798Y-65582790D01*
X130355780Y-65585113D01*
X130355785Y-65585116D01*
X130549358Y-65675380D01*
X130554340Y-65677703D01*
X130559648Y-65679125D01*
X130559650Y-65679126D01*
X130765956Y-65734405D01*
X130765958Y-65734405D01*
X130771271Y-65735829D01*
X130995000Y-65755403D01*
X131218729Y-65735829D01*
X131224042Y-65734405D01*
X131224044Y-65734405D01*
X131430350Y-65679126D01*
X131430352Y-65679125D01*
X131435660Y-65677703D01*
X131440642Y-65675380D01*
X131634215Y-65585116D01*
X131634220Y-65585113D01*
X131639202Y-65582790D01*
X131823169Y-65453974D01*
X131981974Y-65295169D01*
X132110790Y-65111201D01*
X132113113Y-65106219D01*
X132113116Y-65106214D01*
X132150805Y-65025389D01*
X132197723Y-64972104D01*
X132266000Y-64952643D01*
X132333960Y-64973185D01*
X132379195Y-65025389D01*
X132416884Y-65106214D01*
X132416887Y-65106219D01*
X132419210Y-65111201D01*
X132422367Y-65115709D01*
X132422370Y-65115715D01*
X132546235Y-65292613D01*
X132568923Y-65359886D01*
X132551638Y-65428747D01*
X132532117Y-65453978D01*
X131367500Y-66618595D01*
X131305188Y-66652621D01*
X131278405Y-66655500D01*
X131222513Y-66655500D01*
X131216061Y-66656872D01*
X131216056Y-66656872D01*
X131130303Y-66675100D01*
X131035712Y-66695206D01*
X131029682Y-66697891D01*
X131029681Y-66697891D01*
X130867278Y-66770197D01*
X130867276Y-66770198D01*
X130861248Y-66772882D01*
X130855907Y-66776762D01*
X130855906Y-66776763D01*
X130835748Y-66791409D01*
X130706747Y-66885134D01*
X130702326Y-66890044D01*
X130702325Y-66890045D01*
X130602957Y-67000405D01*
X130578960Y-67027056D01*
X130483473Y-67192444D01*
X130424458Y-67374072D01*
X130404496Y-67564000D01*
X130405186Y-67570565D01*
X130415831Y-67671842D01*
X130424458Y-67753928D01*
X130483473Y-67935556D01*
X130578960Y-68100944D01*
X130583378Y-68105851D01*
X130583379Y-68105852D01*
X130631611Y-68159419D01*
X130706747Y-68242866D01*
X130805843Y-68314864D01*
X130830207Y-68332565D01*
X130861248Y-68355118D01*
X130867276Y-68357802D01*
X130867278Y-68357803D01*
X131029681Y-68430109D01*
X131035712Y-68432794D01*
X131129112Y-68452647D01*
X131216056Y-68471128D01*
X131216061Y-68471128D01*
X131222513Y-68472500D01*
X131413487Y-68472500D01*
X131419939Y-68471128D01*
X131419944Y-68471128D01*
X131506888Y-68452647D01*
X131600288Y-68432794D01*
X131606319Y-68430109D01*
X131768722Y-68357803D01*
X131768724Y-68357802D01*
X131774752Y-68355118D01*
X131805794Y-68332565D01*
X131830157Y-68314864D01*
X131929253Y-68242866D01*
X132004389Y-68159419D01*
X132052621Y-68105852D01*
X132052622Y-68105851D01*
X132057040Y-68100944D01*
X132152527Y-67935556D01*
X132211542Y-67753928D01*
X132228907Y-67588706D01*
X132255920Y-67523050D01*
X132265122Y-67512782D01*
X133927247Y-65850657D01*
X133935537Y-65843113D01*
X133942018Y-65839000D01*
X133988659Y-65789332D01*
X133991413Y-65786491D01*
X134011134Y-65766770D01*
X134013612Y-65763575D01*
X134021318Y-65754553D01*
X134046158Y-65728101D01*
X134051586Y-65722321D01*
X134061346Y-65704568D01*
X134072199Y-65688045D01*
X134079753Y-65678306D01*
X134084613Y-65672041D01*
X134090079Y-65659409D01*
X134135489Y-65604837D01*
X134152466Y-65595257D01*
X134174218Y-65585114D01*
X134179202Y-65582790D01*
X134183700Y-65579641D01*
X134183706Y-65579637D01*
X134358658Y-65457133D01*
X134358660Y-65457131D01*
X134363169Y-65453974D01*
X134521974Y-65295169D01*
X134650790Y-65111201D01*
X134653113Y-65106219D01*
X134653116Y-65106214D01*
X134743380Y-64912642D01*
X134743381Y-64912641D01*
X134745703Y-64907660D01*
X134803829Y-64690729D01*
X134823403Y-64467000D01*
X134803829Y-64243271D01*
X134745703Y-64026340D01*
X134690805Y-63908611D01*
X134653116Y-63827786D01*
X134653113Y-63827781D01*
X134650790Y-63822799D01*
X134521974Y-63638831D01*
X134363169Y-63480026D01*
X134179202Y-63351210D01*
X134174220Y-63348887D01*
X134174215Y-63348884D01*
X134093389Y-63311195D01*
X134040104Y-63264278D01*
X134020643Y-63196001D01*
X134041185Y-63128041D01*
X134093389Y-63082805D01*
X134174215Y-63045116D01*
X134174220Y-63045113D01*
X134179202Y-63042790D01*
X134338108Y-62931522D01*
X134358658Y-62917133D01*
X134358660Y-62917131D01*
X134363169Y-62913974D01*
X134521974Y-62755169D01*
X134578828Y-62673974D01*
X134647633Y-62575710D01*
X134647634Y-62575708D01*
X134650790Y-62571201D01*
X134653113Y-62566219D01*
X134653116Y-62566214D01*
X134743380Y-62372642D01*
X134743381Y-62372641D01*
X134745703Y-62367660D01*
X134772301Y-62268396D01*
X134802405Y-62156044D01*
X134802405Y-62156042D01*
X134803829Y-62150729D01*
X134823403Y-61927000D01*
X134803829Y-61703271D01*
X134745703Y-61486340D01*
X134690805Y-61368611D01*
X134653116Y-61287786D01*
X134653113Y-61287781D01*
X134650790Y-61282799D01*
X134621249Y-61240610D01*
X134525133Y-61103342D01*
X134525131Y-61103339D01*
X134521974Y-61098831D01*
X134363169Y-60940026D01*
X134339591Y-60923516D01*
X134282425Y-60883488D01*
X134179202Y-60811210D01*
X134174220Y-60808887D01*
X134174215Y-60808884D01*
X133980642Y-60718620D01*
X133980641Y-60718620D01*
X133975660Y-60716297D01*
X133970352Y-60714875D01*
X133970350Y-60714874D01*
X133764044Y-60659595D01*
X133764042Y-60659595D01*
X133758729Y-60658171D01*
X133535000Y-60638597D01*
X133311271Y-60658171D01*
X133305958Y-60659595D01*
X133305956Y-60659595D01*
X133099650Y-60714874D01*
X133099648Y-60714875D01*
X133094340Y-60716297D01*
X133089359Y-60718619D01*
X133089358Y-60718620D01*
X132895786Y-60808884D01*
X132895781Y-60808887D01*
X132890799Y-60811210D01*
X132886292Y-60814366D01*
X132886290Y-60814367D01*
X132711342Y-60936867D01*
X132711339Y-60936869D01*
X132706831Y-60940026D01*
X132548026Y-61098831D01*
X132544869Y-61103339D01*
X132544867Y-61103342D01*
X132448751Y-61240610D01*
X132419210Y-61282799D01*
X132416887Y-61287781D01*
X132416884Y-61287786D01*
X132379195Y-61368611D01*
X132332277Y-61421896D01*
X132264000Y-61441357D01*
X132196040Y-61420815D01*
X132150805Y-61368611D01*
X132113116Y-61287786D01*
X132113113Y-61287781D01*
X132110790Y-61282799D01*
X132081249Y-61240610D01*
X131985133Y-61103342D01*
X131985131Y-61103339D01*
X131981974Y-61098831D01*
X131823169Y-60940026D01*
X131799591Y-60923516D01*
X131742425Y-60883488D01*
X131639202Y-60811210D01*
X131634220Y-60808887D01*
X131634215Y-60808884D01*
X131440642Y-60718620D01*
X131440641Y-60718620D01*
X131435660Y-60716297D01*
X131430352Y-60714875D01*
X131430350Y-60714874D01*
X131224044Y-60659595D01*
X131224042Y-60659595D01*
X131218729Y-60658171D01*
X130995000Y-60638597D01*
X130771271Y-60658171D01*
X130765958Y-60659595D01*
X130765956Y-60659595D01*
X130559650Y-60714874D01*
X130559648Y-60714875D01*
X130554340Y-60716297D01*
X130549359Y-60718619D01*
X130549358Y-60718620D01*
X130355786Y-60808884D01*
X130355781Y-60808887D01*
X130350799Y-60811210D01*
X130346292Y-60814366D01*
X130346290Y-60814367D01*
X130171342Y-60936867D01*
X130171339Y-60936869D01*
X130166831Y-60940026D01*
X130008026Y-61098831D01*
X130004869Y-61103339D01*
X130004867Y-61103342D01*
X129908751Y-61240610D01*
X129879210Y-61282799D01*
X129876887Y-61287781D01*
X129876884Y-61287786D01*
X129839195Y-61368611D01*
X129792277Y-61421896D01*
X129724000Y-61441357D01*
X129656040Y-61420815D01*
X129610805Y-61368611D01*
X129573116Y-61287786D01*
X129573113Y-61287781D01*
X129570790Y-61282799D01*
X129541249Y-61240610D01*
X129445133Y-61103342D01*
X129445131Y-61103339D01*
X129441974Y-61098831D01*
X129283169Y-60940026D01*
X129259591Y-60923516D01*
X129142229Y-60841338D01*
X129097901Y-60785881D01*
X129088500Y-60738125D01*
X129088500Y-60720132D01*
X129108502Y-60652011D01*
X129130080Y-60626625D01*
X129135253Y-60622866D01*
X129253120Y-60491962D01*
X129258621Y-60485852D01*
X129258622Y-60485851D01*
X129263040Y-60480944D01*
X129358527Y-60315556D01*
X129417542Y-60133928D01*
X129437504Y-59944000D01*
X129417542Y-59754072D01*
X129358527Y-59572444D01*
X129263040Y-59407056D01*
X129213576Y-59352120D01*
X129139675Y-59270045D01*
X129139674Y-59270044D01*
X129135253Y-59265134D01*
X128980752Y-59152882D01*
X128974724Y-59150198D01*
X128974722Y-59150197D01*
X128812319Y-59077891D01*
X128812318Y-59077891D01*
X128806288Y-59075206D01*
X128712888Y-59055353D01*
X128625944Y-59036872D01*
X128625939Y-59036872D01*
X128619487Y-59035500D01*
X128428513Y-59035500D01*
X128422061Y-59036872D01*
X128422056Y-59036872D01*
X128335112Y-59055353D01*
X128241712Y-59075206D01*
X128235682Y-59077891D01*
X128235681Y-59077891D01*
X128073278Y-59150197D01*
X128073276Y-59150198D01*
X128067248Y-59152882D01*
X127912747Y-59265134D01*
X127908326Y-59270044D01*
X127908325Y-59270045D01*
X127834425Y-59352120D01*
X127784960Y-59407056D01*
X127689473Y-59572444D01*
X127630458Y-59754072D01*
X127610496Y-59944000D01*
X127630458Y-60133928D01*
X127689473Y-60315556D01*
X127784960Y-60480944D01*
X127789379Y-60485852D01*
X127793259Y-60491192D01*
X127792199Y-60491962D01*
X127819854Y-60549590D01*
X127821500Y-60569892D01*
X127821500Y-60738126D01*
X127801498Y-60806247D01*
X127767772Y-60841338D01*
X127735907Y-60863650D01*
X127631342Y-60936867D01*
X127631339Y-60936869D01*
X127626831Y-60940026D01*
X127468026Y-61098831D01*
X127464869Y-61103339D01*
X127464867Y-61103342D01*
X127368751Y-61240610D01*
X127339210Y-61282799D01*
X127336887Y-61287781D01*
X127336884Y-61287786D01*
X127299195Y-61368611D01*
X127252277Y-61421896D01*
X127184000Y-61441357D01*
X127116040Y-61420815D01*
X127070805Y-61368611D01*
X127033116Y-61287786D01*
X127033113Y-61287781D01*
X127030790Y-61282799D01*
X127001249Y-61240610D01*
X126905133Y-61103342D01*
X126905131Y-61103339D01*
X126901974Y-61098831D01*
X126743169Y-60940026D01*
X126719591Y-60923516D01*
X126662425Y-60883488D01*
X126559202Y-60811210D01*
X126554220Y-60808887D01*
X126554215Y-60808884D01*
X126360642Y-60718620D01*
X126360641Y-60718620D01*
X126355660Y-60716297D01*
X126350352Y-60714875D01*
X126350350Y-60714874D01*
X126144044Y-60659595D01*
X126144042Y-60659595D01*
X126138729Y-60658171D01*
X125915000Y-60638597D01*
X125691271Y-60658171D01*
X125685958Y-60659595D01*
X125685956Y-60659595D01*
X125479650Y-60714874D01*
X125479648Y-60714875D01*
X125474340Y-60716297D01*
X125469359Y-60718619D01*
X125469358Y-60718620D01*
X125275786Y-60808884D01*
X125275781Y-60808887D01*
X125270799Y-60811210D01*
X125266292Y-60814366D01*
X125266290Y-60814367D01*
X125091342Y-60936867D01*
X125091339Y-60936869D01*
X125086831Y-60940026D01*
X124928026Y-61098831D01*
X124924869Y-61103339D01*
X124924867Y-61103342D01*
X124828751Y-61240610D01*
X124799210Y-61282799D01*
X124796887Y-61287781D01*
X124796884Y-61287786D01*
X124759195Y-61368611D01*
X124712277Y-61421896D01*
X124644000Y-61441357D01*
X124576040Y-61420815D01*
X124530805Y-61368611D01*
X124493116Y-61287786D01*
X124493113Y-61287781D01*
X124490790Y-61282799D01*
X124461249Y-61240610D01*
X124365133Y-61103342D01*
X124365131Y-61103339D01*
X124361974Y-61098831D01*
X124203169Y-60940026D01*
X124179591Y-60923516D01*
X124122425Y-60883488D01*
X124019202Y-60811210D01*
X124014220Y-60808887D01*
X124014215Y-60808884D01*
X123820642Y-60718620D01*
X123820641Y-60718620D01*
X123815660Y-60716297D01*
X123810352Y-60714875D01*
X123810350Y-60714874D01*
X123604044Y-60659595D01*
X123604042Y-60659595D01*
X123598729Y-60658171D01*
X123375000Y-60638597D01*
X123151271Y-60658171D01*
X123145958Y-60659595D01*
X123145956Y-60659595D01*
X122939650Y-60714874D01*
X122939648Y-60714875D01*
X122934340Y-60716297D01*
X122929359Y-60718619D01*
X122929358Y-60718620D01*
X122735786Y-60808884D01*
X122735781Y-60808887D01*
X122730799Y-60811210D01*
X122726292Y-60814366D01*
X122726290Y-60814367D01*
X122551342Y-60936867D01*
X122551339Y-60936869D01*
X122546831Y-60940026D01*
X122388026Y-61098831D01*
X122384869Y-61103339D01*
X122384867Y-61103342D01*
X122288751Y-61240610D01*
X122259210Y-61282799D01*
X122256887Y-61287781D01*
X122256884Y-61287786D01*
X122219195Y-61368611D01*
X122172277Y-61421896D01*
X122104000Y-61441357D01*
X122036040Y-61420815D01*
X121990805Y-61368611D01*
X121953116Y-61287786D01*
X121953113Y-61287781D01*
X121950790Y-61282799D01*
X121921249Y-61240610D01*
X121825133Y-61103342D01*
X121825131Y-61103339D01*
X121821974Y-61098831D01*
X121663169Y-60940026D01*
X121639591Y-60923516D01*
X121582425Y-60883488D01*
X121479202Y-60811210D01*
X121474220Y-60808887D01*
X121474215Y-60808884D01*
X121280642Y-60718620D01*
X121280641Y-60718620D01*
X121275660Y-60716297D01*
X121270352Y-60714875D01*
X121270350Y-60714874D01*
X121064044Y-60659595D01*
X121064042Y-60659595D01*
X121058729Y-60658171D01*
X120835000Y-60638597D01*
X120611271Y-60658171D01*
X120605958Y-60659595D01*
X120605956Y-60659595D01*
X120399650Y-60714874D01*
X120399648Y-60714875D01*
X120394340Y-60716297D01*
X120389359Y-60718619D01*
X120389358Y-60718620D01*
X120195786Y-60808884D01*
X120195781Y-60808887D01*
X120190799Y-60811210D01*
X120186292Y-60814366D01*
X120186290Y-60814367D01*
X120011342Y-60936867D01*
X120011339Y-60936869D01*
X120006831Y-60940026D01*
X119848026Y-61098831D01*
X119844869Y-61103339D01*
X119844867Y-61103342D01*
X119748751Y-61240610D01*
X119719210Y-61282799D01*
X119716887Y-61287781D01*
X119716884Y-61287786D01*
X119679195Y-61368611D01*
X119632277Y-61421896D01*
X119564000Y-61441357D01*
X119496040Y-61420815D01*
X119450805Y-61368611D01*
X119413116Y-61287786D01*
X119413113Y-61287781D01*
X119410790Y-61282799D01*
X119381249Y-61240610D01*
X119285133Y-61103342D01*
X119285131Y-61103339D01*
X119281974Y-61098831D01*
X119123169Y-60940026D01*
X119099591Y-60923516D01*
X119042425Y-60883488D01*
X118939202Y-60811210D01*
X118934220Y-60808887D01*
X118934215Y-60808884D01*
X118740642Y-60718620D01*
X118740641Y-60718620D01*
X118735660Y-60716297D01*
X118730352Y-60714875D01*
X118730350Y-60714874D01*
X118524044Y-60659595D01*
X118524042Y-60659595D01*
X118518729Y-60658171D01*
X118295000Y-60638597D01*
X118071271Y-60658171D01*
X118065958Y-60659595D01*
X118065956Y-60659595D01*
X117859650Y-60714874D01*
X117859648Y-60714875D01*
X117854340Y-60716297D01*
X117849359Y-60718619D01*
X117849358Y-60718620D01*
X117655786Y-60808884D01*
X117655781Y-60808887D01*
X117650799Y-60811210D01*
X117646292Y-60814366D01*
X117646290Y-60814367D01*
X117471342Y-60936867D01*
X117471339Y-60936869D01*
X117466831Y-60940026D01*
X117308026Y-61098831D01*
X117304869Y-61103339D01*
X117304867Y-61103342D01*
X117208751Y-61240610D01*
X117179210Y-61282799D01*
X117176887Y-61287781D01*
X117176884Y-61287786D01*
X117139195Y-61368611D01*
X117092277Y-61421896D01*
X117024000Y-61441357D01*
X116956040Y-61420815D01*
X116910805Y-61368611D01*
X116873116Y-61287786D01*
X116873113Y-61287781D01*
X116870790Y-61282799D01*
X116841249Y-61240610D01*
X116745133Y-61103342D01*
X116745131Y-61103339D01*
X116741974Y-61098831D01*
X116583169Y-60940026D01*
X116559591Y-60923516D01*
X116502425Y-60883488D01*
X116399202Y-60811210D01*
X116394220Y-60808887D01*
X116394215Y-60808884D01*
X116200642Y-60718620D01*
X116200641Y-60718620D01*
X116195660Y-60716297D01*
X116190352Y-60714875D01*
X116190350Y-60714874D01*
X115984044Y-60659595D01*
X115984042Y-60659595D01*
X115978729Y-60658171D01*
X115755000Y-60638597D01*
X115531271Y-60658171D01*
X115525958Y-60659595D01*
X115525956Y-60659595D01*
X115319650Y-60714874D01*
X115319648Y-60714875D01*
X115314340Y-60716297D01*
X115309359Y-60718619D01*
X115309358Y-60718620D01*
X115115786Y-60808884D01*
X115115781Y-60808887D01*
X115110799Y-60811210D01*
X115106292Y-60814366D01*
X115106290Y-60814367D01*
X114931342Y-60936867D01*
X114931339Y-60936869D01*
X114926831Y-60940026D01*
X114768026Y-61098831D01*
X114764869Y-61103339D01*
X114764867Y-61103342D01*
X114668751Y-61240610D01*
X114639210Y-61282799D01*
X114636887Y-61287781D01*
X114636884Y-61287786D01*
X114599195Y-61368611D01*
X114552277Y-61421896D01*
X114484000Y-61441357D01*
X114416040Y-61420815D01*
X114370805Y-61368611D01*
X114333116Y-61287786D01*
X114333113Y-61287781D01*
X114330790Y-61282799D01*
X114301249Y-61240610D01*
X114205133Y-61103342D01*
X114205131Y-61103339D01*
X114201974Y-61098831D01*
X114043169Y-60940026D01*
X114019591Y-60923516D01*
X113962425Y-60883488D01*
X113859202Y-60811210D01*
X113854220Y-60808887D01*
X113854215Y-60808884D01*
X113660642Y-60718620D01*
X113660641Y-60718620D01*
X113655660Y-60716297D01*
X113650352Y-60714875D01*
X113650350Y-60714874D01*
X113444044Y-60659595D01*
X113444042Y-60659595D01*
X113438729Y-60658171D01*
X113215000Y-60638597D01*
X112991271Y-60658171D01*
X112985958Y-60659595D01*
X112985956Y-60659595D01*
X112779650Y-60714874D01*
X112779648Y-60714875D01*
X112774340Y-60716297D01*
X112769359Y-60718619D01*
X112769358Y-60718620D01*
X112575786Y-60808884D01*
X112575781Y-60808887D01*
X112570799Y-60811210D01*
X112566292Y-60814366D01*
X112566290Y-60814367D01*
X112391342Y-60936867D01*
X112391339Y-60936869D01*
X112386831Y-60940026D01*
X112228026Y-61098831D01*
X112224869Y-61103339D01*
X112224867Y-61103342D01*
X112128751Y-61240610D01*
X112099210Y-61282799D01*
X112096887Y-61287781D01*
X112096884Y-61287786D01*
X112059195Y-61368611D01*
X112012277Y-61421896D01*
X111944000Y-61441357D01*
X111876040Y-61420815D01*
X111830805Y-61368611D01*
X111793116Y-61287786D01*
X111793113Y-61287781D01*
X111790790Y-61282799D01*
X111761249Y-61240610D01*
X111665133Y-61103342D01*
X111665131Y-61103339D01*
X111661974Y-61098831D01*
X111503169Y-60940026D01*
X111479591Y-60923516D01*
X111422425Y-60883488D01*
X111319202Y-60811210D01*
X111314220Y-60808887D01*
X111314215Y-60808884D01*
X111120642Y-60718620D01*
X111120641Y-60718620D01*
X111115660Y-60716297D01*
X111110352Y-60714875D01*
X111110350Y-60714874D01*
X110904044Y-60659595D01*
X110904042Y-60659595D01*
X110898729Y-60658171D01*
X110675000Y-60638597D01*
X110451271Y-60658171D01*
X110445958Y-60659595D01*
X110445956Y-60659595D01*
X110239650Y-60714874D01*
X110239648Y-60714875D01*
X110234340Y-60716297D01*
X110229359Y-60718619D01*
X110229358Y-60718620D01*
X110035786Y-60808884D01*
X110035781Y-60808887D01*
X110030799Y-60811210D01*
X110026292Y-60814366D01*
X110026290Y-60814367D01*
X109851342Y-60936867D01*
X109851339Y-60936869D01*
X109846831Y-60940026D01*
X109688026Y-61098831D01*
X109684869Y-61103339D01*
X109684867Y-61103342D01*
X109588751Y-61240610D01*
X109559210Y-61282799D01*
X109556887Y-61287781D01*
X109556884Y-61287786D01*
X109519195Y-61368611D01*
X109472277Y-61421896D01*
X109404000Y-61441357D01*
X109336040Y-61420815D01*
X109290805Y-61368611D01*
X109253116Y-61287786D01*
X109253113Y-61287781D01*
X109250790Y-61282799D01*
X109221249Y-61240610D01*
X109125133Y-61103342D01*
X109125131Y-61103339D01*
X109121974Y-61098831D01*
X108963169Y-60940026D01*
X108939591Y-60923516D01*
X108882425Y-60883488D01*
X108779202Y-60811210D01*
X108774220Y-60808887D01*
X108774215Y-60808884D01*
X108580642Y-60718620D01*
X108580641Y-60718620D01*
X108575660Y-60716297D01*
X108570352Y-60714875D01*
X108570350Y-60714874D01*
X108364044Y-60659595D01*
X108364042Y-60659595D01*
X108358729Y-60658171D01*
X108135000Y-60638597D01*
X107911271Y-60658171D01*
X107905958Y-60659595D01*
X107905956Y-60659595D01*
X107699650Y-60714874D01*
X107699648Y-60714875D01*
X107694340Y-60716297D01*
X107689359Y-60718619D01*
X107689358Y-60718620D01*
X107495786Y-60808884D01*
X107495781Y-60808887D01*
X107490799Y-60811210D01*
X107486292Y-60814366D01*
X107486290Y-60814367D01*
X107311342Y-60936867D01*
X107311339Y-60936869D01*
X107306831Y-60940026D01*
X107148026Y-61098831D01*
X107144869Y-61103339D01*
X107144867Y-61103342D01*
X107048751Y-61240610D01*
X107019210Y-61282799D01*
X107016887Y-61287781D01*
X107016884Y-61287786D01*
X106979195Y-61368611D01*
X106932277Y-61421896D01*
X106864000Y-61441357D01*
X106796040Y-61420815D01*
X106750805Y-61368611D01*
X106713116Y-61287786D01*
X106713113Y-61287781D01*
X106710790Y-61282799D01*
X106681249Y-61240610D01*
X106585133Y-61103342D01*
X106585131Y-61103339D01*
X106581974Y-61098831D01*
X106423169Y-60940026D01*
X106399591Y-60923516D01*
X106342425Y-60883488D01*
X106239202Y-60811210D01*
X106234220Y-60808887D01*
X106234215Y-60808884D01*
X106040642Y-60718620D01*
X106040641Y-60718620D01*
X106035660Y-60716297D01*
X106030352Y-60714875D01*
X106030350Y-60714874D01*
X105824044Y-60659595D01*
X105824042Y-60659595D01*
X105818729Y-60658171D01*
X105595000Y-60638597D01*
X105371271Y-60658171D01*
X105365958Y-60659595D01*
X105365956Y-60659595D01*
X105159650Y-60714874D01*
X105159648Y-60714875D01*
X105154340Y-60716297D01*
X105149359Y-60718619D01*
X105149358Y-60718620D01*
X104955786Y-60808884D01*
X104955781Y-60808887D01*
X104950799Y-60811210D01*
X104946292Y-60814366D01*
X104946290Y-60814367D01*
X104771342Y-60936867D01*
X104771339Y-60936869D01*
X104766831Y-60940026D01*
X104608026Y-61098831D01*
X104604869Y-61103339D01*
X104604867Y-61103342D01*
X104508751Y-61240610D01*
X104479210Y-61282799D01*
X104476887Y-61287781D01*
X104476884Y-61287786D01*
X104439195Y-61368611D01*
X104392277Y-61421896D01*
X104324000Y-61441357D01*
X104256040Y-61420815D01*
X104210805Y-61368611D01*
X104173116Y-61287786D01*
X104173113Y-61287781D01*
X104170790Y-61282799D01*
X104141249Y-61240610D01*
X104045133Y-61103342D01*
X104045131Y-61103339D01*
X104041974Y-61098831D01*
X103883169Y-60940026D01*
X103859591Y-60923516D01*
X103802425Y-60883488D01*
X103699202Y-60811210D01*
X103694220Y-60808887D01*
X103694215Y-60808884D01*
X103500642Y-60718620D01*
X103500641Y-60718620D01*
X103495660Y-60716297D01*
X103490352Y-60714875D01*
X103490350Y-60714874D01*
X103284044Y-60659595D01*
X103284042Y-60659595D01*
X103278729Y-60658171D01*
X103055000Y-60638597D01*
X102831271Y-60658171D01*
X102825958Y-60659595D01*
X102825956Y-60659595D01*
X102619650Y-60714874D01*
X102619648Y-60714875D01*
X102614340Y-60716297D01*
X102609359Y-60718619D01*
X102609358Y-60718620D01*
X102415786Y-60808884D01*
X102415781Y-60808887D01*
X102410799Y-60811210D01*
X102406292Y-60814366D01*
X102406290Y-60814367D01*
X102231342Y-60936867D01*
X102231339Y-60936869D01*
X102226831Y-60940026D01*
X102068026Y-61098831D01*
X102064869Y-61103339D01*
X102064867Y-61103342D01*
X101968751Y-61240610D01*
X101939210Y-61282799D01*
X101936887Y-61287781D01*
X101936884Y-61287786D01*
X101899195Y-61368611D01*
X101852277Y-61421896D01*
X101784000Y-61441357D01*
X101716040Y-61420815D01*
X101670805Y-61368611D01*
X101633116Y-61287786D01*
X101633113Y-61287781D01*
X101630790Y-61282799D01*
X101601249Y-61240610D01*
X101505133Y-61103342D01*
X101505131Y-61103339D01*
X101501974Y-61098831D01*
X101343169Y-60940026D01*
X101319591Y-60923516D01*
X101262425Y-60883488D01*
X101159202Y-60811210D01*
X101154220Y-60808887D01*
X101154215Y-60808884D01*
X100960642Y-60718620D01*
X100960641Y-60718620D01*
X100955660Y-60716297D01*
X100950352Y-60714875D01*
X100950350Y-60714874D01*
X100744044Y-60659595D01*
X100744042Y-60659595D01*
X100738729Y-60658171D01*
X100515000Y-60638597D01*
X100291271Y-60658171D01*
X100285958Y-60659595D01*
X100285956Y-60659595D01*
X100079650Y-60714874D01*
X100079648Y-60714875D01*
X100074340Y-60716297D01*
X100069359Y-60718619D01*
X100069358Y-60718620D01*
X99875786Y-60808884D01*
X99875781Y-60808887D01*
X99870799Y-60811210D01*
X99866292Y-60814366D01*
X99866290Y-60814367D01*
X99691342Y-60936867D01*
X99691339Y-60936869D01*
X99686831Y-60940026D01*
X99528026Y-61098831D01*
X99524869Y-61103339D01*
X99524867Y-61103342D01*
X99428751Y-61240610D01*
X99399210Y-61282799D01*
X99396887Y-61287781D01*
X99396884Y-61287786D01*
X99359195Y-61368611D01*
X99312277Y-61421896D01*
X99244000Y-61441357D01*
X99176040Y-61420815D01*
X99130805Y-61368611D01*
X99093116Y-61287786D01*
X99093113Y-61287781D01*
X99090790Y-61282799D01*
X99061249Y-61240610D01*
X98965133Y-61103342D01*
X98965131Y-61103339D01*
X98961974Y-61098831D01*
X98803169Y-60940026D01*
X98779591Y-60923516D01*
X98722425Y-60883488D01*
X98619202Y-60811210D01*
X98614220Y-60808887D01*
X98614215Y-60808884D01*
X98420642Y-60718620D01*
X98420641Y-60718620D01*
X98415660Y-60716297D01*
X98410352Y-60714875D01*
X98410350Y-60714874D01*
X98204044Y-60659595D01*
X98204042Y-60659595D01*
X98198729Y-60658171D01*
X97975000Y-60638597D01*
X97751271Y-60658171D01*
X97745958Y-60659595D01*
X97745956Y-60659595D01*
X97539650Y-60714874D01*
X97539648Y-60714875D01*
X97534340Y-60716297D01*
X97529359Y-60718619D01*
X97529358Y-60718620D01*
X97335786Y-60808884D01*
X97335781Y-60808887D01*
X97330799Y-60811210D01*
X97326292Y-60814366D01*
X97326290Y-60814367D01*
X97151342Y-60936867D01*
X97151339Y-60936869D01*
X97146831Y-60940026D01*
X96988026Y-61098831D01*
X96984869Y-61103339D01*
X96984867Y-61103342D01*
X96888751Y-61240610D01*
X96859210Y-61282799D01*
X96856887Y-61287781D01*
X96856884Y-61287786D01*
X96819195Y-61368611D01*
X96772277Y-61421896D01*
X96704000Y-61441357D01*
X96636040Y-61420815D01*
X96590805Y-61368611D01*
X96553116Y-61287786D01*
X96553113Y-61287781D01*
X96550790Y-61282799D01*
X96521249Y-61240610D01*
X96425133Y-61103342D01*
X96425131Y-61103339D01*
X96421974Y-61098831D01*
X96263169Y-60940026D01*
X96239591Y-60923516D01*
X96182425Y-60883488D01*
X96079202Y-60811210D01*
X96074220Y-60808887D01*
X96074215Y-60808884D01*
X95880642Y-60718620D01*
X95880641Y-60718620D01*
X95875660Y-60716297D01*
X95870352Y-60714875D01*
X95870350Y-60714874D01*
X95664044Y-60659595D01*
X95664042Y-60659595D01*
X95658729Y-60658171D01*
X95435000Y-60638597D01*
X95211271Y-60658171D01*
X95205958Y-60659595D01*
X95205956Y-60659595D01*
X94999650Y-60714874D01*
X94999648Y-60714875D01*
X94994340Y-60716297D01*
X94989359Y-60718619D01*
X94989358Y-60718620D01*
X94795786Y-60808884D01*
X94795781Y-60808887D01*
X94790799Y-60811210D01*
X94786292Y-60814366D01*
X94786290Y-60814367D01*
X94611342Y-60936867D01*
X94611339Y-60936869D01*
X94606831Y-60940026D01*
X94448026Y-61098831D01*
X94444869Y-61103339D01*
X94444867Y-61103342D01*
X94348751Y-61240610D01*
X94319210Y-61282799D01*
X94316887Y-61287781D01*
X94316884Y-61287786D01*
X94279195Y-61368611D01*
X94232277Y-61421896D01*
X94164000Y-61441357D01*
X94096040Y-61420815D01*
X94050805Y-61368611D01*
X94013116Y-61287786D01*
X94013113Y-61287781D01*
X94010790Y-61282799D01*
X93981249Y-61240610D01*
X93885133Y-61103342D01*
X93885131Y-61103339D01*
X93881974Y-61098831D01*
X93723169Y-60940026D01*
X93699591Y-60923516D01*
X93642425Y-60883488D01*
X93539202Y-60811210D01*
X93534220Y-60808887D01*
X93534215Y-60808884D01*
X93340642Y-60718620D01*
X93340641Y-60718620D01*
X93335660Y-60716297D01*
X93330352Y-60714875D01*
X93330350Y-60714874D01*
X93124044Y-60659595D01*
X93124042Y-60659595D01*
X93118729Y-60658171D01*
X92895000Y-60638597D01*
X92671271Y-60658171D01*
X92665958Y-60659595D01*
X92665956Y-60659595D01*
X92459650Y-60714874D01*
X92459648Y-60714875D01*
X92454340Y-60716297D01*
X92449359Y-60718619D01*
X92449358Y-60718620D01*
X92255786Y-60808884D01*
X92255781Y-60808887D01*
X92250799Y-60811210D01*
X92246292Y-60814366D01*
X92246290Y-60814367D01*
X92071342Y-60936867D01*
X92071339Y-60936869D01*
X92066831Y-60940026D01*
X91908026Y-61098831D01*
X91904869Y-61103339D01*
X91904867Y-61103342D01*
X91808751Y-61240610D01*
X91779210Y-61282799D01*
X91776887Y-61287781D01*
X91776884Y-61287786D01*
X91739195Y-61368611D01*
X91692277Y-61421896D01*
X91624000Y-61441357D01*
X91556040Y-61420815D01*
X91510805Y-61368611D01*
X91473116Y-61287786D01*
X91473113Y-61287781D01*
X91470790Y-61282799D01*
X91441249Y-61240610D01*
X91345133Y-61103342D01*
X91345131Y-61103339D01*
X91341974Y-61098831D01*
X91183169Y-60940026D01*
X91159591Y-60923516D01*
X91102425Y-60883488D01*
X90999202Y-60811210D01*
X90994220Y-60808887D01*
X90994215Y-60808884D01*
X90800642Y-60718620D01*
X90800641Y-60718620D01*
X90795660Y-60716297D01*
X90790352Y-60714875D01*
X90790350Y-60714874D01*
X90584044Y-60659595D01*
X90584042Y-60659595D01*
X90578729Y-60658171D01*
X90355000Y-60638597D01*
X90131271Y-60658171D01*
X90125958Y-60659595D01*
X90125956Y-60659595D01*
X89919650Y-60714874D01*
X89919648Y-60714875D01*
X89914340Y-60716297D01*
X89909359Y-60718619D01*
X89909358Y-60718620D01*
X89715786Y-60808884D01*
X89715781Y-60808887D01*
X89710799Y-60811210D01*
X89706292Y-60814366D01*
X89706290Y-60814367D01*
X89531342Y-60936867D01*
X89531339Y-60936869D01*
X89526831Y-60940026D01*
X89368026Y-61098831D01*
X89364869Y-61103339D01*
X89364867Y-61103342D01*
X89268751Y-61240610D01*
X89239210Y-61282799D01*
X89236887Y-61287781D01*
X89236884Y-61287786D01*
X89199195Y-61368611D01*
X89152277Y-61421896D01*
X89084000Y-61441357D01*
X89016040Y-61420815D01*
X88970805Y-61368611D01*
X88933116Y-61287786D01*
X88933113Y-61287781D01*
X88930790Y-61282799D01*
X88901249Y-61240610D01*
X88805133Y-61103342D01*
X88805131Y-61103339D01*
X88801974Y-61098831D01*
X88643169Y-60940026D01*
X88619591Y-60923516D01*
X88562425Y-60883488D01*
X88459202Y-60811210D01*
X88454220Y-60808887D01*
X88454215Y-60808884D01*
X88260642Y-60718620D01*
X88260641Y-60718620D01*
X88255660Y-60716297D01*
X88250352Y-60714875D01*
X88250350Y-60714874D01*
X88044044Y-60659595D01*
X88044042Y-60659595D01*
X88038729Y-60658171D01*
X87815000Y-60638597D01*
X87591271Y-60658171D01*
X87585958Y-60659595D01*
X87585956Y-60659595D01*
X87379650Y-60714874D01*
X87379648Y-60714875D01*
X87374340Y-60716297D01*
X87369359Y-60718619D01*
X87369358Y-60718620D01*
X87175786Y-60808884D01*
X87175781Y-60808887D01*
X87170799Y-60811210D01*
X87166292Y-60814366D01*
X87166290Y-60814367D01*
X86991342Y-60936867D01*
X86991339Y-60936869D01*
X86986831Y-60940026D01*
X86828026Y-61098831D01*
X86824869Y-61103339D01*
X86824867Y-61103342D01*
X86728751Y-61240610D01*
X86699210Y-61282799D01*
X86696887Y-61287781D01*
X86696884Y-61287786D01*
X86659195Y-61368611D01*
X86612277Y-61421896D01*
X86544000Y-61441357D01*
X86476040Y-61420815D01*
X86430805Y-61368611D01*
X86393116Y-61287786D01*
X86393113Y-61287781D01*
X86390790Y-61282799D01*
X86361249Y-61240610D01*
X86265133Y-61103342D01*
X86265131Y-61103339D01*
X86261974Y-61098831D01*
X86103169Y-60940026D01*
X86079591Y-60923516D01*
X86022425Y-60883488D01*
X85919202Y-60811210D01*
X85914220Y-60808887D01*
X85914215Y-60808884D01*
X85720642Y-60718620D01*
X85720641Y-60718620D01*
X85715660Y-60716297D01*
X85710352Y-60714875D01*
X85710350Y-60714874D01*
X85504044Y-60659595D01*
X85504042Y-60659595D01*
X85498729Y-60658171D01*
X85275000Y-60638597D01*
X85051271Y-60658171D01*
X85045958Y-60659595D01*
X85045956Y-60659595D01*
X84839650Y-60714874D01*
X84839648Y-60714875D01*
X84834340Y-60716297D01*
X84829359Y-60718619D01*
X84829358Y-60718620D01*
X84635786Y-60808884D01*
X84635781Y-60808887D01*
X84630799Y-60811210D01*
X84626292Y-60814366D01*
X84626290Y-60814367D01*
X84451342Y-60936867D01*
X84451339Y-60936869D01*
X84446831Y-60940026D01*
X84288026Y-61098831D01*
X84284869Y-61103339D01*
X84284867Y-61103342D01*
X84188751Y-61240610D01*
X84159210Y-61282799D01*
X84156887Y-61287781D01*
X84156884Y-61287786D01*
X84119195Y-61368611D01*
X84072277Y-61421896D01*
X84004000Y-61441357D01*
X83936040Y-61420815D01*
X83890805Y-61368611D01*
X83853116Y-61287786D01*
X83853113Y-61287781D01*
X83850790Y-61282799D01*
X83821249Y-61240610D01*
X83725133Y-61103342D01*
X83725131Y-61103339D01*
X83721974Y-61098831D01*
X83563169Y-60940026D01*
X83539591Y-60923516D01*
X83482425Y-60883488D01*
X83379202Y-60811210D01*
X83374220Y-60808887D01*
X83374215Y-60808884D01*
X83180642Y-60718620D01*
X83180641Y-60718620D01*
X83175660Y-60716297D01*
X83170352Y-60714875D01*
X83170350Y-60714874D01*
X82964044Y-60659595D01*
X82964042Y-60659595D01*
X82958729Y-60658171D01*
X82735000Y-60638597D01*
X82511271Y-60658171D01*
X82505958Y-60659595D01*
X82505956Y-60659595D01*
X82299650Y-60714874D01*
X82299648Y-60714875D01*
X82294340Y-60716297D01*
X82289359Y-60718619D01*
X82289358Y-60718620D01*
X82095786Y-60808884D01*
X82095781Y-60808887D01*
X82090799Y-60811210D01*
X82086292Y-60814366D01*
X82086290Y-60814367D01*
X81911342Y-60936867D01*
X81911339Y-60936869D01*
X81906831Y-60940026D01*
X81748026Y-61098831D01*
X81744869Y-61103339D01*
X81744867Y-61103342D01*
X81648751Y-61240610D01*
X81619210Y-61282799D01*
X81616887Y-61287781D01*
X81616884Y-61287786D01*
X81579195Y-61368611D01*
X81532277Y-61421896D01*
X81464000Y-61441357D01*
X81396040Y-61420815D01*
X81350805Y-61368611D01*
X81313116Y-61287786D01*
X81313113Y-61287781D01*
X81310790Y-61282799D01*
X81281249Y-61240610D01*
X81185133Y-61103342D01*
X81185131Y-61103339D01*
X81181974Y-61098831D01*
X81023169Y-60940026D01*
X80999591Y-60923516D01*
X80942425Y-60883488D01*
X80839202Y-60811210D01*
X80834220Y-60808887D01*
X80834215Y-60808884D01*
X80640642Y-60718620D01*
X80640641Y-60718620D01*
X80635660Y-60716297D01*
X80630352Y-60714875D01*
X80630350Y-60714874D01*
X80424044Y-60659595D01*
X80424042Y-60659595D01*
X80418729Y-60658171D01*
X80195000Y-60638597D01*
X79971271Y-60658171D01*
X79965958Y-60659595D01*
X79965956Y-60659595D01*
X79759650Y-60714874D01*
X79759648Y-60714875D01*
X79754340Y-60716297D01*
X79749359Y-60718619D01*
X79749358Y-60718620D01*
X79555786Y-60808884D01*
X79555781Y-60808887D01*
X79550799Y-60811210D01*
X79546292Y-60814366D01*
X79546290Y-60814367D01*
X79371342Y-60936867D01*
X79371339Y-60936869D01*
X79366831Y-60940026D01*
X79208026Y-61098831D01*
X79204869Y-61103339D01*
X79204867Y-61103342D01*
X79108751Y-61240610D01*
X79079210Y-61282799D01*
X79076887Y-61287781D01*
X79076884Y-61287786D01*
X79039195Y-61368611D01*
X78992277Y-61421896D01*
X78924000Y-61441357D01*
X78856040Y-61420815D01*
X78810805Y-61368611D01*
X78773116Y-61287786D01*
X78773113Y-61287781D01*
X78770790Y-61282799D01*
X78741249Y-61240610D01*
X78645133Y-61103342D01*
X78645131Y-61103339D01*
X78641974Y-61098831D01*
X78483169Y-60940026D01*
X78459591Y-60923516D01*
X78402425Y-60883488D01*
X78299202Y-60811210D01*
X78294220Y-60808887D01*
X78294215Y-60808884D01*
X78100642Y-60718620D01*
X78100641Y-60718620D01*
X78095660Y-60716297D01*
X78090352Y-60714875D01*
X78090350Y-60714874D01*
X77884044Y-60659595D01*
X77884042Y-60659595D01*
X77878729Y-60658171D01*
X77655000Y-60638597D01*
X77431271Y-60658171D01*
X77425958Y-60659595D01*
X77425956Y-60659595D01*
X77219650Y-60714874D01*
X77219648Y-60714875D01*
X77214340Y-60716297D01*
X77209359Y-60718619D01*
X77209358Y-60718620D01*
X77015786Y-60808884D01*
X77015781Y-60808887D01*
X77010799Y-60811210D01*
X77006292Y-60814366D01*
X77006290Y-60814367D01*
X76831342Y-60936867D01*
X76831339Y-60936869D01*
X76826831Y-60940026D01*
X76668026Y-61098831D01*
X76664869Y-61103339D01*
X76664867Y-61103342D01*
X76568751Y-61240610D01*
X76539210Y-61282799D01*
X76536887Y-61287781D01*
X76536884Y-61287786D01*
X76499195Y-61368611D01*
X76452277Y-61421896D01*
X76384000Y-61441357D01*
X76316040Y-61420815D01*
X76270805Y-61368611D01*
X76233116Y-61287786D01*
X76233113Y-61287781D01*
X76230790Y-61282799D01*
X76201249Y-61240610D01*
X76105133Y-61103342D01*
X76105131Y-61103339D01*
X76101974Y-61098831D01*
X75943169Y-60940026D01*
X75919591Y-60923516D01*
X75862425Y-60883488D01*
X75759202Y-60811210D01*
X75754220Y-60808887D01*
X75754215Y-60808884D01*
X75560642Y-60718620D01*
X75560641Y-60718620D01*
X75555660Y-60716297D01*
X75550352Y-60714875D01*
X75550350Y-60714874D01*
X75344044Y-60659595D01*
X75344042Y-60659595D01*
X75338729Y-60658171D01*
X75115000Y-60638597D01*
X74891271Y-60658171D01*
X74885958Y-60659595D01*
X74885956Y-60659595D01*
X74679650Y-60714874D01*
X74679648Y-60714875D01*
X74674340Y-60716297D01*
X74669359Y-60718619D01*
X74669358Y-60718620D01*
X74475786Y-60808884D01*
X74475781Y-60808887D01*
X74470799Y-60811210D01*
X74466292Y-60814366D01*
X74466290Y-60814367D01*
X74291342Y-60936867D01*
X74291339Y-60936869D01*
X74286831Y-60940026D01*
X74128026Y-61098831D01*
X74124869Y-61103339D01*
X74124867Y-61103342D01*
X74028751Y-61240610D01*
X73999210Y-61282799D01*
X73996887Y-61287781D01*
X73996884Y-61287786D01*
X73959195Y-61368611D01*
X73912277Y-61421896D01*
X73844000Y-61441357D01*
X73776040Y-61420815D01*
X73730805Y-61368611D01*
X73693116Y-61287786D01*
X73693113Y-61287781D01*
X73690790Y-61282799D01*
X73661249Y-61240610D01*
X73565133Y-61103342D01*
X73565131Y-61103339D01*
X73561974Y-61098831D01*
X73403169Y-60940026D01*
X73379591Y-60923516D01*
X73322425Y-60883488D01*
X73219202Y-60811210D01*
X73214220Y-60808887D01*
X73214215Y-60808884D01*
X73020642Y-60718620D01*
X73020641Y-60718620D01*
X73015660Y-60716297D01*
X73010352Y-60714875D01*
X73010350Y-60714874D01*
X72804044Y-60659595D01*
X72804042Y-60659595D01*
X72798729Y-60658171D01*
X72575000Y-60638597D01*
X72351271Y-60658171D01*
X72345958Y-60659595D01*
X72345956Y-60659595D01*
X72139650Y-60714874D01*
X72139648Y-60714875D01*
X72134340Y-60716297D01*
X72129359Y-60718619D01*
X72129358Y-60718620D01*
X71935786Y-60808884D01*
X71935781Y-60808887D01*
X71930799Y-60811210D01*
X71926292Y-60814366D01*
X71926290Y-60814367D01*
X71751342Y-60936867D01*
X71751339Y-60936869D01*
X71746831Y-60940026D01*
X71588026Y-61098831D01*
X71584869Y-61103339D01*
X71584867Y-61103342D01*
X71488751Y-61240610D01*
X71459210Y-61282799D01*
X71456887Y-61287781D01*
X71456884Y-61287786D01*
X71419195Y-61368611D01*
X71372277Y-61421896D01*
X71304000Y-61441357D01*
X71236040Y-61420815D01*
X71190805Y-61368611D01*
X71153116Y-61287786D01*
X71153113Y-61287781D01*
X71150790Y-61282799D01*
X71121249Y-61240610D01*
X71025133Y-61103342D01*
X71025131Y-61103339D01*
X71021974Y-61098831D01*
X70863169Y-60940026D01*
X70839591Y-60923516D01*
X70782425Y-60883488D01*
X70679202Y-60811210D01*
X70674220Y-60808887D01*
X70674215Y-60808884D01*
X70480642Y-60718620D01*
X70480641Y-60718620D01*
X70475660Y-60716297D01*
X70470352Y-60714875D01*
X70470350Y-60714874D01*
X70264044Y-60659595D01*
X70264042Y-60659595D01*
X70258729Y-60658171D01*
X70035000Y-60638597D01*
X69811271Y-60658171D01*
X69805958Y-60659595D01*
X69805956Y-60659595D01*
X69599650Y-60714874D01*
X69599648Y-60714875D01*
X69594340Y-60716297D01*
X69589359Y-60718619D01*
X69589358Y-60718620D01*
X69395786Y-60808884D01*
X69395781Y-60808887D01*
X69390799Y-60811210D01*
X69386292Y-60814366D01*
X69386290Y-60814367D01*
X69211342Y-60936867D01*
X69211339Y-60936869D01*
X69206831Y-60940026D01*
X69048026Y-61098831D01*
X69044869Y-61103339D01*
X69044867Y-61103342D01*
X68948751Y-61240610D01*
X68919210Y-61282799D01*
X68916887Y-61287781D01*
X68916884Y-61287786D01*
X68879195Y-61368611D01*
X68832277Y-61421896D01*
X68764000Y-61441357D01*
X68696040Y-61420815D01*
X68650805Y-61368611D01*
X68613116Y-61287786D01*
X68613113Y-61287781D01*
X68610790Y-61282799D01*
X68581249Y-61240610D01*
X68485133Y-61103342D01*
X68485131Y-61103339D01*
X68481974Y-61098831D01*
X68323169Y-60940026D01*
X68299591Y-60923516D01*
X68242425Y-60883488D01*
X68139202Y-60811210D01*
X68134220Y-60808887D01*
X68134215Y-60808884D01*
X67940642Y-60718620D01*
X67940641Y-60718620D01*
X67935660Y-60716297D01*
X67930352Y-60714875D01*
X67930350Y-60714874D01*
X67724044Y-60659595D01*
X67724042Y-60659595D01*
X67718729Y-60658171D01*
X67495000Y-60638597D01*
X67271271Y-60658171D01*
X67265958Y-60659595D01*
X67265956Y-60659595D01*
X67059650Y-60714874D01*
X67059648Y-60714875D01*
X67054340Y-60716297D01*
X67049359Y-60718619D01*
X67049358Y-60718620D01*
X66855786Y-60808884D01*
X66855781Y-60808887D01*
X66850799Y-60811210D01*
X66846292Y-60814366D01*
X66846290Y-60814367D01*
X66671342Y-60936867D01*
X66671339Y-60936869D01*
X66666831Y-60940026D01*
X66508026Y-61098831D01*
X66504869Y-61103339D01*
X66504867Y-61103342D01*
X66408751Y-61240610D01*
X66379210Y-61282799D01*
X66376887Y-61287781D01*
X66376884Y-61287786D01*
X66339195Y-61368611D01*
X66292277Y-61421896D01*
X66224000Y-61441357D01*
X66156040Y-61420815D01*
X66110805Y-61368611D01*
X66073116Y-61287786D01*
X66073113Y-61287781D01*
X66070790Y-61282799D01*
X66041249Y-61240610D01*
X65945133Y-61103342D01*
X65945131Y-61103339D01*
X65941974Y-61098831D01*
X65783169Y-60940026D01*
X65759591Y-60923516D01*
X65702425Y-60883488D01*
X65599202Y-60811210D01*
X65594220Y-60808887D01*
X65594215Y-60808884D01*
X65400642Y-60718620D01*
X65400641Y-60718620D01*
X65395660Y-60716297D01*
X65390352Y-60714875D01*
X65390350Y-60714874D01*
X65184044Y-60659595D01*
X65184042Y-60659595D01*
X65178729Y-60658171D01*
X64955000Y-60638597D01*
X64731271Y-60658171D01*
X64725958Y-60659595D01*
X64725956Y-60659595D01*
X64519650Y-60714874D01*
X64519648Y-60714875D01*
X64514340Y-60716297D01*
X64509359Y-60718619D01*
X64509358Y-60718620D01*
X64315786Y-60808884D01*
X64315781Y-60808887D01*
X64310799Y-60811210D01*
X64306292Y-60814366D01*
X64306290Y-60814367D01*
X64131342Y-60936867D01*
X64131339Y-60936869D01*
X64126831Y-60940026D01*
X63968026Y-61098831D01*
X63964869Y-61103339D01*
X63964867Y-61103342D01*
X63868751Y-61240610D01*
X63839210Y-61282799D01*
X63836887Y-61287781D01*
X63836884Y-61287786D01*
X63799195Y-61368611D01*
X63752277Y-61421896D01*
X63684000Y-61441357D01*
X63616040Y-61420815D01*
X63570805Y-61368611D01*
X63533116Y-61287786D01*
X63533113Y-61287781D01*
X63530790Y-61282799D01*
X63501249Y-61240610D01*
X63405133Y-61103342D01*
X63405131Y-61103339D01*
X63401974Y-61098831D01*
X63243169Y-60940026D01*
X63219591Y-60923516D01*
X63162425Y-60883488D01*
X63059202Y-60811210D01*
X63054220Y-60808887D01*
X63054215Y-60808884D01*
X62860642Y-60718620D01*
X62860641Y-60718620D01*
X62855660Y-60716297D01*
X62850352Y-60714875D01*
X62850350Y-60714874D01*
X62644044Y-60659595D01*
X62644042Y-60659595D01*
X62638729Y-60658171D01*
X62415000Y-60638597D01*
X62191271Y-60658171D01*
X62185958Y-60659595D01*
X62185956Y-60659595D01*
X61979650Y-60714874D01*
X61979648Y-60714875D01*
X61974340Y-60716297D01*
X61969359Y-60718619D01*
X61969358Y-60718620D01*
X61775786Y-60808884D01*
X61775781Y-60808887D01*
X61770799Y-60811210D01*
X61766292Y-60814366D01*
X61766290Y-60814367D01*
X61591342Y-60936867D01*
X61591339Y-60936869D01*
X61586831Y-60940026D01*
X61428026Y-61098831D01*
X61424869Y-61103339D01*
X61424867Y-61103342D01*
X61328751Y-61240610D01*
X61299210Y-61282799D01*
X61296887Y-61287781D01*
X61296884Y-61287786D01*
X61259195Y-61368611D01*
X61212277Y-61421896D01*
X61144000Y-61441357D01*
X61076040Y-61420815D01*
X61030805Y-61368611D01*
X60993116Y-61287786D01*
X60993113Y-61287781D01*
X60990790Y-61282799D01*
X60961249Y-61240610D01*
X60865133Y-61103342D01*
X60865131Y-61103339D01*
X60861974Y-61098831D01*
X60703169Y-60940026D01*
X60679591Y-60923516D01*
X60622425Y-60883488D01*
X60519202Y-60811210D01*
X60514220Y-60808887D01*
X60514215Y-60808884D01*
X60320642Y-60718620D01*
X60320641Y-60718620D01*
X60315660Y-60716297D01*
X60310352Y-60714875D01*
X60310350Y-60714874D01*
X60104044Y-60659595D01*
X60104042Y-60659595D01*
X60098729Y-60658171D01*
X59875000Y-60638597D01*
X59651271Y-60658171D01*
X59645958Y-60659595D01*
X59645956Y-60659595D01*
X59439650Y-60714874D01*
X59439648Y-60714875D01*
X59434340Y-60716297D01*
X59429359Y-60718619D01*
X59429358Y-60718620D01*
X59235786Y-60808884D01*
X59235781Y-60808887D01*
X59230799Y-60811210D01*
X59226292Y-60814366D01*
X59226290Y-60814367D01*
X59051342Y-60936867D01*
X59051339Y-60936869D01*
X59046831Y-60940026D01*
X58888026Y-61098831D01*
X58884869Y-61103339D01*
X58884867Y-61103342D01*
X58808366Y-61212597D01*
X58752909Y-61256925D01*
X58682289Y-61264234D01*
X58618929Y-61232203D01*
X58585630Y-61180203D01*
X58553867Y-61084998D01*
X58553866Y-61084996D01*
X58551550Y-61078054D01*
X58458479Y-60927651D01*
X58333303Y-60802694D01*
X58258021Y-60756289D01*
X58188969Y-60713725D01*
X58188967Y-60713724D01*
X58182739Y-60709885D01*
X58048539Y-60665373D01*
X58021390Y-60656368D01*
X58021388Y-60656368D01*
X58014862Y-60654203D01*
X58008026Y-60653503D01*
X58008023Y-60653502D01*
X57964970Y-60649091D01*
X57910401Y-60643500D01*
X57339438Y-60643500D01*
X56759600Y-60643501D01*
X56653833Y-60654474D01*
X56647286Y-60656658D01*
X56647287Y-60656658D01*
X56492998Y-60708133D01*
X56492996Y-60708134D01*
X56486054Y-60710450D01*
X56335651Y-60803521D01*
X56210694Y-60928697D01*
X56117885Y-61079261D01*
X56093896Y-61151586D01*
X56067157Y-61232203D01*
X56062203Y-61247138D01*
X56051500Y-61351599D01*
X56051501Y-62502400D01*
X56062474Y-62608167D01*
X56064658Y-62614713D01*
X56115730Y-62767792D01*
X56118450Y-62775946D01*
X56211521Y-62926349D01*
X56336697Y-63051306D01*
X56342927Y-63055146D01*
X56476859Y-63137703D01*
X56487261Y-63144115D01*
X56588026Y-63177537D01*
X56646386Y-63217967D01*
X56673623Y-63283532D01*
X56661090Y-63353413D01*
X56620630Y-63400343D01*
X56511342Y-63476867D01*
X56511339Y-63476869D01*
X56506831Y-63480026D01*
X56348026Y-63638831D01*
X56219210Y-63822799D01*
X56216887Y-63827781D01*
X56216884Y-63827786D01*
X56179195Y-63908611D01*
X56124297Y-64026340D01*
X56066171Y-64243271D01*
X56046597Y-64467000D01*
X49538549Y-64467000D01*
X49539728Y-57460001D01*
X49559742Y-57391883D01*
X49613405Y-57345400D01*
X49666067Y-57334022D01*
X51514590Y-57338991D01*
G37*
%TD.AperFunction*%
%TD*%
M02*
