%TF.GenerationSoftware,KiCad,Pcbnew,(6.0.9-0)*%
%TF.CreationDate,2023-01-09T20:35:06+02:00*%
%TF.ProjectId,QE_PCB,51455f50-4342-42e6-9b69-6361645f7063,rev?*%
%TF.SameCoordinates,Original*%
%TF.FileFunction,Soldermask,Bot*%
%TF.FilePolarity,Negative*%
%FSLAX46Y46*%
G04 Gerber Fmt 4.6, Leading zero omitted, Abs format (unit mm)*
G04 Created by KiCad (PCBNEW (6.0.9-0)) date 2023-01-09 20:35:06*
%MOMM*%
%LPD*%
G01*
G04 APERTURE LIST*
G04 Aperture macros list*
%AMRoundRect*
0 Rectangle with rounded corners*
0 $1 Rounding radius*
0 $2 $3 $4 $5 $6 $7 $8 $9 X,Y pos of 4 corners*
0 Add a 4 corners polygon primitive as box body*
4,1,4,$2,$3,$4,$5,$6,$7,$8,$9,$2,$3,0*
0 Add four circle primitives for the rounded corners*
1,1,$1+$1,$2,$3*
1,1,$1+$1,$4,$5*
1,1,$1+$1,$6,$7*
1,1,$1+$1,$8,$9*
0 Add four rect primitives between the rounded corners*
20,1,$1+$1,$2,$3,$4,$5,0*
20,1,$1+$1,$4,$5,$6,$7,0*
20,1,$1+$1,$6,$7,$8,$9,0*
20,1,$1+$1,$8,$9,$2,$3,0*%
G04 Aperture macros list end*
%ADD10R,1.700000X1.700000*%
%ADD11O,1.700000X1.700000*%
%ADD12C,2.850000*%
%ADD13C,1.550000*%
%ADD14RoundRect,0.249999X-0.525001X-0.525001X0.525001X-0.525001X0.525001X0.525001X-0.525001X0.525001X0*%
G04 APERTURE END LIST*
D10*
%TO.C,J5*%
X110998000Y-98298000D03*
D11*
X110998000Y-100838000D03*
X110998000Y-103378000D03*
X110998000Y-105918000D03*
%TD*%
D10*
%TO.C,J1*%
X131318000Y-103378000D03*
D11*
X128778000Y-103378000D03*
X126238000Y-103378000D03*
X123698000Y-103378000D03*
X121158000Y-103378000D03*
X118618000Y-103378000D03*
%TD*%
D10*
%TO.C,J4*%
X128773000Y-87376000D03*
D11*
X131313000Y-87376000D03*
%TD*%
D10*
%TO.C,J2*%
X128773000Y-82296000D03*
D11*
X131313000Y-82296000D03*
%TD*%
D12*
%TO.C,J3*%
X141155000Y-59387000D03*
X52255000Y-59387000D03*
D13*
X136075000Y-61927000D03*
X133535000Y-61927000D03*
X130995000Y-61927000D03*
X128455000Y-61927000D03*
X125915000Y-61927000D03*
X123375000Y-61927000D03*
X120835000Y-61927000D03*
X118295000Y-61927000D03*
X115755000Y-61927000D03*
X113215000Y-61927000D03*
X110675000Y-61927000D03*
X108135000Y-61927000D03*
X105595000Y-61927000D03*
X103055000Y-61927000D03*
X100515000Y-61927000D03*
X97975000Y-61927000D03*
X95435000Y-61927000D03*
X92895000Y-61927000D03*
X90355000Y-61927000D03*
X87815000Y-61927000D03*
X85275000Y-61927000D03*
X82735000Y-61927000D03*
X80195000Y-61927000D03*
X77655000Y-61927000D03*
X75115000Y-61927000D03*
X72575000Y-61927000D03*
X70035000Y-61927000D03*
X67495000Y-61927000D03*
X64955000Y-61927000D03*
X62415000Y-61927000D03*
X59875000Y-61927000D03*
D14*
X57335000Y-61927000D03*
D13*
X136075000Y-64467000D03*
X133535000Y-64467000D03*
X130995000Y-64467000D03*
X128455000Y-64467000D03*
X125915000Y-64467000D03*
X123375000Y-64467000D03*
X120835000Y-64467000D03*
X118295000Y-64467000D03*
X115755000Y-64467000D03*
X113215000Y-64467000D03*
X110675000Y-64467000D03*
X108135000Y-64467000D03*
X105595000Y-64467000D03*
X103055000Y-64467000D03*
X100515000Y-64467000D03*
X97975000Y-64467000D03*
X95435000Y-64467000D03*
X92895000Y-64467000D03*
X90355000Y-64467000D03*
X87815000Y-64467000D03*
X85275000Y-64467000D03*
X82735000Y-64467000D03*
X80195000Y-64467000D03*
X77655000Y-64467000D03*
X75115000Y-64467000D03*
X72575000Y-64467000D03*
X70035000Y-64467000D03*
X67495000Y-64467000D03*
X64955000Y-64467000D03*
X62415000Y-64467000D03*
X59875000Y-64467000D03*
X57335000Y-64467000D03*
%TD*%
D10*
%TO.C,U3*%
X73670000Y-105938000D03*
D11*
X73670000Y-103398000D03*
X76210000Y-105938000D03*
X76210000Y-103398000D03*
X78750000Y-105938000D03*
X78750000Y-103398000D03*
X81290000Y-105938000D03*
X81290000Y-103398000D03*
X83830000Y-105938000D03*
X83830000Y-103398000D03*
X86370000Y-105938000D03*
X86370000Y-103398000D03*
X88910000Y-105938000D03*
X88910000Y-103398000D03*
X91450000Y-105938000D03*
X91450000Y-103398000D03*
X93990000Y-105938000D03*
X93990000Y-103398000D03*
X96530000Y-105938000D03*
X96530000Y-103398000D03*
X99070000Y-105938000D03*
X99070000Y-103398000D03*
X101610000Y-105938000D03*
X101610000Y-103398000D03*
X104150000Y-105938000D03*
X104150000Y-103398000D03*
X106690000Y-105938000D03*
X106690000Y-103398000D03*
D10*
X73670000Y-77998000D03*
D11*
X73670000Y-75458000D03*
X76210000Y-77998000D03*
X76210000Y-75458000D03*
X78750000Y-77998000D03*
X78750000Y-75458000D03*
X81290000Y-77998000D03*
X81290000Y-75458000D03*
X83830000Y-77998000D03*
X83830000Y-75458000D03*
X86370000Y-77998000D03*
X86370000Y-75458000D03*
X88910000Y-77998000D03*
X88910000Y-75458000D03*
X91450000Y-77998000D03*
X91450000Y-75458000D03*
X93990000Y-77998000D03*
X93990000Y-75458000D03*
X96530000Y-77998000D03*
X96530000Y-75458000D03*
X99070000Y-77998000D03*
X99070000Y-75458000D03*
X101610000Y-77998000D03*
X101610000Y-75458000D03*
X104150000Y-77998000D03*
X104150000Y-75458000D03*
X106690000Y-77998000D03*
X106690000Y-75458000D03*
%TD*%
M02*
